<?xml version="1.0" encoding="UTF-8" standalone="no"?><!DOCTYPE svg PUBLIC "-//W3C//DTD SVG 20010904//EN"
 "http://www.w3.org/Graphics/SVG/1.1/DTD/svg11.dtd">
<svg version="1.1" baseProfile="full" xmlns="http://www.w3.org/2000/svg"
 width="1024pt" height="1024pt" viewBox="0 0 1024 1024" preserveAspectRatio="xMidYMid meet">
<g id="svg" fill="black" stroke="none" stroke-linecap="round" transform="scale(0.1,0.1)">
<path d="M0 5120l0 5120 5120 0 5120 0 0 -5120 0 -5120 -5120 0 -5120 0 0 5120 z" fill="rgb(228, 228, 228)"/>
<path d="M6900 4301c-22 11 -48 35 -59 52 -11 18 -22 48 -25 67 -4 23 0 51 12 82 12 30 32 56 56 72 
30 22 45 26 97 24 51 -3 66 -8 99 -35 28 -24 41 -45 50 -82 10 -42 9 -56 -7 -97 
-14 -38 -28 -55 -62 -76 -29 -18 -59 -28 -83 -28 -21 0 -56 9 -78 21 z" fill="rgb(3, 86, 75)"/>
<path d="M7180 4695c0 9 0 14 0 15 0 5 0 88 0 190 0 8 0 16 0 25 0 171 3 215 19 272 
11 38 35 91 54 119 20 29 57 64 86 82 28 18 76 39 106 47 30 8 96 17 145 20 
50 3 95 1 100 -3 7 -5 10 -59 8 -143 l-3 -134 -77 -5 c-63 -5 -82 -10 -103 -30 
-25 -23 -25 -26 -25 -177 l0 -153 75 0 c72 0 76 1 85 26 6 14 51 158 100 319 
l91 294 -71 201 c-38 111 -68 206 -64 211 3 5 70 9 150 9 79 0 148 -4 154 -8 
5 -4 111 -297 235 -651 124 -354 225 -653 223 -665 -3 -20 -9 -21 -155 -24 
-137 -2 -153 -1 -161 15 -6 10 -38 112 -71 228 -34 115 -65 213 -70 218 
-4 4 -35 -97 -68 -225 l-60 -233 -194 -5 -194 -5 -3 -85 c-2 -46 -8 -90 -14 -97 
-7 -9 -45 -13 -135 -13 -68 0 -133 5 -144 10 -18 10 -19 23 -19 185 0 75 0 141 0 170 
z" fill="rgb(3, 86, 75)"/>
<path d="M3494 4473c-80 29 -98 40 -180 117 -83 77 -95 93 -125 165 -30 73 -33 90 -33 185 
l-1 105 30 0 30 0 6 -80 c4 -44 11 -97 17 -118 6 -21 26 -67 46 -102 23 -43 57 -82 99 -119 
41 -34 89 -64 131 -80 38 -15 86 -26 115 -26 31 0 53 -5 61 -15 7 -8 10 -25 6 -40 
-6 -23 -11 -25 -60 -25 -35 0 -83 11 -142 33 z" fill="rgb(3, 86, 75)"/>
<path d="M2053 4493c-52 17 -84 37 -136 82 -54 47 -75 75 -100 130 l-32 70 0 340 0 340 118 3 
c64 1 128 0 142 -3 l25 -5 0 -291 c0 -227 3 -297 14 -324 8 -18 23 -38 34 -44 
12 -6 35 -11 52 -11 17 0 44 7 59 15 16 8 32 22 37 32 5 10 11 155 14 323 
l5 305 140 0 140 0 5 -310 5 -310 26 -28 c20 -20 36 -27 64 -27 20 0 45 5 55 10 
11 6 25 20 32 33 9 16 14 106 18 327 l5 305 134 3 c90 2 138 -1 147 -9 11 -9 14 -69 14 -318 
0 -292 -1 -309 -23 -380 -16 -52 -38 -92 -70 -133 -36 -45 -65 -68 -127 -100 
-79 -42 -83 -43 -178 -43 -91 0 -102 2 -173 36 l-76 37 -76 -36 c-61 -28 -90 -36 -151 -38 
-59 -3 -91 1 -143 19 z" fill="rgb(3, 86, 75)"/>
<path d="M3803 4490c-10 10 -13 82 -13 282 0 214 -3 268 -13 268 -7 0 -22 -24 -33 -54 
-17 -44 -26 -55 -55 -66 -28 -10 -40 -10 -71 3 -29 12 -39 23 -47 54 -6 21 -11 87 -11 146 
0 98 -2 108 -17 105 -12 -2 -20 -16 -24 -41 -3 -21 -16 -49 -29 -62 -17 -18 -34 -25 -60 -25 
-25 0 -43 7 -58 23 -12 13 -24 38 -28 57 -3 19 -8 41 -10 48 -3 10 -14 5 -39 -17 
-23 -19 -47 -31 -65 -31 -16 0 -40 10 -54 23 -23 21 -25 29 -28 137 -3 111 -2 115 19 124 
15 6 27 5 38 -4 11 -9 15 -34 15 -105 0 -50 3 -94 6 -97 3 -4 24 8 47 25 
39 30 44 31 77 20 19 -7 39 -21 44 -30 6 -10 13 -38 16 -63 3 -31 10 -45 20 -45 
10 0 17 16 22 47 6 33 16 53 34 67 15 12 41 21 61 21 23 0 42 -8 58 -25 
24 -23 25 -30 25 -148 0 -81 4 -127 12 -135 8 -8 15 -9 25 -1 7 7 13 22 13 36 
0 14 13 37 29 54 22 22 39 29 67 29 25 0 46 -7 61 -22 23 -21 23 -24 23 -260 
0 -131 4 -238 8 -238 4 0 33 23 64 50 38 33 70 75 95 122 34 65 38 79 41 168 
4 85 1 105 -22 167 -15 42 -45 94 -75 131 -32 40 -73 75 -119 102 -47 29 -95 47 -148 58 
-44 10 -85 21 -91 25 -7 5 -13 17 -13 27 0 11 9 24 20 30 14 7 39 8 85 0 
36 -5 98 -25 138 -43 48 -22 96 -55 139 -96 43 -40 79 -85 102 -129 19 -37 43 -96 52 -132 
11 -44 15 -91 12 -150 -3 -65 -11 -102 -34 -155 -19 -46 -52 -96 -95 -146 
-52 -60 -81 -83 -135 -110 -59 -29 -71 -32 -81 -19 z" fill="rgb(3, 86, 75)"/>
<path d="M4215 4855c4 131 6 281 5 345 l-8 125 c0 29 -1 51 -1 61 -2 34 2 54 12 62 
10 9 54 12 148 10 l134 -3 5 -305 c5 -288 6 -306 24 -318 11 -6 41 -12 67 -12 
29 0 56 7 70 18 l24 17 5 300 5 300 145 0 145 0 3 -320 2 -320 -25 -68 c-15 -40 -42 -87 -65 -113 
-22 -24 -67 -57 -100 -74 l-60 -30 -260 0 c-257 0 -259 0 -271 22 -9 16 -10 87 -5 273 
1 9 1 20 1 30 z" fill="rgb(3, 86, 75)"/>
<path d="M5267 4558c-40 18 -82 47 -110 76 -30 30 -56 71 -73 114 -24 60 -27 82 -31 222 
-3 126 0 168 14 225 12 48 31 88 60 127 32 44 58 66 113 95 l71 38 290 3 
c214 3 294 0 305 -9 11 -9 14 -40 14 -133 0 -82 -4 -126 -12 -134 -9 -9 -82 -12 -265 -12 
-242 0 -254 -1 -274 -21 -11 -11 -19 -28 -17 -37 3 -15 31 -17 283 -22 l280 -5 0 -145 
0 -145 -35 -70 c-25 -50 -51 -83 -90 -116 -31 -26 -77 -54 -103 -63 -36 -12 -86 -16 -202 -16 
-147 0 -156 1 -218 28 z" fill="rgb(3, 86, 75)"/>
<path d="M5914 4548c-2 9 52 206 121 437 68 231 129 432 134 448 l9 27 167 0 166 0 13 -32 
c8 -18 71 -220 141 -449 71 -232 125 -424 122 -433 -6 -15 -25 -16 -159 -14 
l-153 3 -60 235 c-33 129 -63 238 -66 242 -3 4 -29 -95 -58 -220 -29 -125 -57 -235 -62 -244 
-9 -16 -27 -18 -160 -18 -135 0 -151 2 -155 18 z" fill="rgb(3, 86, 75)"/>
<path d="M6825 5060l0 395 145 0 145 0 0 -390 0 -390 -145 -5 -145 -5 0 395 z" fill="rgb(3, 86, 75)"/>
<path d="M7180 4695l-20 13 c-18 11 -20 23 -20 102 0 83 1 90 20 90 l20 0 c0 -102 0 -185 0 -190 
0 -1 0 -6 0 -15 z" fill="rgb(219, 219, 219)"/>
<path d="M5422 4818c-32 2 -46 9 -59 28 -11 17 -13 28 -6 35 6 6 53 13 105 16 53 3 107 3 122 -1 
17 -4 26 -13 26 -26 0 -10 -9 -26 -20 -34 -11 -9 -44 -17 -72 -18 -29 -2 -72 -2 -96 0 
z" fill="rgb(228, 228, 228)"/>
<path d="M4215 4855l-2 240 c0 87 0 173 -1 230 l8 -125 c1 -64 -1 -214 -5 -345 z" fill="rgb(98, 143, 136)"/>
<path d="M1936 5660c-8 6 -17 25 -21 43 -3 17 -11 42 -18 55 -8 18 -8 25 0 30 7 4 13 34 15 67 
2 48 7 61 21 63 14 3 17 -5 17 -52 0 -45 4 -58 20 -68 11 -7 20 -18 20 -24 
0 -7 -9 -14 -20 -17 -13 -3 -20 -14 -20 -30 0 -13 6 -28 12 -33 7 -5 22 -10 32 -11 
17 -1 18 -4 7 -17 -8 -9 -22 -16 -32 -16 -11 0 -25 5 -33 10 z" fill="rgb(3, 86, 75)"/>
<path d="M6197 5756c-3 52 -3 111 0 130 3 19 11 34 19 34 8 0 16 -11 20 -25 3 -14 4 -31 1 -39 
-3 -7 1 -26 9 -40 10 -20 20 -27 36 -24 20 3 24 10 28 63 4 47 9 61 23 63 
15 3 17 -5 17 -62 0 -58 -3 -67 -27 -86 -15 -11 -33 -18 -40 -15 -7 3 -22 8 -33 11 
-18 5 -20 1 -20 -50 0 -40 -4 -56 -14 -56 -10 0 -15 25 -19 96 z" fill="rgb(3, 86, 75)"/>
<path d="M6402 5788l3 127 63 2 c55 2 66 0 88 -22 13 -13 24 -35 24 -49 0 -14 -5 -36 -11 -50 
-7 -13 -24 -30 -38 -36 -19 -8 -35 -8 -55 0 -15 5 -29 10 -30 10 -2 0 -6 -25 -10 -55 
-4 -40 -10 -55 -21 -55 -13 0 -15 19 -13 128 z" fill="rgb(3, 86, 75)"/>
<path d="M7309 5766c10 2 11 -8 11 -51 0 -32 1 -46 5 -51 l-12 48 -4 54 z" fill="rgb(151, 177, 175)"/>
<path d="M7309 5766c-2 0 -4 -1 -6 -2 -10 -5 -31 -9 -46 -8 -15 1 -39 12 -52 24 -17 16 -25 34 -25 57 
0 23 8 42 24 58 22 21 33 24 83 22 32 -1 61 -6 65 -12 4 -5 8 -61 8 -123 
0 -106 -1 -114 -20 -119 -7 -2 -12 -2 -15 1 -4 5 -5 19 -5 51 0 43 -1 53 -11 51 
z" fill="rgb(3, 86, 75)"/>
<path d="M2029 5679c-7 5 -9 16 -6 25 4 9 13 16 21 16 8 0 18 -5 22 -11 3 -6 -1 -17 -10 -25 
-10 -9 -20 -11 -27 -5 z" fill="rgb(34, 105, 94)"/>
<path d="M5730 5721c0 45 -2 50 -17 43 -10 -5 -31 -9 -46 -8 -15 1 -39 12 -52 24 -18 17 -25 34 -25 60 
0 25 7 43 23 58 19 18 33 21 88 19 l64 -2 3 -122 c2 -118 2 -123 -18 -123 
-17 0 -20 6 -20 51 z" fill="rgb(3, 86, 75)"/>
<path d="M5370 5722c0 12 -8 29 -17 38 -17 16 -17 17 0 36 11 14 17 37 17 72 0 37 4 52 14 52 
9 0 16 -19 20 -61 5 -38 12 -62 22 -66 8 -3 14 -14 14 -24 0 -10 -7 -19 -15 -19 
-9 0 -15 -9 -15 -25 0 -18 -5 -25 -20 -25 -14 0 -20 7 -20 22 z" fill="rgb(34, 105, 94)"/>
<path d="M2183 5758c-10 4 -28 5 -40 3 -22 -3 -23 -1 -23 79 0 72 2 81 18 78 13 -2 18 -15 20 -60 
3 -52 6 -59 27 -64 13 -3 28 -3 33 0 5 3 12 33 15 66 4 47 9 60 21 60 14 0 16 -11 14 -72 
-3 -72 -3 -73 -35 -85 -18 -7 -41 -10 -50 -5 z" fill="rgb(3, 86, 75)"/>
<path d="M2345 5776c-27 23 -35 37 -35 62 0 21 8 41 24 57 21 21 32 24 90 22 l66 -2 0 -79 
c0 -74 -1 -78 -20 -72 -11 3 -36 1 -55 -6 -32 -11 -37 -10 -70 18 z" fill="rgb(3, 86, 75)"/>
<path d="M2945 5778c-32 25 -37 34 -33 62 3 17 12 40 22 51 9 11 32 23 50 26 19 3 46 -1 62 -8 
15 -8 29 -20 32 -26 2 -7 -4 -13 -12 -13 -9 0 -25 5 -35 11 -10 7 -30 9 -44 5 
-15 -3 -27 -13 -27 -21 0 -12 14 -15 65 -15 l65 0 -6 -27 c-3 -16 -15 -36 -27 -46 
-11 -10 -33 -21 -48 -24 -21 -4 -37 2 -64 25 z" fill="rgb(34, 105, 94)"/>
<path d="M3414 5765c-18 10 -31 12 -39 5 -6 -5 -37 -9 -68 -8 l-57 2 0 78 c0 62 3 78 15 78 
8 0 17 -10 20 -22 2 -13 6 -41 7 -63 2 -29 8 -41 21 -43 10 -2 24 2 32 8 
10 8 15 31 15 66 0 47 2 54 20 54 17 0 20 -7 20 -52 0 -29 4 -59 9 -66 4 -8 19 -12 32 -10 
22 3 24 8 27 66 3 54 6 62 22 62 18 0 20 -7 20 -65 0 -52 -4 -69 -20 -85 
-11 -11 -27 -20 -35 -20 -8 0 -27 7 -41 15 z" fill="rgb(3, 86, 75)"/>
<path d="M3591 5764c-15 8 -33 27 -38 42 -5 16 -7 41 -3 55 4 14 18 34 31 43 13 9 34 16 47 16 
13 0 31 -3 40 -7 9 -5 26 -6 37 -3 18 5 20 -1 23 -64 2 -41 -2 -74 -8 -80 
-8 -8 -13 -7 -18 1 -6 10 -16 9 -45 -2 -32 -13 -41 -13 -66 -1 z" fill="rgb(3, 86, 75)"/>
<path d="M3857 5757c-4 3 -23 6 -42 5 l-35 -1 0 73 c0 40 3 75 6 79 3 3 12 3 20 0 
9 -3 14 -21 14 -53 0 -29 6 -52 15 -60 8 -6 22 -10 32 -8 14 2 20 17 27 66 
6 41 13 62 22 62 10 0 14 -16 14 -61 0 -33 -4 -69 -10 -79 -5 -10 -20 -20 -33 -24 
-13 -3 -27 -3 -30 1 z" fill="rgb(3, 86, 75)"/>
<path d="M4227 5773c-31 22 -37 32 -37 62 0 26 7 43 26 60 15 14 38 25 51 25 13 0 33 -5 45 -11 
11 -6 22 -9 24 -6 3 2 0 15 -5 29 -5 14 -18 28 -29 30 -10 3 -34 -1 -52 -9 
-20 -8 -37 -10 -42 -5 -6 6 -2 16 8 26 9 9 29 20 45 23 16 3 43 0 59 -7 
17 -7 35 -21 40 -31 6 -10 10 -59 10 -110 0 -87 -1 -91 -20 -85 -11 3 -35 1 -53 -5 
-30 -11 -38 -9 -70 14 z" fill="rgb(34, 105, 94)"/>
<path d="M4451 5774c-25 21 -31 33 -31 64 0 26 7 45 19 56 11 10 37 20 58 23 33 4 44 1 66 -21 
18 -17 22 -26 12 -26 -8 0 -26 5 -40 12 -19 8 -31 8 -50 0 -14 -6 -25 -16 -25 -22 
0 -6 27 -10 65 -10 57 0 65 -2 65 -19 0 -10 -9 -30 -20 -44 -12 -15 -36 -29 -54 -33 
-27 -5 -40 -1 -65 20 z" fill="rgb(34, 105, 94)"/>
<path d="M4798 5763c-15 8 -47 10 -93 7 l-70 -5 0 65 c0 36 2 71 4 78 2 6 9 12 17 12 
10 0 14 -13 14 -46 0 -25 5 -54 10 -65 6 -10 19 -19 30 -19 11 0 24 9 30 19 
5 11 10 40 10 65 0 34 4 46 15 46 11 0 15 -12 15 -46 0 -25 5 -54 10 -65 
6 -10 19 -19 30 -19 11 0 24 9 30 19 5 11 10 40 10 65 0 33 4 46 14 46 9 0 16 -16 21 -48 
3 -27 2 -60 -4 -76 -7 -18 -22 -31 -41 -37 -21 -6 -37 -5 -52 4 z" fill="rgb(3, 86, 75)"/>
<path d="M4980 5765c-18 8 -35 27 -41 45 -8 23 -8 38 1 61 7 17 24 35 37 40 13 5 37 9 53 9 
15 0 38 -8 51 -17 13 -10 21 -22 17 -27 -4 -5 -20 -3 -37 4 -17 7 -42 9 -56 6 
-14 -4 -25 -13 -25 -21 0 -12 14 -15 59 -15 33 0 62 -3 65 -8 2 -4 -2 -22 -10 -40 
-10 -25 -23 -36 -49 -43 -26 -7 -43 -5 -65 6 z" fill="rgb(34, 105, 94)"/>
<path d="M5844 5775c-29 21 -34 30 -34 64 0 31 6 44 27 61 21 16 36 20 63 16 19 -3 47 -6 63 -6 
27 0 27 0 27 -70 0 -49 -4 -71 -12 -73 -7 -1 -33 -5 -56 -9 -37 -6 -49 -3 -78 17 
z" fill="rgb(3, 86, 75)"/>
<path d="M6055 5764c-14 8 -25 24 -25 34 0 11 6 25 14 31 8 7 28 16 46 21 19 6 30 14 27 22 
-2 7 -14 12 -26 11 -11 -2 -30 -6 -41 -9 -14 -5 -20 -2 -20 9 0 9 9 21 19 27 
11 5 33 10 49 10 16 0 37 -9 46 -19 10 -11 16 -28 14 -38 -1 -10 -22 -27 -46 -38 
-23 -11 -41 -24 -38 -30 2 -5 11 -9 20 -7 9 1 23 5 31 8 10 4 15 0 15 -10 
0 -10 -13 -21 -30 -27 -22 -7 -37 -5 -55 5 z" fill="rgb(34, 105, 94)"/>
<path d="M6645 5776c-26 22 -35 38 -35 60 0 20 9 41 26 58 20 19 37 26 66 26 28 0 46 -7 63 -25 
17 -16 25 -35 25 -58 0 -22 -8 -41 -23 -55 -13 -12 -38 -25 -55 -28 -27 -6 -39 -2 -67 22 
z" fill="rgb(34, 105, 94)"/>
<path d="M6870 5764c-18 9 -32 26 -37 43 -4 15 -6 37 -4 48 1 11 12 30 24 43 18 19 29 22 86 20 
l66 -3 3 -79 3 -79 -27 6 c-15 3 -40 1 -56 -4 -20 -6 -37 -5 -58 5 z" fill="rgb(3, 86, 75)"/>
<path d="M7073 5758c-9 3 -13 27 -13 79 0 65 2 74 18 71 12 -2 18 -16 22 -48 4 -36 11 -49 35 -65 
20 -13 27 -24 21 -33 -6 -11 -12 -10 -30 1 -17 11 -25 12 -32 4 -5 -7 -15 -10 -21 -9 
z" fill="rgb(3, 86, 75)"/>
<path d="M2030 5839c0 65 3 81 15 81 12 0 15 -15 15 -75 0 -58 -4 -77 -15 -81 -13 -5 -15 7 -15 75 
z" fill="rgb(34, 105, 94)"/>
<path d="M2540 5830c0 36 4 71 9 79 5 7 15 11 22 9 9 -3 13 -18 11 -46 -2 -22 2 -50 8 -61 
6 -12 21 -21 34 -21 13 0 27 7 30 16 3 9 6 38 6 66 0 42 3 49 18 46 13 -2 18 -15 20 -53 
1 -29 -4 -61 -12 -77 -14 -26 -18 -27 -80 -26 l-66 2 0 66 z" fill="rgb(3, 86, 75)"/>
<path d="M2752 5791c-16 22 -22 40 -19 58 3 14 14 36 25 48 13 15 32 23 52 23 17 0 40 -5 51 -10 
10 -6 19 -18 19 -26 0 -10 -5 -14 -15 -10 -8 3 -25 9 -38 12 -15 4 -28 -1 -41 -15 
-12 -14 -16 -28 -12 -45 3 -14 15 -28 27 -31 11 -4 34 -1 50 5 16 7 32 11 34 8 
3 -2 -2 -14 -11 -26 -11 -17 -25 -22 -56 -22 -35 0 -45 5 -66 31 z" fill="rgb(34, 105, 94)"/>
<path d="M3989 5789c-17 23 -20 37 -15 65 4 23 16 42 31 51 17 10 46 14 85 13 l60 -3 0 -75 
0 -76 -70 -2 c-66 -2 -71 0 -91 27 z" fill="rgb(3, 86, 75)"/>
<path d="M5150 5838c0 65 2 73 18 70 13 -2 18 -16 22 -53 3 -32 11 -53 21 -59 9 -5 24 -6 33 -3 
12 5 16 19 16 55 0 29 6 54 13 61 8 6 17 8 20 4 4 -3 7 -31 7 -60 0 -30 -5 -63 -10 -74 
-9 -16 -21 -19 -75 -17 l-65 2 0 74 z" fill="rgb(3, 86, 75)"/>
<path d="M2978 5788c-10 2 -18 10 -18 18 0 10 12 14 40 14 22 0 40 -5 40 -10 0 -6 -10 -14 -22 -18 
-13 -4 -31 -6 -40 -4 z" fill="rgb(228, 228, 228)"/>
<path d="M4460 5809c0 1 0 3 1 4 3 4 24 7 47 7 17 0 31 -2 38 -6 2 -1 4 -3 4 -4 0 -6 -11 -15 -25 -22 
-19 -8 -29 -8 -47 3 -10 6 -17 13 -18 18 z" fill="rgb(228, 228, 228)"/>
<path d="M4995 5792c-11 9 -17 19 -14 23 4 3 27 5 50 3 l44 -3 -30 -20 c-28 -19 -31 -19 -50 -3 
z" fill="rgb(228, 228, 228)"/>
<path d="M2357 5819c-9 25 -8 33 8 50 10 12 25 21 33 21 9 0 24 -7 34 -17 10 -9 18 -26 18 -38 
0 -11 -5 -26 -12 -33 -7 -7 -25 -12 -41 -12 -23 0 -31 6 -40 29 z" fill="rgb(228, 228, 228)"/>
<path d="M3599 5808c-7 11 -9 31 -5 45 4 17 15 29 31 33 14 3 32 1 40 -6 8 -6 17 -21 21 -32 
3 -12 -1 -27 -12 -39 -9 -10 -28 -19 -40 -19 -13 0 -29 8 -35 18 z" fill="rgb(228, 228, 228)"/>
<path d="M4018 5815c-9 19 -8 29 6 50 9 14 23 25 32 25 8 0 24 -5 35 -10 12 -7 19 -21 19 -38 
0 -16 -5 -33 -12 -40 -7 -7 -25 -12 -40 -12 -20 0 -32 7 -40 25 z" fill="rgb(228, 228, 228)"/>
<path d="M4240 5810c-6 12 -8 30 -5 41 4 11 18 25 31 31 19 9 28 8 44 -7 11 -10 20 -28 20 -40 
0 -11 -5 -26 -12 -33 -7 -7 -24 -12 -40 -12 -17 0 -31 7 -38 20 z" fill="rgb(228, 228, 228)"/>
<path d="M5641 5804c-7 8 -11 27 -9 43 2 18 11 32 26 38 14 6 28 6 39 0 10 -6 22 -20 27 -32 
8 -17 6 -26 -8 -42 -11 -12 -29 -21 -41 -21 -13 0 -28 6 -34 14 z" fill="rgb(228, 228, 228)"/>
<path d="M5862 5802c-7 7 -12 25 -12 40 0 20 7 32 24 40 14 6 32 8 40 5 9 -4 21 -18 28 -32 
9 -21 8 -28 -7 -45 -10 -11 -28 -20 -40 -20 -11 0 -26 5 -33 12 z" fill="rgb(228, 228, 228)"/>
<path d="M6457 5803c-12 8 -18 22 -15 38 2 13 13 31 25 39 15 11 26 12 39 5 10 -5 23 -20 29 -33 
7 -15 6 -27 -1 -40 -6 -9 -22 -18 -35 -20 -13 -2 -32 3 -42 11 z" fill="rgb(228, 228, 228)"/>
<path d="M6657 5813c-6 13 -8 31 -4 40 3 9 15 22 26 29 15 9 25 9 45 0 19 -8 26 -19 26 -40 
0 -15 -5 -33 -12 -40 -7 -7 -25 -12 -41 -12 -20 0 -32 7 -40 23 z" fill="rgb(228, 228, 228)"/>
<path d="M6882 5802c-7 7 -12 25 -12 40 0 21 7 32 26 40 17 8 31 9 42 2 9 -5 21 -19 26 -31 
8 -17 6 -26 -8 -42 -11 -12 -29 -21 -41 -21 -11 0 -26 5 -33 12 z" fill="rgb(228, 228, 228)"/>
<path d="M7232 5802c-7 7 -12 24 -12 40 0 17 7 31 19 38 11 5 27 10 35 10 9 0 23 -11 32 -25 
15 -23 15 -27 0 -50 -10 -15 -26 -25 -39 -25 -13 0 -28 5 -35 12 z" fill="rgb(228, 228, 228)"/>
<path d="M4460 5809l-8 11 c-3 8 12 10 47 7 l47 -13 c-7 4 -21 6 -38 6 -23 0 -44 -3 -47 -7 
-1 -1 -1 -3 -1 -4 z" fill="rgb(65, 127, 119)"/>
</g>
</svg>
