<?xml version="1.0" encoding="UTF-8" standalone="no"?><!DOCTYPE svg PUBLIC "-//W3C//DTD SVG 20010904//EN"
 "http://www.w3.org/Graphics/SVG/1.1/DTD/svg11.dtd">
<svg version="1.1" baseProfile="full" xmlns="http://www.w3.org/2000/svg"
 width="1024pt" height="1024pt" viewBox="0 0 1024 1024" preserveAspectRatio="xMidYMid meet">
<g id="svg" fill="black" stroke="none" stroke-linecap="round" transform="scale(0.1,0.1)">
<path d="M0 5120l0 5120 5120 0 5120 0 0 -5120 0 -5120 -5120 0 -5120 0 0 5120 z" fill="rgb(232, 255, 245)"/>
<path d="M1662 5395c-1 -64 -4 -120 -9 -127 -4 -7 -4 -77 1 -155 7 -127 7 -141 -8 -145 
-15 -3 -15 -9 1 -78 10 -41 21 -76 25 -77 5 -2 7 0 6 3 l-3 7 150 356 c82 196 159 366 171 378 
12 12 41 24 68 28 25 4 67 4 93 0 30 -4 55 -16 73 -34 18 -17 76 -143 171 -371 
l144 -345 8 -9 c4 -6 7 42 7 105 1 62 0 220 0 349 l-3 235 c4 17 14 36 24 46 
16 16 33 19 112 19 89 0 95 -1 118 -27 l24 -28 3 -535 c1 -295 -1 -560 -5 -590 
-7 -46 -13 -58 -41 -77 -30 -22 -40 -23 -166 -20 -116 2 -138 5 -162 22 
-24 16 -57 91 -190 422 l-161 403 -138 -348 c-75 -191 -149 -374 -164 -407 
-20 -45 -35 -64 -61 -77 -27 -14 -60 -18 -147 -18 -62 0 -129 5 -148 10 
-19 6 -41 21 -50 33 -13 19 -15 98 -15 606 l0 585 22 23 c19 21 30 23 109 23 
77 0 91 -3 115 -23 26 -23 27 -25 26 -150 0 -4 0 -8 0 -12 z"/>
<path d="M6893 4338c-36 31 -44 45 -49 84 -5 32 -2 61 8 85 8 22 30 50 51 66 30 21 49 27 88 27 
27 0 64 -7 80 -16 17 -8 41 -31 55 -51 16 -25 24 -50 24 -80 0 -24 -7 -58 -16 -74 
-8 -17 -31 -41 -51 -55 -27 -18 -49 -24 -91 -24 -50 0 -60 4 -99 38 z"/>
<path d="M7905 5350c-10 0 -26 0 -40 0 -12 0 -29 -1 -46 -3 -11 -1 -22 -3 -31 -4 -28 -5 -50 -17 -65 -36 
-22 -26 -23 -35 -23 -207 l0 -180 125 0 125 0 145 290 c80 159 145 298 145 308 
0 10 -15 43 -34 74 -18 31 -45 63 -59 72 -14 10 -58 20 -99 24 -50 5 -80 13 -95 26 
-20 17 -23 29 -23 96 0 69 2 79 26 101 23 22 34 24 119 24 87 -1 98 -4 168 -38 
45 -22 90 -54 115 -81 23 -25 64 -84 91 -133 27 -48 134 -272 236 -497 148 -324 186 -415 182 -440 
-2 -19 -14 -38 -31 -48 -20 -14 -47 -18 -111 -18 -76 0 -88 3 -109 23 -13 13 -68 131 -122 263 
-54 131 -101 240 -104 242 -3 1 -58 -109 -122 -244 -109 -230 -119 -247 -155 -265 
-33 -17 -59 -19 -225 -19 l-188 0 0 -86 c0 -81 -1 -87 -29 -115 -27 -27 -35 -29 -104 -29 
-60 0 -79 4 -101 21 -25 19 -26 25 -26 114 l0 93 -94 4 c-84 3 -97 6 -120 27 
-23 22 -26 32 -26 93 0 60 3 72 25 93 22 23 32 25 120 25 l95 0 0 198 c0 162 4 208 19 257 
13 44 31 74 68 113 32 34 68 60 103 75 46 18 74 22 172 22 109 0 118 -1 142 -24 
23 -22 26 -32 26 -95 0 -58 -4 -74 -22 -93 -12 -13 -27 -23 -35 -23 -2 0 -4 0 -8 0 
z"/>
<path d="M3344 4558c-42 11 -107 36 -145 56 -42 23 -90 61 -127 101 -33 35 -75 93 -92 129 
-18 36 -40 101 -48 145 -13 65 -14 93 -5 158 7 53 24 106 52 165 30 65 56 103 102 149 
42 42 84 72 136 97 54 25 102 39 169 49 71 10 111 10 164 3 41 -7 101 -26 147 -48 
50 -24 102 -59 146 -100 47 -43 79 -84 103 -130 20 -39 41 -103 51 -151 
14 -71 15 -96 5 -165 -8 -58 -23 -104 -53 -165 -29 -59 -60 -102 -103 -145 
-40 -40 -88 -75 -139 -101 -65 -32 -96 -41 -183 -52 -94 -12 -111 -11 -180 5 
z" fill="rgb(72, 187, 101)"/>
<path d="M5325 4685c-36 8 -88 27 -117 41 -28 14 -73 49 -100 76 -38 39 -54 67 -73 122 
-15 45 -27 108 -31 167 -4 74 -2 113 14 183 14 61 31 106 54 140 18 28 59 70 90 94 
42 31 79 48 135 62 50 13 110 20 174 20 60 0 127 -7 178 -19 44 -11 97 -29 116 -41 
27 -17 38 -32 46 -66 6 -24 8 -59 5 -78 -4 -20 -18 -44 -33 -56 -14 -11 -39 -20 -54 -20 
-16 0 -56 9 -89 20 -40 13 -92 21 -157 23 -84 2 -105 -1 -147 -20 -35 -17 -53 -33 -67 -60 
l-19 -38 285 -5 285 -5 26 -26 c15 -16 30 -45 34 -70 5 -24 4 -79 0 -122 
-6 -45 -20 -102 -34 -132 -13 -29 -43 -71 -66 -94 -24 -23 -70 -52 -108 -68 
-52 -22 -91 -30 -174 -35 -82 -6 -123 -4 -173 7 z"/>
<path d="M4646 5025l9 7 c4 3 5 113 4 245 l-2 238 c0 7 1 11 1 12 1 6 14 21 28 32 
22 17 41 21 101 21 69 0 77 -2 104 -29 l29 -29 0 -264 c0 -246 -2 -268 -23 -337 
-17 -54 -34 -84 -66 -118 -23 -25 -67 -58 -97 -74 -37 -20 -79 -32 -134 -39 
-44 -5 -166 -9 -271 -7 -191 2 -192 2 -220 28 l-29 27 0 387 c0 271 3 393 11 408 
7 12 20 28 30 35 11 7 50 12 90 12 39 0 79 -5 91 -11 11 -6 26 -26 34 -44 
11 -27 14 -96 14 -321 l0 -286 120 4 c118 3 120 3 147 33 l28 30 1 40 z"/>
<path d="M5907 4700c-18 15 -27 31 -27 51 0 16 68 199 150 407 107 266 158 384 176 400 
23 20 35 22 135 22 87 0 115 -4 137 -17 23 -15 52 -81 185 -412 139 -345 158 -397 148 -418 
-6 -14 -25 -32 -42 -40 -22 -11 -53 -14 -109 -11 -69 3 -83 6 -104 28 -16 17 -52 107 -111 280 
-47 140 -91 259 -96 265 -5 5 -9 7 -9 4 0 -4 -41 -123 -91 -265 -61 -175 -98 -267 -115 -284 
-22 -22 -34 -25 -112 -28 -77 -3 -90 -1 -115 18 z"/>
<path d="M7134 5275l0 -75 c0 -15 0 -42 0 -75 1 -55 1 -128 1 -195 l0 -195 -33 -27 
c-28 -25 -41 -28 -101 -28 -60 0 -74 4 -100 26 l-31 26 0 399 0 400 25 24 
c22 22 32 25 105 25 73 0 83 -3 105 -25 23 -22 25 -31 25 -128 0 -46 2 -108 4 -152 
z"/>
<path d="M3323 4726c-51 19 -81 40 -128 87 -47 47 -68 79 -89 130 -15 38 -25 71 -22 74 
2 3 51 -22 108 -54 57 -32 120 -71 140 -86 24 -18 47 -27 64 -25 22 3 38 25 107 148 
63 111 86 144 98 139 8 -3 66 -34 127 -68 76 -42 112 -67 112 -79 0 -9 -14 -43 -30 -75 
-17 -32 -51 -78 -75 -103 -25 -24 -74 -58 -110 -75 -54 -26 -81 -32 -150 -35 
-73 -3 -94 0 -152 22 z" fill="rgb(232, 255, 245)"/>
<path d="M1662 5395l9 -286 4 -286 3 -7 c1 -3 -1 -5 -6 -3 -4 1 -15 36 -25 77 -16 69 -16 75 -1 78 
15 4 15 18 8 145 -5 78 -5 148 -1 155 5 7 8 63 9 127 z" fill="rgb(74, 83, 81)"/>
<path d="M2545 4835l2 320 c1 176 5 335 8 353 1 2 1 5 2 7 l3 -235 c0 -129 1 -287 0 -349 
0 -63 -3 -111 -7 -105 l-8 9 z" fill="rgb(106, 113, 111)"/>
<path d="M5347 4918c-28 12 -53 33 -70 57 -14 21 -24 42 -21 47 3 4 91 8 195 8 l190 0 -6 -22 
c-3 -13 -17 -36 -29 -53 -13 -16 -37 -36 -54 -42 -18 -7 -61 -13 -97 -13 
-40 0 -82 7 -108 18 z" fill="rgb(232, 255, 245)"/>
<path d="M4646 5025l4 225 c3 122 6 230 7 265 l2 -238 c1 -132 0 -242 -4 -245 l-9 -7 
z" fill="rgb(106, 113, 111)"/>
<path d="M3232 5125c-61 36 -119 71 -127 78 -13 11 -11 20 19 69 18 31 56 74 84 96 
27 22 76 51 109 64 46 18 77 23 148 23 80 0 97 -3 157 -32 37 -17 88 -51 113 -74 
26 -24 60 -70 77 -102 16 -33 26 -58 21 -56 -4 2 -59 34 -122 72 -78 46 -124 67 -147 67 
-23 0 -39 -8 -57 -29 -13 -16 -50 -77 -82 -135 -32 -58 -63 -106 -69 -106 
-6 0 -62 29 -124 65 z" fill="rgb(232, 255, 245)"/>
<path d="M7134 5275c1 -10 2 -20 2 -28 4 -42 11 -74 15 -71 5 3 9 -5 9 -18 0 -18 -2 -20 -10 -8 
-8 12 -10 12 -10 -5 l-6 -20 c0 33 0 60 0 75 l0 75 z" fill="rgb(154, 167, 164)"/>
<path d="M7905 5350l-42 -7 -44 4 c17 2 34 3 46 3 14 0 30 0 40 0 z" fill="rgb(87, 94, 92)"/>
</g>
</svg>
