<?xml version="1.0" encoding="UTF-8" standalone="no"?><!DOCTYPE svg PUBLIC "-//W3C//DTD SVG 20010904//EN"
 "http://www.w3.org/Graphics/SVG/1.1/DTD/svg11.dtd">
<svg version="1.1" baseProfile="full" xmlns="http://www.w3.org/2000/svg"
 width="1024pt" height="1024pt" viewBox="0 0 1024 1024" preserveAspectRatio="xMidYMid meet">
<g id="svg" fill="black" stroke="none" stroke-linecap="round" transform="scale(0.1,0.1)">
<path d="M0 5120l0 5120 5120 0 5120 0 0 -5120 0 -5120 -5120 0 -5120 0 0 5120 z" fill="rgb(225, 242, 234)"/>
<path d="M7240 3920c-33 11 -79 34 -101 51 -23 17 -57 56 -75 87 -21 34 -38 81 -45 118 
-9 50 -8 74 5 125 9 35 32 87 51 114 21 31 58 66 95 90 48 31 74 41 137 49 
69 10 85 9 142 -9 53 -16 76 -31 127 -81 50 -48 67 -72 83 -122 12 -35 21 -87 21 -122 
0 -45 -7 -76 -29 -123 -18 -38 -47 -79 -74 -104 -27 -25 -73 -53 -111 -68 
-39 -15 -86 -25 -116 -25 -27 0 -77 9 -110 20 z" fill="rgb(22, 146, 91)"/>
<path d="M7327 4255c7 12 10 23 11 38 2 24 1 34 -8 36 -2 1 -4 1 -6 1 -10 0 -26 -7 -36 -17 
-10 -9 -21 -13 -24 -10 -4 3 -4 13 0 22 3 9 19 22 36 28 16 6 34 23 39 37 
10 25 10 25 16 3 4 -12 22 -31 41 -42 18 -11 36 -31 40 -46 4 -16 0 -34 -10 -51 
-10 -13 -28 -29 -42 -34 -21 -8 -24 -16 -24 -55 0 -32 4 -45 14 -45 7 0 19 7 26 15 
7 8 16 15 21 15 5 0 9 -7 9 -16 0 -8 -16 -22 -35 -30 -19 -8 -35 -21 -35 -29 
0 -10 -13 -4 -42 18 -24 18 -46 37 -50 42 -4 6 -8 18 -8 29 0 10 17 35 38 55 
13 13 23 25 29 36 z" fill="rgb(191, 229, 206)"/>
<path d="M7296 4139c-9 10 -14 25 -10 35 3 9 14 21 24 26 9 5 20 6 24 3 3 -3 6 -24 6 -45 
0 -25 -5 -38 -13 -38 -8 0 -21 8 -31 19 z" fill="rgb(22, 146, 91)"/>
<path d="M7362 4288c-2 28 -1 52 3 52 3 0 15 -5 26 -10 10 -6 19 -21 19 -34 0 -13 -10 -31 -22 -42 
l-22 -19 -4 53 z" fill="rgb(13, 153, 93)"/>
<path d="M7327 4255l5 36 -2 38 c9 -2 10 -12 8 -36 -1 -15 -4 -26 -11 -38 z" fill="rgb(78, 182, 131)"/>
<path d="M8309 4938c1 -2 1 -4 1 -6 0 -7 0 -66 0 -132 l0 -115 0 -5 -90 0 c-49 0 -99 -3 -110 -6 
-18 -6 -20 -17 -22 -138 l-3 -131 -150 0 -150 0 -5 135 -5 135 -85 3 c-52 2 -87 8 -92 15 
-4 7 -8 62 -8 122 0 61 4 115 8 122 5 7 40 13 92 15 l85 3 6 235 c5 194 9 245 25 290 
13 37 38 75 77 118 49 53 67 65 125 85 56 18 89 22 197 22 l130 0 3 -137 
3 -138 -76 0 c-42 0 -88 -6 -106 -14 -17 -7 -38 -24 -47 -37 -15 -21 -17 -52 -17 -219 
l0 -195 102 -5 c56 -3 104 -8 107 -11 2 -2 4 -7 5 -11 z" fill="rgb(22, 146, 91)"/>
<path d="M3210 4623c0 17 4 37 8 42 4 6 50 12 102 15 84 4 105 10 174 43 55 26 95 54 136 96 
32 32 70 84 85 115 15 31 34 94 42 140 14 75 14 91 0 157 -8 41 -18 82 -22 92 
-6 13 0 20 26 30 19 6 39 8 46 4 6 -5 19 -36 27 -71 9 -34 16 -96 16 -137 
0 -41 -7 -102 -15 -137 -8 -34 -28 -89 -45 -121 -16 -33 -54 -86 -84 -118 
-30 -32 -87 -79 -128 -103 -40 -25 -103 -53 -140 -62 -38 -10 -104 -18 -148 -18 
l-80 0 0 33 z" fill="rgb(24, 143, 95)"/>
<path d="M4396 4694c-40 13 -77 29 -80 35 -4 6 -13 11 -20 11 -8 0 -16 -13 -18 -30 
l-5 -30 -141 0 c-90 0 -143 4 -148 11 -3 6 -5 234 -5 507 1 337 5 500 13 509 
7 9 46 13 138 13 90 0 131 -4 138 -13 6 -7 12 -122 14 -307 3 -293 3 -295 28 -345 
19 -36 38 -57 69 -75 34 -19 58 -25 107 -25 46 0 70 5 91 20 15 11 36 38 45 60 
15 35 17 80 18 351 0 227 3 313 12 322 8 8 53 12 136 12 68 0 132 -5 143 -10 
18 -10 19 -25 19 -358 0 -329 -2 -351 -23 -422 -17 -59 -33 -87 -74 -135 
-43 -50 -65 -65 -124 -89 -58 -23 -91 -30 -166 -32 -78 -3 -105 0 -167 20 
z" fill="rgb(22, 146, 91)"/>
<path d="M5401 4697c-45 16 -103 45 -130 65 -28 20 -70 60 -94 90 -24 29 -58 88 -76 130 
-24 57 -33 98 -38 160 -3 49 -1 113 7 156 7 42 26 102 46 142 24 47 55 87 103 133 
52 49 87 72 145 96 42 17 108 36 146 41 39 6 109 8 157 5 56 -4 124 -16 185 -35 
54 -17 118 -43 143 -60 25 -16 45 -35 45 -42 0 -7 -20 -54 -45 -105 -28 -57 -51 -93 -61 -93 
-8 0 -53 14 -101 31 -70 26 -104 32 -189 35 -97 4 -108 2 -161 -23 -50 -24 -63 -37 -91 -86 
-18 -32 -30 -63 -27 -68 4 -5 149 -9 355 -9 348 0 349 0 361 -22 7 -14 9 -44 5 -87 
-4 -36 -18 -103 -31 -147 -15 -52 -40 -105 -69 -147 -34 -50 -63 -77 -115 -110 
-40 -26 -96 -52 -133 -61 -37 -9 -105 -16 -160 -16 -79 0 -111 5 -177 27 
z" fill="rgb(22, 146, 91)"/>
<path d="M958 4877l-1 123 c0 25 -1 66 -1 115 0 86 -1 199 -1 300 0 222 3 292 13 298 
6 4 68 7 136 7 68 0 131 -3 140 -6 14 -5 16 -44 16 -325 0 -251 3 -327 14 -353 
8 -18 24 -41 37 -50 18 -12 47 -16 121 -16 53 0 108 4 122 10 14 5 35 24 46 42 
19 31 20 51 20 354 0 235 3 323 12 332 8 8 54 12 139 12 105 0 130 -3 144 -17 
15 -14 16 -49 13 -337 -3 -294 -1 -323 15 -347 9 -14 29 -31 43 -37 14 -7 70 -12 124 -12 
94 0 102 2 132 28 l33 27 3 334 c2 222 6 339 14 348 8 9 46 13 142 13 89 0 136 -4 144 -12 
9 -9 12 -110 12 -392 -1 -355 -2 -385 -21 -439 -14 -41 -34 -73 -68 -107 
-38 -38 -63 -53 -116 -69 -65 -20 -88 -21 -654 -21 l-588 0 -54 23 c-34 14 -65 36 -81 57 
-14 19 -33 57 -42 84 -3 10 -6 21 -8 33 z" fill="rgb(22, 146, 91)"/>
<path d="M6075 4702c0 13 90 244 199 513 109 270 204 493 212 498 8 4 63 7 122 7 71 0 114 -4 125 -13 
9 -6 102 -233 208 -504 110 -282 189 -498 186 -507 -6 -14 -28 -16 -169 -14 
l-163 3 -91 287 c-50 159 -93 290 -96 294 -3 3 -50 -127 -104 -288 l-99 -293 -165 -3 
-165 -3 0 23 z" fill="rgb(22, 146, 91)"/>
<path d="M7202 5184c-2 370 1 512 9 522 9 11 44 14 144 14 100 0 135 -3 144 -14 8 -9 10 -153 9 -517 
l-3 -504 -150 -5 -150 -5 -3 509 z" fill="rgb(22, 146, 91)"/>
<path d="M8370 4696c0 8 71 208 157 442 86 235 166 463 177 507 19 71 19 84 7 113 
-8 19 -26 41 -40 50 -17 11 -55 19 -115 22 l-91 5 0 135 0 135 103 3 c87 2 112 -2 172 -23 
45 -16 91 -42 129 -74 45 -38 70 -70 109 -142 36 -67 106 -248 242 -627 
104 -293 190 -540 190 -548 0 -12 -28 -14 -160 -14 l-159 0 -27 88 c-14 48 -55 182 -90 297 
-35 116 -69 217 -74 225 -8 13 -9 13 -14 0 -2 -8 -41 -136 -86 -285 -44 -148 -86 -282 -92 -297 
l-10 -28 -164 0 c-143 0 -164 2 -164 16 z" fill="rgb(22, 146, 91)"/>
<path d="M9496 4689c-3 5 1 11 9 15 9 3 15 18 15 35 0 16 5 33 10 36 6 4 10 -8 10 -30 
0 -22 6 -38 15 -41 8 -4 15 -10 15 -15 0 -5 -15 -9 -34 -9 -19 0 -37 4 -40 9 
z" fill="rgb(68, 161, 119)"/>
<path d="M9594 4718c-4 26 -2 48 5 55 8 8 12 2 17 -20 l6 -32 18 27 17 27 11 -25 10 -25 7 27 
c4 16 11 25 16 22 5 -3 9 -23 9 -44 0 -21 -5 -42 -11 -46 -7 -4 -19 3 -29 16 
l-17 22 -27 -23 -27 -24 -5 43 z" fill="rgb(68, 161, 119)"/>
<path d="M8309 4938l6 -126 -5 -127 0 115 c0 66 0 125 0 132 0 2 0 4 -1 6 z" fill="rgb(63, 168, 118)"/>
<path d="M3217 4783c0 6 1 26 1 43 l2 31 68 -1 c51 -1 80 5 119 23 29 13 71 43 94 68 
22 24 49 64 60 88 11 24 21 70 23 102 4 58 5 58 40 64 20 3 38 4 41 1 3 -3 5 -30 5 -61 
0 -35 -9 -81 -26 -125 -20 -54 -38 -81 -90 -132 -49 -49 -80 -70 -129 -89 
-47 -18 -84 -25 -136 -25 -50 0 -71 4 -72 13 z" fill="rgb(24, 143, 95)"/>
<path d="M3031 4847c-24 20 -58 64 -77 97 -19 35 -38 89 -44 127 -10 54 -9 78 4 134 
9 40 31 94 52 128 23 37 57 74 90 98 30 22 79 48 109 59 37 14 79 20 134 20 
44 0 82 -4 85 -8 3 -5 3 -25 -1 -45 l-6 -37 -77 0 c-57 0 -91 -6 -131 -22 
-37 -16 -69 -40 -101 -76 -31 -35 -53 -72 -63 -105 -8 -28 -15 -67 -15 -88 
0 -20 8 -61 17 -90 12 -35 34 -71 69 -108 l51 -55 -20 -33 c-10 -18 -22 -33 -26 -33 
-4 0 -27 17 -50 37 z" fill="rgb(22, 146, 91)"/>
<path d="M958 4877c-5 32 -8 73 -8 127 l6 111 c0 -49 1 -90 1 -115 l1 -123 z" fill="rgb(125, 197, 163)"/>
<path d="M2743 4962c-15 50 -22 99 -23 156 0 60 7 106 24 165 14 45 42 109 64 142 
21 33 66 86 100 118 33 31 92 73 131 93 40 20 103 42 146 50 41 8 107 12 145 10 
39 -2 73 -6 76 -9 4 -3 2 -23 -3 -43 l-8 -37 -73 1 c-39 1 -101 -4 -137 -12 
-35 -8 -93 -30 -128 -49 -35 -19 -88 -61 -118 -93 -31 -33 -67 -85 -82 -116 
-15 -31 -34 -87 -43 -125 -11 -47 -14 -88 -10 -132 4 -36 15 -88 25 -118 
l18 -53 -40 -11 -41 -11 -23 74 z" fill="rgb(24, 143, 95)"/>
<path d="M5477 4950c-35 15 -56 33 -77 67 -16 25 -27 50 -24 54 3 5 95 9 205 9 l199 0 0 -24 
c0 -14 -12 -39 -27 -57 -15 -17 -44 -40 -65 -50 -25 -13 -60 -19 -101 -19 
-41 0 -79 7 -110 20 z" fill="rgb(225, 242, 234)"/>
<path d="M2355 5945c1 15 1 32 2 51 3 42 8 78 12 90 1 3 2 4 2 4 5 0 9 -20 9 -45 l0 -45 55 0 
c30 0 55 -4 55 -9 0 -6 -24 -11 -52 -13 -51 -3 -53 -4 -53 -33 0 -30 0 -30 63 -33 
34 -2 62 -7 62 -12 0 -6 -33 -10 -73 -10 -41 0 -76 3 -79 6 -3 2 -3 21 -3 49 
z" fill="rgb(63, 168, 118)"/>
<path d="M2567 6086c-4 -11 -7 -43 -7 -86 0 -49 0 -94 0 -100 0 -2 1 -4 2 -6 l-7 96 
12 96 z" fill="rgb(191, 229, 206)"/>
<path d="M2567 6086c1 3 2 4 3 4 6 0 10 -40 10 -100 0 -60 -4 -100 -10 -100 -3 0 -6 2 -8 4 
-1 2 -2 4 -2 6 0 6 0 51 0 100 0 43 3 75 7 86 z" fill="rgb(63, 168, 118)"/>
<path d="M2652 5988c-1 60 2 102 8 102 5 0 10 -35 12 -77 l3 -78 62 78 c35 42 67 77 73 77 
6 0 10 -39 10 -100 0 -55 -4 -100 -9 -100 -5 0 -12 32 -15 70 -3 39 -6 72 -6 75 
0 3 -8 -5 -17 -17 -10 -13 -40 -48 -68 -78 l-51 -55 -2 103 z" fill="rgb(48, 155, 106)"/>
<path d="M2915 5979c-25 50 -45 95 -45 101 0 5 5 10 10 10 6 0 16 -11 22 -25 10 -22 17 -25 68 -25 
51 0 60 3 74 25 9 14 21 23 26 20 5 -3 -11 -47 -36 -98 -24 -51 -51 -93 -59 -95 
-9 -2 -30 28 -60 87 z" fill="rgb(68, 161, 119)"/>
<path d="M3123 5979c-3 59 -1 97 6 104 8 8 11 -11 11 -66 0 -42 4 -76 8 -74 4 1 28 29 54 62 
25 33 56 66 67 73 21 13 21 12 21 -88 0 -57 -4 -100 -10 -100 -5 0 -10 35 -12 78 
l-3 77 -69 -80 -69 -80 -4 94 z" fill="rgb(68, 161, 119)"/>
<path d="M3382 5915c-17 14 -34 39 -37 56 -4 17 -2 43 5 60 7 17 25 36 41 44 15 8 42 15 58 15 
17 0 42 -5 56 -12 14 -6 25 -15 25 -21 0 -5 -7 -6 -17 -1 -10 5 -35 11 -55 12 
-29 3 -42 -1 -62 -22 -17 -16 -26 -36 -26 -56 0 -19 9 -40 25 -55 16 -17 35 -25 59 -25 
19 0 38 5 41 10 3 6 13 10 21 10 10 0 8 -6 -7 -20 -14 -13 -35 -20 -59 -20 
-27 0 -48 8 -68 25 z" fill="rgb(68, 161, 119)"/>
<path d="M3580 5990l0 100 75 0 c41 0 75 -4 75 -10 0 -5 -28 -10 -62 -12 -63 -3 -63 -3 -63 -33 
0 -30 1 -30 58 -33 31 -2 57 -7 57 -12 0 -5 -26 -10 -57 -12 -57 -3 -58 -3 -58 -33 
l0 -30 68 -3 c40 -2 65 -7 62 -12 -4 -6 -40 -10 -81 -10 l-74 0 0 100 z" fill="rgb(63, 168, 118)"/>
<path d="M4031 5961l-1 -6 c0 -3 2 -5 5 -5 3 0 10 -3 15 -6 6 -4 9 23 8 74 l-2 80 
13 -12 c8 -9 11 -42 9 -102 -2 -73 -6 -88 -18 -86 -8 2 -28 22 -44 45 -16 23 -33 43 -37 45 
-5 1 -22 -18 -38 -42 -17 -24 -37 -46 -46 -49 -13 -6 -15 8 -15 93 0 60 4 100 10 100 
6 0 10 -33 10 -77 l1 -78 28 35 c16 19 34 40 40 45 8 7 19 0 36 -22 l26 -32 
z" fill="rgb(48, 155, 106)"/>
<path d="M4165 5985c-24 52 -40 97 -35 100 4 3 15 -6 24 -20 14 -22 24 -25 70 -25 
48 0 57 3 74 27 11 16 23 25 26 22 3 -3 -14 -49 -39 -102 -28 -61 -51 -97 -60 -97 
-10 0 -32 36 -60 95 z" fill="rgb(68, 161, 119)"/>
<path d="M4378 5983c1 53 4 97 7 97 3 0 5 -29 5 -64 0 -36 4 -67 9 -70 4 -3 36 28 70 70 
34 41 66 72 71 69 6 -4 10 -46 10 -95 0 -49 -4 -92 -10 -95 -5 -3 -12 6 -16 20 
-3 14 -4 40 -1 58 3 17 3 39 -1 47 -5 11 -24 -4 -76 -60 l-69 -75 1 98 z" fill="rgb(68, 161, 119)"/>
<path d="M4642 5966c-21 43 -43 89 -46 102 -5 13 -3 22 4 22 6 0 16 -11 22 -25 10 -23 17 -25 73 -25 
57 0 63 2 73 26 7 14 16 23 21 20 5 -4 -8 -45 -29 -94 -22 -50 -47 -91 -58 -96 
-18 -9 -24 -1 -60 70 z" fill="rgb(63, 168, 118)"/>
<path d="M4867 5910c-15 12 -31 37 -36 56 -6 21 -6 45 -1 59 5 12 21 32 36 44 15 12 41 21 60 21 
18 0 44 -4 58 -10 23 -8 26 -15 26 -56 0 -38 -3 -45 -16 -40 -9 3 -32 7 -52 9 
l-37 2 40 5 c28 4 41 10 43 23 2 10 -2 24 -8 32 -7 8 -28 15 -47 15 -23 0 -42 -8 -58 -25 
-16 -15 -25 -36 -25 -55 0 -19 9 -40 25 -55 13 -14 36 -25 50 -25 15 0 35 5 47 11 
11 6 23 8 26 4 4 -4 -2 -13 -12 -21 -11 -8 -36 -14 -57 -14 -21 0 -47 8 -62 20 
z" fill="rgb(63, 168, 118)"/>
<path d="M5070 5990l0 100 75 0 c41 0 75 -4 75 -10 0 -5 -28 -10 -62 -12 -63 -3 -63 -3 -63 -33 
0 -29 2 -30 48 -32 26 -2 55 -6 65 -10 11 -5 -7 -10 -48 -13 -64 -5 -65 -5 -65 -35 
0 -30 0 -30 63 -33 34 -2 62 -7 62 -12 0 -6 -34 -10 -75 -10 l-75 0 0 100 
z" fill="rgb(63, 168, 118)"/>
<path d="M5280 5983c0 53 2 97 5 97 3 0 7 -31 10 -70 3 -38 10 -70 15 -70 6 0 19 18 30 40 
11 22 27 40 35 40 8 0 25 -16 38 -35 13 -19 27 -35 30 -35 3 0 7 30 9 68 
2 44 7 68 16 70 10 3 12 -18 10 -95 -2 -81 -6 -97 -18 -95 -8 2 -28 22 -45 45 
-16 23 -33 42 -37 42 -4 0 -27 -22 -53 -50 l-46 -50 1 98 z" fill="rgb(68, 161, 119)"/>
<path d="M5560 6005c0 -1 0 -2 0 -2 0 -9 20 -14 58 -15 l57 -3 0 0 -55 -5 c-53 -5 -55 -6 -55 -35 
0 -30 0 -30 63 -33 34 -2 62 -7 62 -12 0 -6 -34 -10 -75 -10 l-76 0 3 98 
3 97 73 3 c45 2 72 -1 72 -8 0 -6 -25 -10 -60 -10 -58 0 -61 -1 -66 -27 
-2 -14 -4 -30 -4 -38 z" fill="rgb(63, 168, 118)"/>
<path d="M5752 5988c-1 62 2 102 8 102 6 0 10 -32 10 -76 0 -42 4 -74 9 -72 5 2 34 36 66 76 
31 39 60 72 66 72 5 0 9 -44 9 -100 0 -60 -4 -100 -10 -100 -6 0 -10 30 -10 71 
0 39 -4 69 -9 67 -5 -1 -38 -34 -73 -73 l-64 -70 -2 103 z" fill="rgb(48, 155, 106)"/>
<path d="M5960 5899c0 4 18 11 40 14 l40 5 0 86 c0 48 4 86 10 86 5 0 11 -39 12 -87 
l3 -88 38 -3 c20 -2 37 -7 37 -13 0 -5 -40 -9 -90 -9 -49 0 -90 4 -90 9 
z" fill="rgb(63, 168, 118)"/>
<path d="M6272 5988l3 97 56 3 c40 2 63 -2 84 -15 16 -10 34 -30 39 -44 5 -14 6 -43 2 -63 
-5 -25 -16 -43 -37 -56 -21 -14 -46 -20 -89 -20 l-61 0 3 98 z" fill="rgb(63, 168, 118)"/>
<path d="M6535 5982c-28 56 -41 94 -35 96 7 3 18 -5 26 -17 12 -17 26 -21 68 -21 47 0 56 3 71 26 
9 14 19 23 22 20 4 -3 -11 -46 -32 -96 -24 -55 -46 -92 -57 -96 -15 -4 -26 12 -63 88 
z" fill="rgb(68, 161, 119)"/>
<path d="M6752 5906c-12 8 -22 26 -22 38 0 13 6 29 13 35 8 6 37 15 64 20 29 6 53 16 56 25 
4 9 -1 22 -9 31 -9 8 -32 15 -51 15 -20 0 -45 -7 -55 -17 -10 -9 -21 -12 -26 -7 
-4 5 4 17 17 27 14 10 41 17 67 17 31 0 50 -6 64 -20 11 -11 20 -27 20 -35 
0 -8 -9 -24 -20 -35 -11 -11 -33 -20 -49 -20 -16 0 -39 -8 -52 -19 -20 -16 -21 -21 -10 -35 
7 -9 27 -16 43 -16 16 0 38 5 50 11 11 6 23 8 26 4 4 -4 -2 -13 -12 -21 
-11 -8 -36 -14 -56 -14 -19 0 -46 7 -58 16 z" fill="rgb(63, 168, 118)"/>
<path d="M6940 5990c0 60 4 100 10 100 6 0 10 -20 10 -44 0 -31 5 -46 16 -50 9 -3 29 -6 45 -6 
17 0 39 5 50 10 14 8 19 21 19 50 0 22 5 40 10 40 6 0 10 -40 10 -100 0 -60 -4 -100 -10 -100 
-5 0 -10 15 -10 33 0 18 -5 38 -12 45 -7 7 -30 12 -53 12 -23 0 -46 -5 -53 -12 
-7 -7 -12 -27 -12 -45 0 -18 -4 -33 -10 -33 -6 0 -10 40 -10 100 z" fill="rgb(63, 168, 118)"/>
<path d="M7175 5985l0 100 63 3 c40 1 71 -3 87 -12 16 -10 25 -24 25 -39 0 -14 -6 -30 -14 -36 
-11 -9 -12 -18 -3 -44 11 -29 9 -34 -12 -49 -15 -12 -45 -19 -85 -20 l-61 -3 0 100 
z" fill="rgb(63, 168, 118)"/>
<path d="M7424 5915c-14 14 -28 40 -31 59 -3 20 1 45 11 64 9 17 25 36 35 42 11 5 38 10 60 10 
28 0 48 -8 70 -26 27 -22 31 -32 31 -74 0 -42 -4 -52 -31 -74 -23 -20 -42 -26 -75 -26 
-35 0 -51 6 -70 25 z" fill="rgb(63, 168, 118)"/>
<path d="M7675 5986c-25 53 -43 100 -39 103 3 3 15 -6 26 -22 17 -24 26 -27 73 -27 
45 0 55 3 69 25 9 14 21 23 26 20 5 -3 -11 -47 -35 -98 -24 -52 -50 -93 -59 -95 
-12 -3 -28 23 -61 94 z" fill="rgb(68, 161, 119)"/>
<path d="M7880 5990c0 55 4 100 9 100 6 0 11 -15 13 -32 2 -26 9 -35 31 -43 25 -8 31 -5 67 35 
23 27 39 39 40 30 0 -9 -8 -26 -17 -40 -16 -22 -16 -24 5 -38 15 -10 22 -25 22 -48 
0 -23 -7 -38 -22 -48 -15 -11 -45 -16 -85 -16 l-63 0 0 100 z" fill="rgb(63, 168, 118)"/>
<path d="M8110 5990l0 100 54 0 c34 0 64 -7 82 -17 16 -10 34 -32 41 -49 9 -23 9 -42 2 -68 
-7 -24 -20 -41 -39 -51 -16 -8 -54 -15 -85 -15 l-55 0 0 100 z" fill="rgb(63, 168, 118)"/>
<path d="M6292 5973c-3 43 1 73 8 82 7 8 26 15 42 15 16 0 39 -6 51 -12 12 -7 27 -22 34 -33 
7 -11 12 -28 13 -38 0 -10 -13 -32 -29 -48 -22 -22 -40 -30 -73 -31 l-43 -3 -3 68 
z" fill="rgb(225, 242, 234)"/>
<path d="M7205 5943c0 30 2 32 41 35 29 2 45 -2 57 -16 17 -18 17 -21 2 -36 -10 -10 -33 -16 -58 -16 
-40 0 -42 1 -42 33 z" fill="rgb(225, 242, 234)"/>
<path d="M7438 5933c-13 15 -21 36 -20 57 0 19 10 42 23 56 15 16 34 24 56 24 23 0 42 -8 58 -25 
16 -15 25 -36 25 -55 0 -19 -9 -40 -25 -55 -17 -17 -35 -25 -60 -25 -26 0 -43 7 -57 23 
z" fill="rgb(225, 242, 234)"/>
<path d="M7902 5950c-3 29 0 41 11 46 8 3 35 2 59 -3 30 -5 46 -15 52 -30 7 -15 6 -26 -3 -37 
-9 -11 -30 -16 -64 -16 l-51 0 -4 40 z" fill="rgb(225, 242, 234)"/>
<path d="M8132 5988l3 77 49 -1 c38 0 53 -5 67 -23 11 -13 19 -36 19 -53 0 -17 -10 -39 -25 -53 
-18 -19 -35 -25 -70 -25 l-46 0 3 78 z" fill="rgb(225, 242, 234)"/>
<path d="M2952 5957c-12 23 -22 47 -22 53 0 5 18 10 39 10 22 0 42 -3 44 -7 3 -5 -5 -28 -17 -53 
l-22 -45 -22 42 z" fill="rgb(225, 242, 234)"/>
<path d="M4672 5957c-12 23 -22 47 -22 53 0 5 20 10 45 10 29 0 45 -4 45 -12 0 -7 -11 -31 -23 -53 
l-23 -40 -22 42 z" fill="rgb(225, 242, 234)"/>
<path d="M4197 5965c-9 20 -17 40 -17 45 0 6 17 10 38 10 21 0 41 -3 45 -6 3 -4 -3 -24 -14 -45 
-11 -22 -23 -39 -27 -39 -5 0 -16 16 -25 35 z" fill="rgb(229, 238, 232)"/>
<path d="M6568 5963c-10 21 -18 42 -18 47 0 6 19 10 41 10 40 0 41 -1 36 -27 -3 -15 -13 -36 -24 -48 
-18 -20 -18 -20 -35 18 z" fill="rgb(225, 242, 234)"/>
<path d="M7707 5965c-9 20 -17 40 -17 45 0 6 17 10 38 10 21 0 41 -3 45 -6 3 -4 -3 -24 -14 -45 
-11 -22 -23 -39 -27 -39 -5 0 -16 16 -25 35 z" fill="rgb(225, 242, 234)"/>
<path d="M4031 5961l4 -1 c3 0 6 -3 7 -7 1 -5 4 26 8 68 l6 77 2 -80 c1 -51 -2 -78 -8 -74 
-5 3 -12 6 -15 6 -3 0 -5 2 -5 5 l1 6 z" fill="rgb(134, 199, 170)"/>
<path d="M2355 5945l0 72 14 69 c-4 -12 -9 -48 -12 -90 -1 -19 -1 -36 -2 -51 z" fill="rgb(134, 199, 170)"/>
<path d="M5560 6005l60 -3 c33 -2 60 -7 58 -10 l-3 -7 -57 3 c-38 1 -58 6 -58 15 0 0 0 1 0 2 
z" fill="rgb(86, 178, 138)"/>
<path d="M7202 6033c3 32 3 32 57 32 39 0 57 -4 64 -17 8 -12 7 -21 -2 -32 -9 -11 -30 -16 -68 -16 
l-54 0 3 33 z" fill="rgb(225, 242, 234)"/>
</g>
</svg>
