<?xml version="1.0" encoding="UTF-8" standalone="no"?><!DOCTYPE svg PUBLIC "-//W3C//DTD SVG 20010904//EN"
 "http://www.w3.org/Graphics/SVG/1.1/DTD/svg11.dtd">
<svg version="1.1" baseProfile="full" xmlns="http://www.w3.org/2000/svg"
 width="1024pt" height="1024pt" viewBox="0 0 1024 1024" preserveAspectRatio="xMidYMid meet">
<g id="svg" fill="black" stroke="none" stroke-linecap="round" transform="scale(0.1,0.1)">
<path d="M0 5120l0 5120 5120 0 5120 0 0 -5120 0 -5120 -5120 0 -5120 0 0 5120 z" fill="rgb(226, 242, 236)"/>
<path d="M6665 4315c-14 9 -34 32 -45 53 -11 20 -20 50 -20 67 0 17 9 47 20 67 11 21 33 44 49 53 
17 8 46 15 66 15 20 0 49 -7 66 -15 16 -9 39 -30 49 -48 11 -18 20 -50 20 -72 
0 -22 -9 -54 -20 -73 -11 -17 -27 -32 -35 -32 -8 0 -15 5 -15 12 0 6 8 29 17 50 
16 35 16 40 0 72 -9 20 -30 42 -47 51 -17 9 -40 14 -51 11 -10 -4 -30 -16 -43 -27 
-14 -12 -28 -34 -31 -50 -4 -17 0 -39 9 -58 11 -21 29 -35 61 -46 27 -9 45 -21 45 -30 
0 -10 -10 -15 -35 -15 -19 0 -46 7 -60 15 z" fill="rgb(49, 139, 128)"/>
<path d="M3673 4384c-17 7 -38 26 -48 45 -9 19 -14 43 -11 56 5 19 -2 31 -37 59 l-43 35 -189 3 
-190 3 -112 103 c-108 98 -114 102 -158 102 -39 0 -51 6 -89 40 -24 22 -48 40 -53 40 
-6 0 -13 9 -16 20 -3 11 0 21 5 23 6 1 20 0 32 -2 11 -1 38 -18 58 -37 32 -29 45 -34 87 -34 
49 0 50 -1 159 -105 l109 -105 187 0 187 0 47 -42 c38 -35 53 -42 78 -40 
17 2 45 -3 61 -12 17 -8 36 -29 43 -46 10 -24 10 -36 -1 -61 -7 -19 -25 -37 -44 -45 
-25 -10 -37 -10 -62 0 z" fill="rgb(49, 139, 128)"/>
<path d="M3663 4432c-14 18 -16 27 -7 43 6 11 20 24 32 30 16 7 26 5 41 -9 12 -11 21 -26 21 -34 
0 -9 -7 -24 -17 -34 -9 -10 -24 -18 -34 -18 -10 0 -26 10 -36 22 z" fill="rgb(226, 242, 236)"/>
<path d="M3085 4450c-36 11 -92 38 -125 60 -33 21 -80 64 -105 95 -26 31 -53 72 -61 92 
l-15 36 56 -5 c55 -5 57 -6 120 -76 45 -48 87 -82 135 -109 l71 -38 147 -5 
147 -5 -67 -27 c-49 -20 -92 -29 -153 -33 -67 -4 -99 -1 -150 15 z" fill="rgb(49, 139, 128)"/>
<path d="M3851 4575l8 40 c3 22 3 71 -1 109 -1 7 -2 17 -2 31 -3 68 -5 216 -4 364 
l3 326 35 0 35 0 3 -393 c1 -218 6 -392 11 -390 5 2 100 89 212 193 112 105 232 216 267 248 
41 38 64 53 67 45 3 -7 4 -153 3 -323 l-3 -310 -37 -3 -38 -3 0 240 c0 133 -2 241 -4 241 
-2 0 -126 -115 -275 -256 -150 -141 -274 -254 -277 -252 -1 2 -3 41 -3 93 
z" fill="rgb(49, 139, 128)"/>
<path d="M1642 4972l3 473 35 0 35 0 3 -373 c1 -206 6 -372 10 -370 5 2 93 94 196 206 
104 112 194 202 200 200 6 -2 99 -95 206 -208 l195 -205 3 378 2 377 35 0 
35 0 0 -459 c0 -253 3 -467 7 -477 4 -11 3 -15 -5 -10 -6 4 -116 118 -244 254 
-128 136 -235 247 -238 247 -3 0 -108 -112 -234 -250 -126 -137 -233 -252 -238 -253 
-4 -2 -7 209 -6 470 z" fill="rgb(49, 139, 128)"/>
<path d="M4550 4905c0 220 -3 395 -8 393 -5 -1 -124 -109 -266 -238 -141 -129 -260 -236 -265 -238 
-5 -2 -12 16 -16 40 -3 24 -5 165 -3 313 l3 270 35 0 35 0 5 -235 5 -235 255 235 
c140 129 263 246 272 260 17 24 18 12 20 -300 2 -179 3 -399 3 -490 l0 -165 -38 -3 
-38 -3 1 396 z" fill="rgb(49, 139, 128)"/>
<path d="M5040 5449l4 -5 c3 -3 63 -5 133 -4 l128 7 210 -2 3 -37 c2 -21 1 -38 -2 -38 
-3 0 -80 1 -184 2 l-5 4 c-3 4 -65 6 -137 5 -68 0 -156 -3 -203 -7 -3 0 -5 0 -7 0 
l-80 -7 2 -391 3 -391 310 -3 310 -2 0 -33 0 -32 -347 -3 -348 -2 0 470 
0 470 100 0 c23 0 62 0 110 -1 z" fill="rgb(49, 139, 128)"/>
<path d="M5647 4522c0 7 93 220 207 473 114 253 213 469 220 480 13 19 14 18 29 -15 
8 -19 106 -235 217 -480 111 -245 204 -451 207 -457 4 -9 -7 -13 -34 -13 
-35 0 -41 4 -55 33 -9 18 -91 198 -183 400 -92 202 -170 366 -173 365 -4 -2 -87 -181 -184 -398 
l-177 -395 -37 -3 c-26 -2 -37 1 -37 10 z" fill="rgb(49, 139, 128)"/>
<path d="M5797 4522c0 7 65 154 143 326 79 172 145 310 148 308 2 -3 67 -144 144 -313 
77 -169 142 -314 145 -321 4 -10 -5 -13 -38 -10 l-43 3 -101 225 c-55 124 -105 225 -110 225 
-6 0 -56 -101 -111 -225 l-102 -225 -37 -3 c-27 -2 -38 1 -38 10 z" fill="rgb(49, 139, 128)"/>
<path d="M6928 4518c-1 4 5 21 14 37 l16 30 390 5 389 5 162 216 161 216 0 211 0 212 35 0 
35 0 -1 -227 -1 -228 -179 -242 -180 -243 -419 0 c-231 0 -421 3 -422 8 
z" fill="rgb(49, 139, 128)"/>
<path d="M7863 4525c3 7 72 104 153 214 81 110 151 198 156 195 5 -3 66 -88 135 -187 
70 -100 134 -192 144 -204 9 -12 15 -24 12 -27 -4 -3 -23 -5 -43 -3 -35 2 -41 8 -114 112 
-42 61 -91 129 -109 153 l-33 43 -113 -155 -112 -156 -41 0 c-31 0 -39 3 -35 15 
z" fill="rgb(49, 139, 128)"/>
<path d="M8537 4524c-3 8 -80 121 -171 250 l-166 235 0 220 0 221 34 0 35 0 3 -212 
3 -213 178 -251 c97 -138 177 -254 177 -257 0 -4 -20 -7 -44 -7 -29 0 -46 5 -49 14 
z" fill="rgb(49, 139, 128)"/>
<path d="M3851 4575c0 14 0 30 0 46 l5 134 c0 -14 1 -24 2 -31 4 -38 4 -87 1 -109 
l-8 -40 z" fill="rgb(116, 179, 170)"/>
<path d="M6802 4631l-32 29 0 395 0 395 34 0 c32 0 34 -2 40 -46 3 -26 6 -215 6 -420 
0 -205 -3 -375 -8 -378 -4 -2 -22 9 -40 25 z" fill="rgb(46, 139, 133)"/>
<path d="M6633 5027l2 418 35 0 35 0 3 -392 2 -393 -39 -26 -40 -26 2 419 z" fill="rgb(49, 139, 128)"/>
<path d="M4970 4986l0 337 61 -7 c34 -3 158 -6 275 -6 l214 0 0 -35 0 -35 -240 0 -240 0 2 -261 
3 -260 240 -2 240 -2 3 -32 3 -33 -280 0 -281 0 0 336 z" fill="rgb(49, 139, 128)"/>
<path d="M7050 4679c0 26 3 29 50 35 28 3 82 6 120 6 l70 0 0 359 0 359 30 4 c17 3 32 2 35 0 
3 -3 5 -182 5 -399 l0 -393 -155 0 -155 0 0 29 z" fill="rgb(49, 139, 128)"/>
<path d="M7426 5051l6 400 31 -3 32 -3 3 -362 2 -362 103 -3 102 -3 3 -32 3 -33 -146 0 
-145 0 6 401 z" fill="rgb(49, 139, 128)"/>
<path d="M3604 4895c0 220 -1 232 -23 274 -17 33 -25 41 -32 30 -5 -8 -9 -121 -9 -252 
l0 -238 -35 3 -35 3 -3 290 -2 290 -24 18 c-13 9 -27 17 -32 17 -5 0 -9 -136 -9 -311 
l0 -310 -37 3 -38 3 4 317 c3 287 2 318 -13 323 -9 3 -24 6 -33 8 -17 2 -18 -21 -23 -323 
l-5 -325 -32 -3 c-30 -3 -33 -1 -34 25 -1 15 -2 162 -4 326 -1 164 -5 301 -8 304 
-4 3 -18 3 -32 -1 l-25 -6 0 -270 c0 -193 -3 -271 -12 -276 -6 -4 -23 6 -40 25 
l-28 31 0 230 0 229 -30 -17 -30 -17 0 -188 c0 -158 -2 -189 -15 -193 -8 -4 -26 -3 -40 0 
l-25 6 0 143 -1 142 -22 -40 c-12 -22 -26 -71 -32 -110 l-11 -70 -43 -3 
c-24 -2 -47 0 -52 5 -4 4 1 38 11 74 11 36 42 103 69 148 38 61 67 94 115 130 
35 27 89 58 120 70 32 12 91 23 136 26 57 4 102 0 157 -13 58 -14 94 -30 150 -70 
54 -37 87 -70 122 -121 33 -47 57 -97 71 -147 18 -62 22 -93 18 -163 -4 -61 -13 -105 -32 -152 
-14 -36 -36 -74 -48 -85 l-23 -19 -1 230 z" fill="rgb(49, 139, 128)"/>
<path d="M2290 5033c-91 97 -167 176 -170 175 -3 -2 -78 -79 -167 -173 l-162 -170 0 283 
c-1 155 -1 284 -1 287 0 3 15 6 33 8 l32 2 3 -197 c1 -109 6 -197 10 -195 
4 1 63 63 132 137 l125 135 125 -140 125 -140 5 200 5 200 35 0 35 0 0 -295 
0 -295 -165 178 z" fill="rgb(49, 139, 128)"/>
<path d="M5110 4910l0 40 181 0 180 0 -3 -37 -3 -38 -177 -3 -178 -2 0 40 z" fill="rgb(49, 139, 128)"/>
<path d="M5110 5034c0 26 5 36 21 41 11 4 93 4 180 0 l160 -8 -3 -31 -3 -31 -177 -3 
-178 -2 0 34 z" fill="rgb(49, 139, 128)"/>
<path d="M8390 5350c0 6 7 10 15 10 11 0 15 12 15 46 0 27 4 43 10 39 6 -3 10 -21 10 -40 
0 -19 5 -37 10 -40 6 -3 10 -10 10 -16 0 -5 -16 -9 -35 -9 -19 0 -35 5 -35 10 
z" fill="rgb(71, 154, 143)"/>
<path d="M8568 5368c-7 17 -15 32 -19 32 -4 0 -10 -11 -13 -25 -4 -16 -13 -25 -26 -25 
-17 0 -20 7 -20 46 0 32 4 45 13 42 7 -2 11 -16 10 -33 l-3 -30 18 35 c10 21 21 32 28 28 
6 -4 14 -21 17 -37 4 -17 14 -31 24 -33 16 -3 16 -4 1 -18 -15 -14 -18 -12 -30 18 
z" fill="rgb(71, 154, 143)"/>
<path d="M5332 5372c-27 0 -55 0 -84 1 l-261 1 c47 4 135 7 203 7 72 1 134 -1 137 -5 
l5 -4 z" fill="rgb(116, 179, 170)"/>
<path d="M5040 5449c69 0 154 -1 233 -1 l32 -1 -128 -7 c-70 -1 -130 1 -133 4 l-4 5 
z" fill="rgb(116, 179, 170)"/>
<path d="M2207 5710c-17 38 -27 73 -23 77 4 5 13 0 20 -10 7 -9 26 -17 41 -17 16 0 37 7 47 17 
10 9 21 13 24 10 3 -3 -6 -38 -21 -76 -18 -45 -34 -71 -43 -71 -10 0 -27 27 -45 70 
z" fill="rgb(83, 157, 153)"/>
<path d="M2479 5650c-6 4 -8 30 -5 68 4 34 8 62 11 62 3 0 9 -12 13 -27 5 -20 13 -27 26 -25 
10 2 25 0 35 -5 12 -6 7 -9 -21 -14 -30 -5 -38 -10 -38 -27 0 -19 6 -22 41 -22 
25 0 38 -4 34 -10 -4 -6 -24 -10 -46 -8 -21 1 -44 5 -50 8 z" fill="rgb(91, 160, 150)"/>
<path d="M2638 5713c1 42 4 77 7 77 3 0 7 -30 10 -67 4 -47 2 -69 -7 -77 -11 -9 -13 4 -10 67 
z" fill="rgb(83, 157, 153)"/>
<path d="M2738 5713c1 42 4 77 7 77 3 0 8 -26 13 -57 l7 -58 32 58 c18 31 39 57 47 57 
13 0 16 -14 16 -75 0 -43 -4 -75 -10 -75 -5 0 -10 25 -10 55 0 30 -3 55 -8 55 
-4 0 -18 -21 -32 -46 -13 -26 -33 -51 -45 -58 -19 -11 -20 -9 -17 67 z" fill="rgb(71, 154, 143)"/>
<path d="M2959 5701c-16 35 -29 70 -29 77 0 6 5 12 11 12 6 0 13 -8 16 -19 3 -12 15 -19 34 -19 
19 -1 36 6 48 20 11 13 23 19 27 15 4 -4 -6 -36 -21 -73 -15 -36 -35 -68 -43 -71 
-11 -5 -23 12 -43 58 z" fill="rgb(71, 154, 143)"/>
<path d="M3132 5713c-2 50 0 77 7 77 7 0 11 -22 11 -55 0 -30 4 -54 8 -52 4 1 21 25 38 52 
16 28 37 51 47 53 15 3 17 -6 17 -72 0 -42 -4 -76 -9 -76 -5 0 -12 25 -16 56 
l-7 56 -34 -56 c-18 -31 -39 -57 -46 -58 -9 -2 -14 18 -16 75 z" fill="rgb(71, 154, 143)"/>
<path d="M3350 5660c-13 13 -20 33 -20 57 0 20 7 45 17 55 9 10 29 18 45 18 16 0 38 -5 49 -10 
10 -6 19 -20 19 -31 0 -19 -2 -19 -35 6 -32 23 -37 24 -55 9 -11 -8 -20 -26 -20 -40 
0 -14 5 -34 10 -45 6 -10 20 -19 32 -19 12 0 32 10 45 22 15 14 23 17 23 8 
0 -7 -7 -22 -17 -32 -9 -10 -29 -18 -45 -18 -15 0 -37 9 -48 20 z" fill="rgb(83, 157, 153)"/>
<path d="M3527 5713l-2 72 50 0 c31 0 36 -1 13 -3 l-36 -3 -1 -60 0 -59 40 0 c24 0 38 -4 34 -10 
-3 -5 -26 -10 -51 -10 l-45 0 -2 73 z" fill="rgb(83, 157, 153)"/>
<path d="M3782 5713c-2 50 0 77 7 77 6 0 11 -15 11 -32 0 -18 4 -39 9 -47 6 -9 13 1 24 34 
10 29 21 45 29 43 7 -3 22 -29 34 -59 l22 -54 1 58 c1 31 6 57 11 57 6 0 10 -30 10 -69 
0 -55 -3 -70 -16 -75 -20 -8 -18 -11 -37 47 -9 26 -20 47 -25 47 -6 0 -17 -20 -25 -45 
-9 -25 -24 -49 -34 -53 -16 -6 -18 0 -21 71 z" fill="rgb(83, 157, 153)"/>
<path d="M4210 5714c0 42 4 76 10 76 5 0 10 -26 12 -57 l3 -58 32 58 c23 43 37 58 50 55 
13 -2 19 -14 21 -43 2 -21 1 -55 -3 -73 -4 -20 -10 -31 -15 -26 -5 5 -10 32 -12 59 
l-3 50 -33 -53 c-18 -29 -39 -55 -47 -58 -12 -5 -15 7 -15 70 z" fill="rgb(83, 157, 153)"/>
<path d="M4454 5648c-5 4 -21 35 -33 70 -13 34 -21 65 -17 69 3 3 14 -1 24 -10 10 -10 31 -17 47 -17 
15 0 34 8 41 17 7 10 16 15 20 11 3 -4 -4 -35 -16 -69 -13 -33 -30 -65 -39 -69 
-9 -5 -21 -6 -27 -2 z" fill="rgb(83, 157, 153)"/>
<path d="M4608 5674c-15 24 -18 42 -13 65 4 17 15 36 25 41 10 5 42 9 70 7 l51 -2 -3 -35 
c-3 -33 -5 -35 -41 -37 -20 0 -40 3 -43 8 -3 5 6 9 20 9 14 0 27 4 31 10 
3 5 -6 17 -20 26 -24 16 -27 16 -45 -1 -12 -11 -20 -31 -20 -50 0 -17 5 -36 12 -43 
7 -7 21 -12 32 -12 10 0 27 8 36 18 11 11 21 13 26 7 6 -6 0 -17 -15 -27 
-13 -10 -37 -18 -53 -18 -23 0 -34 7 -50 34 z" fill="rgb(71, 154, 143)"/>
<path d="M4837 5675c1 -3 3 -6 4 -7 3 -5 21 -8 39 -8 15 0 23 -1 26 -4 1 -1 0 -4 -3 -7 
-5 -5 -30 -9 -54 -7 l-44 3 -3 73 -3 72 56 0 c30 0 55 -4 55 -10 0 -5 -18 -10 -39 -10 
-24 0 -41 -5 -44 -14 -3 -7 0 -19 6 -25 6 -6 24 -12 40 -13 28 -3 27 -3 -8 -9 
-25 -4 -36 -11 -34 -20 2 -5 4 -10 6 -14 z" fill="rgb(83, 157, 153)"/>
<path d="M4972 5714c-3 61 -1 77 10 75 8 -3 14 -23 16 -54 l3 -50 19 53 c10 28 24 52 30 52 
6 0 18 -17 26 -37 8 -21 19 -45 24 -53 7 -11 9 1 7 40 -2 44 1 55 13 55 
12 0 14 -13 12 -70 -2 -38 -8 -73 -13 -77 -5 -5 -13 -8 -18 -8 -5 0 -17 23 -26 50 
-9 28 -20 50 -25 50 -4 0 -15 -20 -23 -45 -9 -25 -24 -49 -34 -53 -16 -6 -18 0 -21 72 
z" fill="rgb(83, 157, 153)"/>
<path d="M5237 5675c1 -3 2 -6 4 -7 3 -5 20 -8 37 -8 15 0 22 -1 23 -3 1 -2 -1 -4 -6 -8 
-9 -5 -32 -9 -53 -7 l-37 3 -3 73 -3 72 56 0 c30 0 55 -4 55 -10 0 -5 -18 -10 -41 -10 
-36 0 -40 -2 -37 -22 2 -18 11 -24 36 -26 18 -2 30 -8 27 -13 -4 -5 -20 -9 -36 -9 
-19 0 -29 -5 -27 -12 1 -4 3 -9 5 -13 z" fill="rgb(95, 158, 156)"/>
<path d="M5372 5713c-2 43 0 77 6 77 5 0 13 -24 18 -52 l9 -53 32 53 c18 28 39 52 48 52 
12 0 15 -14 15 -75 0 -43 -4 -75 -10 -75 -5 0 -10 23 -10 50 0 28 -4 50 -10 50 
-5 0 -19 -18 -30 -40 -11 -21 -30 -45 -43 -52 -22 -13 -22 -13 -25 65 z" fill="rgb(83, 157, 153)"/>
<path d="M5566 5649c-3 5 5 11 19 13 22 5 24 11 27 64 2 35 8 60 15 62 8 2 13 -17 15 -60 
3 -57 5 -63 26 -66 12 -2 20 -8 17 -13 -4 -5 -30 -9 -60 -9 -30 0 -56 4 -59 9 
z" fill="rgb(83, 157, 153)"/>
<path d="M5840 5646l7 0 c5 -1 5 31 2 69 l-6 70 2 3 c1 1 17 1 35 0 17 -2 25 -2 26 -4 
0 -1 -7 -2 -19 -5 l-27 -6 0 -12 c0 -6 0 -32 0 -57 l0 -46 32 4 c21 3 35 13 42 27 
7 16 6 32 -2 52 l-11 29 -1 5 c0 2 1 3 2 4 1 1 3 1 4 1 4 0 13 -5 20 -11 
8 -6 14 -29 14 -50 0 -26 -7 -46 -21 -60 -15 -15 -30 -19 -60 -16 l-39 3 
z" fill="rgb(68, 154, 137)"/>
<path d="M6042 5708c-14 39 -23 75 -18 79 4 4 12 0 17 -10 7 -11 22 -17 46 -17 23 0 41 6 49 17 
7 10 16 15 19 11 4 -4 -5 -37 -21 -74 -17 -41 -35 -69 -47 -72 -15 -4 -23 8 -45 66 
z" fill="rgb(71, 154, 143)"/>
<path d="M6230 5654c-6 8 -10 25 -8 38 2 17 14 26 41 35 28 9 38 17 35 30 -2 10 -11 19 -20 21 
-9 2 -26 -7 -37 -19 -11 -12 -24 -19 -28 -15 -4 4 -2 15 3 24 7 10 27 18 48 20 
21 2 44 -2 52 -9 8 -7 14 -22 12 -33 -2 -15 -16 -25 -45 -34 -30 -10 -43 -19 -43 -32 
0 -10 6 -20 14 -23 8 -3 26 3 40 14 19 15 26 17 26 7 0 -8 -5 -19 -12 -26 
-7 -7 -24 -12 -39 -12 -15 0 -32 7 -39 14 z" fill="rgb(71, 154, 143)"/>
<path d="M6493 5698c1 2 2 4 3 5 4 4 -11 7 -34 7 -25 0 -35 -1 -40 -10 -3 -4 -5 -11 -6 -20 
-3 -16 -8 -30 -11 -30 -3 0 -5 29 -5 65 0 36 2 65 5 65 3 0 8 -13 11 -30 
4 -25 10 -30 33 -30 15 0 32 5 39 12 7 7 12 22 12 35 0 13 5 23 10 23 6 0 10 -30 10 -71 
0 -52 -3 -70 -12 -67 -7 2 -14 12 -16 23 -1 8 0 17 1 23 z" fill="rgb(71, 154, 143)"/>
<path d="M6590 5716l0 75 51 -3 c34 -2 55 -8 62 -19 6 -9 7 -24 2 -35 -4 -11 -7 -29 -6 -42 
2 -13 -3 -30 -9 -38 -8 -8 -30 -14 -56 -14 l-44 0 0 76 z" fill="rgb(83, 157, 153)"/>
<path d="M6809 5650c2 0 3 2 3 5 l27 2 24 1 c-2 -3 -3 -5 -3 -5 0 -2 2 -3 5 -3 0 0 0 0 0 0 
l-30 -3 -26 3 z" fill="rgb(92, 172, 161)"/>
<path d="M6993 5709c-14 39 -23 75 -19 79 4 4 12 -1 17 -11 7 -11 22 -17 46 -17 23 0 41 6 49 17 
7 10 16 15 19 11 4 -4 -5 -37 -21 -74 -18 -42 -35 -69 -47 -72 -16 -4 -23 7 -44 67 
z" fill="rgb(83, 157, 153)"/>
<path d="M7170 5715c0 41 4 75 9 75 5 0 11 -14 13 -31 4 -27 8 -30 34 -27 21 2 32 10 39 31 
5 15 13 27 17 27 5 0 8 -13 8 -29 0 -17 -4 -32 -9 -35 -5 -4 -5 -15 2 -29 
8 -18 7 -26 -7 -40 -11 -11 -33 -17 -62 -17 l-44 0 0 75 z" fill="rgb(71, 154, 143)"/>
<path d="M7360 5715l0 75 44 0 c27 0 51 -6 60 -16 10 -9 16 -33 16 -59 0 -26 -6 -50 -16 -59 
-9 -10 -33 -16 -60 -16 l-44 0 0 75 z" fill="rgb(68, 154, 137)"/>
<path d="M4032 5703c-11 28 -23 60 -27 70 -5 12 -2 17 9 17 9 0 16 -7 16 -15 0 -11 11 -15 40 -15 
27 0 43 5 46 15 4 8 10 15 15 15 5 0 9 -6 9 -14 0 -7 -11 -39 -25 -70 -17 -39 -30 -56 -43 -56 
-14 0 -25 15 -40 53 z" fill="rgb(83, 157, 153)"/>
<path d="M5840 5646l1 70 2 69 6 -70 c3 -38 3 -70 -2 -69 l-7 0 z" fill="rgb(49, 139, 128)"/>
<path d="M6809 5650c0 0 0 0 0 0 -5 0 -16 8 -24 17 -8 9 -15 32 -15 50 0 20 8 41 20 53 
11 11 33 20 51 20 17 0 38 -4 49 -10 10 -5 21 -21 24 -35 4 -14 0 -40 -8 -60 
-8 -19 -20 -35 -25 -35 -6 0 -13 0 -16 0 0 0 0 0 0 0 -3 0 -5 1 -5 3 0 0 1 2 3 5 
3 4 7 10 12 16 8 11 15 32 15 46 0 15 -9 35 -19 44 -13 12 -27 15 -41 11 
-12 -4 -25 -18 -31 -32 -5 -13 -9 -27 -9 -31 0 -4 7 -19 14 -34 5 -10 8 -18 8 -23 
0 -3 -1 -5 -3 -5 z" fill="rgb(71, 154, 143)"/>
<path d="M4837 5675l38 -5 31 -14 c-3 3 -11 4 -26 4 -18 0 -36 3 -39 8 -1 1 -3 4 -4 7 
z" fill="rgb(189, 220, 215)"/>
<path d="M5237 5675l38 -5 26 -13 c-1 2 -8 3 -23 3 -17 0 -34 3 -37 8 -2 1 -3 4 -4 7 
z" fill="rgb(189, 220, 215)"/>
<path d="M5860 5773l30 -1 31 -2 11 -29 c8 -20 9 -36 2 -52 -7 -14 -21 -24 -42 -27 
l-32 -4 0 46 c0 25 0 51 0 57 l0 12 z" fill="rgb(226, 242, 236)"/>
<path d="M6616 5683c-1 17 5 23 25 25 17 2 29 -3 33 -13 3 -9 4 -21 0 -26 -3 -5 -17 -9 -31 -9 
-20 0 -27 5 -27 23 z" fill="rgb(226, 242, 236)"/>
<path d="M6812 5655c0 5 -3 13 -8 23 -7 15 -14 30 -14 34 0 4 4 18 9 31 6 14 19 28 31 32 
14 4 28 1 41 -11 10 -9 19 -29 19 -44 0 -14 -7 -35 -15 -46 -5 -6 -9 -12 -12 -16 
l-24 -1 -27 -2 z" fill="rgb(226, 242, 236)"/>
<path d="M7195 5708c1 1 3 2 4 2 6 0 22 0 35 0 3 0 7 0 10 -1 9 -2 17 -7 19 -13 3 -8 0 -20 -8 -26 
-8 -6 -24 -10 -37 -8 -15 2 -24 11 -26 26 -1 8 0 16 3 20 z" fill="rgb(226, 242, 236)"/>
<path d="M7385 5715c0 56 1 60 23 58 12 -2 29 -8 37 -14 8 -6 15 -26 15 -43 0 -18 -5 -37 -12 -44 
-7 -7 -23 -13 -37 -14 -25 -3 -26 -1 -26 57 z" fill="rgb(226, 242, 236)"/>
<path d="M2982 5699c-7 19 -12 36 -12 37 0 2 11 4 24 4 14 0 27 -4 30 -8 3 -5 -3 -21 -13 -38 
l-17 -29 -12 34 z" fill="rgb(210, 230, 224)"/>
<path d="M6071 5693c-6 16 -11 33 -11 38 0 5 11 9 25 9 17 0 25 -5 25 -18 0 -10 -6 -27 -14 -38 
-14 -18 -15 -18 -25 9 z" fill="rgb(226, 242, 236)"/>
<path d="M7021 5693c-6 16 -11 33 -11 38 0 5 11 9 25 9 17 0 25 -5 25 -18 0 -10 -6 -27 -14 -38 
-14 -18 -15 -18 -25 9 z" fill="rgb(226, 242, 236)"/>
<path d="M2231 5703c-6 16 -11 31 -11 33 0 3 12 4 28 2 18 -2 26 -8 24 -18 -2 -8 -9 -22 -16 -30 
-12 -13 -15 -11 -25 13 z" fill="rgb(210, 230, 224)"/>
<path d="M4054 5708c-6 30 -5 32 20 32 24 0 26 -3 21 -22 -4 -13 -13 -27 -21 -33 -10 -7 -15 -2 -20 23 
z" fill="rgb(226, 242, 236)"/>
<path d="M4451 5703c-6 16 -11 31 -11 33 0 3 12 4 28 2 18 -2 26 -8 24 -18 -2 -8 -9 -22 -16 -30 
-12 -13 -15 -11 -25 13 z" fill="rgb(226, 242, 236)"/>
<path d="M6493 5698l-38 1 -33 1 c5 9 15 10 40 10 23 0 38 -3 34 -7 -1 -1 -2 -3 -3 -5 
z" fill="rgb(92, 172, 161)"/>
<path d="M7195 5708l22 6 27 -5 c-3 1 -7 1 -10 1 -13 0 -29 0 -35 0 -1 0 -3 -1 -4 -2 
z" fill="rgb(91, 160, 150)"/>
<path d="M6617 5743c-2 18 4 23 27 25 16 2 32 -2 37 -9 4 -7 3 -19 -3 -26 -6 -7 -21 -13 -34 -13 
-18 0 -25 6 -27 23 z" fill="rgb(226, 242, 236)"/>
<path d="M5906 5784l12 -1 4 -4 c-1 -1 -2 -2 -2 -4 l1 -5 -31 2 -30 1 27 6 c12 3 19 4 19 5 
z" fill="rgb(116, 179, 170)"/>
</g>
</svg>
