<?xml version="1.0" encoding="UTF-8" standalone="no"?><!DOCTYPE svg PUBLIC "-//W3C//DTD SVG 20010904//EN"
 "http://www.w3.org/Graphics/SVG/1.1/DTD/svg11.dtd">
<svg version="1.1" baseProfile="full" xmlns="http://www.w3.org/2000/svg"
 width="1024pt" height="1024pt" viewBox="0 0 1024 1024" preserveAspectRatio="xMidYMid meet">
<g id="svg" fill="black" stroke="none" stroke-linecap="round" transform="scale(0.1,0.1)">
<path d="M0 5120l0 5120 5120 0 5120 0 0 -5120 0 -5120 -5120 0 -5120 0 0 5120 z" fill="rgb(230, 245, 243)"/>
<path d="M4140 4215l-413 425 23 25 c13 14 29 25 36 25 7 0 186 -178 397 -396 l383 -396 208 197 
c138 130 214 195 225 192 9 -2 143 -81 298 -176 l282 -172 381 171 c209 93 523 234 698 313 
174 78 320 143 325 145 4 1 97 -81 207 -183 110 -102 204 -185 208 -185 
5 0 15 21 23 48 l14 47 48 -133 c27 -73 51 -140 54 -148 3 -8 1 -14 -5 -14 
-5 0 -78 29 -162 64 l-153 65 61 3 62 3 -184 167 -184 167 -691 -310 c-380 -170 -696 -309 -702 -309 
-7 0 -139 77 -295 171 l-282 171 -214 -201 c-117 -111 -218 -201 -224 -201 
-6 0 -197 191 -424 425 z" fill="rgb(10, 80, 66)"/>
<path d="M7355 4495l5 140 c3 77 2 259 -3 405 -1 16 -1 31 -2 45 -7 206 -5 229 12 293 
15 56 29 85 61 122 30 35 57 54 97 69 45 17 79 21 180 21 99 0 127 -3 139 -16 
12 -12 16 -38 16 -113 0 -62 -4 -101 -12 -109 -7 -7 -42 -12 -89 -12 -58 0 -83 -4 -100 -17 
-23 -18 -23 -22 -24 -203 l0 -185 99 -3 c55 -1 106 -8 113 -14 9 -7 13 -42 13 -117 
0 -70 -4 -111 -12 -119 -8 -8 -48 -12 -115 -12 l-103 0 0 -104 c0 -58 -4 -107 -9 -110 
-4 -3 -63 -6 -131 -7 -93 -1 -125 2 -131 13 -1 2 -3 13 -4 33 z" fill="rgb(10, 80, 66)"/>
<path d="M7355 4495c-2 53 -4 163 -3 285 l3 305 c1 -14 1 -29 2 -45 5 -146 6 -328 3 -405 
l-5 -140 z" fill="rgb(67, 126, 115)"/>
<path d="M3315 4646c-14 3 -25 11 -25 17 0 7 5 19 10 27 7 11 26 14 80 12 56 -2 84 3 143 26 
51 19 90 43 134 83 40 36 72 77 92 116 17 33 35 87 39 120 5 38 4 89 -3 137 
-9 61 -20 90 -54 142 -28 44 -63 82 -106 115 -47 35 -84 53 -139 68 -56 16 -93 20 -139 15 
-34 -3 -88 -15 -119 -28 -31 -13 -84 -47 -118 -76 -44 -36 -73 -71 -96 -116 
-18 -36 -39 -94 -45 -129 -8 -49 -8 -82 1 -132 6 -38 25 -94 42 -126 l31 -58 -21 -22 
c-21 -21 -22 -21 -37 -2 -8 11 -29 53 -46 94 -24 56 -32 92 -36 155 -3 65 1 96 20 161 
16 53 39 100 68 140 24 33 73 81 108 107 35 26 92 58 125 70 48 18 82 23 156 23 
80 0 107 -4 166 -27 43 -17 96 -48 135 -80 41 -35 79 -78 107 -123 34 -56 47 -89 58 -155 
12 -68 13 -99 4 -155 -6 -38 -22 -96 -36 -128 -15 -34 -50 -84 -86 -122 
-39 -42 -84 -77 -128 -101 -58 -30 -84 -37 -164 -45 -53 -5 -107 -6 -121 -3 
z" fill="rgb(10, 80, 66)"/>
<path d="M1761 4685c-33 14 -69 34 -78 46 -17 20 -17 19 -28 -18 l-10 -38 -119 -3 
c-78 -2 -123 1 -132 9 -12 9 -14 88 -14 450 0 423 1 439 19 449 11 5 68 10 127 10 
86 0 111 -3 126 -17 17 -15 18 -37 18 -270 0 -194 3 -261 14 -287 8 -18 30 -46 49 -61 
27 -22 46 -28 81 -28 37 0 52 5 76 28 17 16 35 45 40 64 5 20 10 151 10 292 
0 185 3 258 12 267 8 8 49 12 121 12 59 0 117 -5 128 -10 18 -10 19 -24 19 -263 
0 -232 2 -257 20 -300 12 -27 34 -56 50 -67 23 -15 44 -19 86 -17 52 2 59 5 83 37 
l26 35 3 280 c2 191 7 284 15 294 9 10 37 12 128 9 81 -3 122 -8 134 -18 
16 -13 17 -42 13 -325 -4 -287 -6 -315 -27 -379 -18 -53 -33 -79 -71 -117 
-35 -35 -65 -54 -109 -69 -36 -12 -86 -20 -124 -20 -35 0 -87 7 -115 15 
-28 9 -81 36 -117 60 l-67 44 -43 -39 c-26 -24 -67 -47 -104 -60 -34 -11 -86 -20 -119 -20 
-40 0 -79 8 -121 25 z" fill="rgb(10, 80, 66)"/>
<path d="M4021 5576c22 2 64 4 109 4 49 0 94 -1 114 -3 5 0 9 -1 10 -1 12 -4 15 -51 18 -263 
3 -238 5 -261 24 -298 11 -22 35 -50 52 -62 26 -19 43 -23 93 -20 57 2 63 4 88 37 
l26 35 3 280 c2 154 7 284 13 291 6 7 49 10 127 9 65 -1 124 -5 130 -9 9 -5 12 -92 12 -319 
-1 -306 -1 -313 -25 -385 -20 -57 -36 -84 -73 -121 -35 -35 -66 -54 -110 -70 
-39 -13 -87 -21 -127 -21 -35 0 -85 7 -111 16 -26 9 -65 27 -86 41 -37 25 -38 25 -38 5 
0 -11 -7 -28 -16 -36 -12 -13 -39 -16 -130 -16 -63 0 -119 4 -126 9 -8 7 -11 126 -9 448 
1 373 4 439 16 446 2 1 8 2 16 3 z" fill="rgb(10, 80, 66)"/>
<path d="M5260 4679c-32 11 -84 36 -115 55 -30 20 -74 59 -98 88 -24 29 -57 85 -72 123 
-26 63 -29 81 -29 180 0 89 5 122 23 172 12 35 42 89 65 121 32 43 64 71 119 104 
42 25 105 53 140 62 35 9 104 16 153 16 70 0 109 -6 176 -27 62 -20 104 -41 148 -75 
50 -40 59 -51 51 -65 -5 -10 -38 -49 -73 -87 l-64 -69 -67 33 c-52 25 -85 34 -140 38 
-65 4 -79 1 -139 -27 -48 -22 -74 -42 -93 -68 l-25 -38 130 -7 c71 -5 209 -8 305 -8 
162 0 175 -1 185 -19 5 -11 10 -58 10 -106 0 -60 -6 -102 -20 -142 -11 -31 -40 -83 -65 -116 
-37 -47 -62 -67 -134 -104 -87 -46 -89 -46 -200 -50 -89 -2 -123 1 -171 16 
z" fill="rgb(10, 80, 66)"/>
<path d="M5870 4688c-8 13 24 113 147 452 l158 435 134 8 c102 6 139 5 155 -5 16 -10 61 -122 181 -447 
148 -401 158 -434 142 -446 -12 -9 -58 -13 -142 -14 -69 0 -130 3 -136 8 
-6 4 -48 136 -94 292 l-83 284 -16 -55 c-8 -30 -44 -158 -80 -284 -35 -126 -69 -233 -75 -237 
-6 -5 -72 -9 -146 -9 -118 0 -136 2 -145 18 z" fill="rgb(10, 80, 66)"/>
<path d="M6875 4680c-13 10 -15 71 -15 450 0 424 1 440 19 450 11 5 71 10 133 10 75 0 118 -4 126 -12 
9 -9 12 -123 12 -450 0 -422 -1 -438 -19 -448 -11 -5 -69 -10 -130 -10 -61 0 -118 5 -126 10 
z" fill="rgb(10, 80, 66)"/>
<path d="M7975 4679c-14 5 -25 13 -25 18 0 4 75 211 166 459 138 374 166 457 160 485 
-3 19 -18 47 -32 62 -15 16 -41 31 -60 34 -23 4 -44 -1 -69 -16 l-36 -21 -17 29 
c-10 16 -38 67 -62 113 l-45 83 21 23 c12 13 49 30 92 42 40 11 92 20 116 20 
24 0 73 -9 108 -20 43 -13 81 -34 111 -61 26 -22 62 -66 82 -97 24 -40 87 -214 214 -594 
160 -478 178 -540 165 -553 -12 -12 -42 -15 -138 -15 -82 0 -127 4 -138 13 
-11 8 -43 114 -89 297 -40 157 -74 281 -75 275 -2 -5 -40 -131 -84 -279 
-45 -149 -85 -277 -90 -285 -7 -13 -32 -16 -129 -18 -67 -2 -132 1 -146 6 
z" fill="rgb(10, 80, 66)"/>
<path d="M3360 4828c0 13 15 20 70 30 49 8 82 21 110 42 22 17 54 55 71 84 19 35 32 75 35 108 
4 42 0 65 -20 112 -14 32 -36 72 -50 87 -14 16 -49 41 -78 55 -45 23 -61 26 -128 22 
-66 -2 -84 -8 -129 -35 -34 -22 -62 -50 -84 -85 -29 -48 -32 -61 -33 -141 
-1 -50 -6 -93 -13 -100 -6 -6 -14 -8 -17 -4 -3 3 -11 34 -17 69 -9 52 -8 73 6 118 
9 30 34 78 55 106 29 38 56 60 105 84 61 30 72 32 150 29 74 -4 90 -8 143 -39 
44 -26 69 -50 96 -93 22 -35 43 -83 50 -118 10 -51 10 -70 -4 -121 -9 -36 -31 -82 -52 -111 
-26 -34 -56 -59 -102 -83 -49 -25 -78 -34 -115 -34 -40 0 -49 3 -49 18 z" fill="rgb(10, 80, 66)"/>
<path d="M5316 4923c-26 14 -54 39 -66 60 l-22 37 166 0 c143 0 166 -2 166 -15 0 -9 -17 -34 -39 -57 
-36 -39 -42 -42 -100 -45 -49 -2 -70 2 -105 20 z" fill="rgb(230, 245, 243)"/>
<path d="M4021 5576l111 9 112 -8 c-20 2 -65 3 -114 3 -45 0 -87 -2 -109 -4 z" fill="rgb(102, 158, 147)"/>
<path d="M1593 5893c-3 54 -1 87 5 87 6 0 12 -35 14 -77 2 -43 -1 -82 -6 -88 -6 -6 -11 23 -13 78 
z" fill="rgb(45, 97, 88)"/>
<path d="M2455 5824c-14 8 -30 27 -35 42 -8 19 -7 37 1 61 6 18 19 38 29 43 10 6 37 10 59 10 
28 0 48 -7 61 -20 12 -12 18 -25 14 -31 -4 -7 -15 -3 -28 10 -12 12 -35 21 -51 21 
-16 0 -37 -7 -47 -17 -10 -9 -18 -29 -18 -45 0 -15 9 -37 20 -48 11 -11 31 -20 45 -20 
14 0 34 9 46 21 11 11 25 19 30 17 5 -2 2 -13 -6 -26 -11 -14 -30 -24 -56 -27 
-24 -3 -48 0 -64 9 z" fill="rgb(45, 97, 88)"/>
<path d="M4006 5819c-13 5 -31 19 -40 32 -9 13 -16 36 -16 52 0 16 10 38 25 52 17 18 35 25 64 25 
22 0 43 -4 46 -10 4 -6 13 -5 25 3 19 11 20 9 20 -31 l0 -42 -40 3 c-40 2 -40 2 -10 10 
l30 7 -25 24 c-21 21 -29 23 -57 16 -17 -6 -35 -13 -39 -17 -4 -5 -11 -20 -14 -35 
-5 -21 -1 -33 19 -52 14 -15 34 -26 44 -26 11 0 31 10 46 21 15 12 30 19 33 16 
3 -4 3 -13 0 -21 -3 -8 -24 -20 -46 -25 -25 -7 -50 -8 -65 -2 z" fill="rgb(26, 93, 77)"/>
<path d="M5945 5824c-16 10 -25 24 -25 39 0 18 8 28 30 36 17 6 44 15 61 21 18 5 29 14 27 22 
-3 7 -22 14 -42 16 -25 2 -44 -2 -57 -14 -15 -14 -19 -14 -19 -3 0 8 5 20 12 27 
7 7 33 12 58 12 25 0 51 -5 58 -12 7 -7 12 -22 12 -33 0 -14 -10 -26 -25 -33 
-14 -7 -36 -12 -49 -12 -13 0 -30 -7 -37 -16 -11 -14 -10 -18 6 -30 10 -8 25 -14 32 -14 
7 0 27 9 44 20 28 19 30 19 27 3 -2 -11 -19 -23 -45 -30 -36 -11 -47 -11 -68 1 
z" fill="rgb(40, 104, 89)"/>
<path d="M6273 5848l-6 43 -51 -3 c-50 -3 -51 -4 -54 -35 -2 -18 -7 -33 -13 -33 -5 0 -9 36 -9 80 
0 47 4 80 10 80 6 0 10 -16 10 -35 l0 -35 51 0 c28 0 59 5 70 10 18 10 19 7 19 -37 
0 -26 -5 -55 -10 -63 -8 -12 -12 -5 -17 28 z" fill="rgb(40, 104, 89)"/>
<path d="M6656 5819c-13 5 -31 19 -40 32 -9 13 -16 36 -16 52 0 16 10 38 25 52 18 19 35 25 70 25 
32 0 51 -6 65 -20 11 -11 23 -34 27 -50 3 -20 0 -39 -12 -56 -11 -17 -31 -30 -56 -35 
-22 -5 -49 -5 -63 0 z" fill="rgb(45, 97, 88)"/>
<path d="M1387 5833c0 6 1 43 1 80 1 43 6 66 12 62 6 -3 10 -19 10 -36 0 -28 1 -29 51 -29 
31 0 48 -4 44 -10 -3 -5 -26 -10 -51 -10 -40 0 -44 -2 -44 -25 0 -24 3 -25 55 -25 
30 0 55 -4 55 -10 0 -6 -29 -10 -66 -10 -46 0 -66 4 -67 13 z" fill="rgb(45, 97, 88)"/>
<path d="M1795 5911l21 18 4 6 -40 -57 c-23 -32 -48 -58 -56 -58 -11 0 -14 17 -14 80 
0 44 4 80 10 80 5 0 10 -28 12 -62 l3 -63 43 40 17 16 z" fill="rgb(26, 84, 74)"/>
<path d="M1795 5911l-5 12 c0 4 1 7 3 7 2 0 11 9 22 20 l18 0 c14 0 17 -10 17 -67 
l0 -68 -5 63 c-4 42 -10 61 -17 57 l-12 -6 -21 -18 z" fill="rgb(52, 111, 104)"/>
<path d="M1815 5950c2 2 3 3 5 5 13 14 27 25 32 25 5 0 6 -37 3 -82 l-5 -83 0 68 c0 57 -3 67 -17 67 
l-18 0 z" fill="rgb(26, 84, 74)"/>
<path d="M1972 5897c-18 42 -29 79 -26 82 3 3 13 -4 21 -16 12 -18 25 -23 59 -23 34 0 44 4 49 20 
3 11 11 20 16 20 5 0 9 -6 9 -14 0 -7 -14 -43 -30 -80 -21 -46 -36 -66 -48 -66 
-13 0 -27 21 -50 77 z" fill="rgb(45, 97, 88)"/>
<path d="M2292 5953c14 15 31 27 37 27 7 0 11 -28 11 -80 0 -47 -4 -80 -10 -80 -5 0 -10 24 -10 54 
0 30 -4 57 -9 60 -4 3 -27 -22 -51 -54 -26 -37 -51 -60 -62 -60 -17 0 -18 6 -13 75 
3 41 7 75 10 75 3 0 7 -21 9 -47 3 -27 5 -54 5 -62 1 -8 14 4 29 25 16 21 40 51 54 67 
z" fill="rgb(45, 97, 88)"/>
<path d="M2665 5895l0 80 68 3 c42 2 67 -1 67 -8 0 -6 -23 -10 -55 -10 -52 0 -55 -1 -55 -25 
0 -24 3 -25 55 -25 37 0 52 -3 45 -10 -5 -5 -30 -10 -55 -10 -41 0 -45 -2 -45 -25 
0 -24 3 -25 55 -25 30 0 55 -4 55 -10 0 -5 -30 -11 -67 -12 l-68 -3 0 80 
z" fill="rgb(40, 104, 89)"/>
<path d="M3144 5876c3 -5 6 -9 7 -10 5 -6 9 15 9 52 0 27 3 49 6 58 2 3 3 4 4 4 6 0 10 -33 10 -80 
0 -64 -3 -80 -15 -80 -8 0 -28 27 -45 60 -17 33 -35 60 -40 60 -6 0 -22 -27 -37 -60 
-18 -43 -31 -60 -44 -60 -17 0 -19 9 -19 80 0 44 4 80 10 80 5 0 10 -28 12 -62 
l3 -63 32 63 c17 34 36 62 42 62 6 0 22 -24 37 -52 10 -21 21 -41 28 -52 
z" fill="rgb(26, 93, 77)"/>
<path d="M3291 5890c-17 41 -31 78 -31 82 0 5 4 8 9 8 5 0 13 -9 16 -20 5 -16 15 -20 49 -20 
34 0 47 5 59 23 8 12 18 19 23 14 4 -4 -6 -38 -22 -75 -17 -39 -38 -71 -51 -76 
-19 -9 -23 -3 -52 64 z" fill="rgb(26, 93, 77)"/>
<path d="M3500 5901c0 51 4 78 10 74 6 -3 10 -31 10 -61 0 -30 4 -53 8 -51 5 1 28 28 52 60 
24 31 50 57 57 57 10 0 13 -21 13 -80 0 -47 -4 -80 -10 -80 -6 0 -10 27 -10 60 
0 33 -4 59 -8 58 -4 -2 -27 -29 -50 -60 -23 -32 -49 -58 -57 -58 -12 0 -15 15 -15 81 
z" fill="rgb(26, 93, 77)"/>
<path d="M3756 5893c-19 42 -31 79 -26 82 5 3 15 -3 22 -14 11 -17 19 -19 53 -13 22 4 48 13 58 21 
9 8 20 11 24 8 3 -4 -8 -37 -25 -74 -17 -38 -40 -72 -51 -78 -18 -8 -23 -1 -55 68 
z" fill="rgb(40, 104, 89)"/>
<path d="M4210 5900l0 80 65 0 c36 0 65 -4 65 -9 0 -6 -24 -11 -52 -13 -45 -3 -53 -6 -53 -23 
0 -17 8 -21 55 -25 47 -4 51 -6 28 -12 -16 -5 -40 -9 -55 -10 -20 -2 -28 -8 -28 -23 
0 -17 8 -20 53 -23 28 -2 52 -7 52 -13 0 -5 -29 -9 -65 -9 l-65 0 0 80 z" fill="rgb(40, 104, 89)"/>
<path d="M4420 5900c0 44 4 80 10 80 5 0 10 -28 12 -62 l3 -63 31 63 c17 34 36 62 43 62 
6 0 25 -28 41 -62 l30 -63 0 57 c0 31 5 60 10 63 6 4 10 -23 10 -75 0 -69 -2 -81 -16 -78 
-9 2 -27 29 -40 61 -13 31 -29 57 -34 57 -6 0 -23 -27 -39 -60 -18 -36 -36 -60 -45 -60 
-13 0 -16 14 -16 80 z" fill="rgb(26, 93, 77)"/>
<path d="M4700 5900l0 80 59 0 c33 0 63 -4 66 -10 4 -6 -15 -10 -49 -10 -53 0 -56 -1 -56 -25 
0 -23 3 -25 50 -25 28 0 50 -4 50 -10 0 -5 -22 -10 -50 -10 -47 0 -50 -2 -50 -25 
0 -24 3 -25 55 -25 30 0 55 -4 55 -10 0 -6 -28 -10 -65 -10 l-65 0 0 80 
z" fill="rgb(37, 109, 90)"/>
<path d="M5037 5820l1 60 c1 33 -2 60 -7 60 -6 0 -12 -5 -15 -10 l-5 -10 -45 -53 c-37 -43 -47 -49 -55 -37 
-6 8 -10 38 -10 65 0 28 4 59 9 70 6 16 9 17 14 5 3 -8 7 -37 8 -65 l3 -50 48 63 
c27 34 55 62 63 62 11 0 14 -17 14 -80 0 -55 -4 -80 -12 -80 l-11 0 z" fill="rgb(26, 93, 77)"/>
<path d="M5037 5820l-7 57 c-4 32 -7 55 -8 51 -1 -5 -4 -8 -7 -8 l-4 0 5 10 c3 5 9 10 15 10 
5 0 8 -27 7 -60 l-1 -60 z" fill="rgb(152, 189, 181)"/>
<path d="M5125 5831c4 5 19 9 33 7 27 -3 27 -2 30 70 2 39 7 72 12 72 5 0 10 -30 12 -67 
3 -62 5 -68 26 -70 12 -2 27 -7 34 -13 8 -7 -14 -10 -71 -10 -55 0 -80 3 -76 11 
z" fill="rgb(45, 97, 88)"/>
<path d="M5460 5900l0 80 54 0 c43 0 61 -5 81 -23 21 -17 27 -32 27 -62 0 -28 -6 -44 -22 -57 
-16 -13 -39 -18 -81 -18 l-59 0 0 80 z" fill="rgb(40, 104, 89)"/>
<path d="M5723 5884c-18 38 -33 75 -33 82 0 8 4 14 9 14 5 0 13 -9 16 -20 5 -16 15 -20 54 -20 
40 0 50 4 58 23 6 12 14 19 19 14 4 -4 -5 -35 -21 -70 -16 -34 -35 -69 -42 -77 
-7 -8 -13 -9 -13 -3 0 6 7 27 15 46 8 20 15 40 15 45 0 5 -14 9 -31 8 -28 -1 -30 -3 -24 -31 
3 -16 7 -41 8 -55 1 -15 -11 3 -30 44 z" fill="rgb(40, 104, 89)"/>
<path d="M6380 5900l0 80 56 0 c30 0 64 -5 75 -10 11 -6 19 -21 19 -35 0 -13 -4 -26 -10 -30 
-6 -4 -5 -14 1 -29 9 -18 7 -26 -6 -39 -12 -12 -34 -17 -76 -17 l-59 0 0 80 
z" fill="rgb(40, 104, 89)"/>
<path d="M6881 5896c-17 43 -28 80 -25 83 3 3 13 -4 21 -16 12 -18 25 -23 58 -23 34 0 44 4 52 23 
6 12 14 19 19 14 4 -4 -6 -40 -22 -80 -22 -52 -36 -73 -51 -75 -17 -3 -25 10 -52 74 
z" fill="rgb(45, 97, 88)"/>
<path d="M7090 5901c0 51 4 78 10 74 6 -3 10 -20 10 -37 0 -27 2 -30 25 -24 14 3 38 20 55 38 
16 17 32 29 35 26 3 -3 0 -17 -6 -32 -10 -22 -9 -29 4 -44 10 -10 17 -27 17 -38 
0 -11 -5 -25 -12 -32 -7 -7 -39 -12 -75 -12 l-63 0 0 81 z" fill="rgb(45, 97, 88)"/>
<path d="M7322 5835l8 60 10 60 c0 -3 0 -27 0 -54 0 -31 5 -53 15 -61 12 -10 24 -11 50 -3 
21 7 39 21 46 36 9 19 8 31 -2 53 -12 24 -21 29 -57 32 -17 1 -34 1 -42 2 
l0 5 c0 3 0 7 0 10 0 0 1 1 2 1 4 2 20 4 38 4 30 0 47 -7 65 -25 15 -14 25 -36 25 -53 
0 -16 -9 -41 -21 -56 -18 -23 -28 -26 -80 -26 -32 0 -58 3 -58 8 l1 7 z" fill="rgb(26, 93, 77)"/>
<path d="M6432 5841c-26 5 -33 11 -30 25 2 14 14 20 46 22 33 2 44 -1 49 -14 4 -12 0 -21 -13 -28 
-10 -6 -34 -8 -52 -5 z" fill="rgb(230, 245, 243)"/>
<path d="M6654 5841c-8 6 -19 21 -24 34 -5 12 -6 33 -3 44 3 12 18 28 33 36 22 11 35 12 58 4 
19 -7 34 -21 40 -39 7 -20 7 -35 -3 -53 -9 -18 -24 -27 -49 -31 -20 -3 -43 -1 -52 5 
z" fill="rgb(230, 245, 243)"/>
<path d="M7340 5955c0 0 0 0 0 0 0 3 2 5 5 5 1 0 2 0 5 0 8 -1 25 -1 42 -2 36 -3 45 -8 57 -32 
10 -22 11 -34 2 -53 -7 -15 -25 -29 -46 -36 -26 -8 -38 -7 -50 3 -10 8 -15 30 -15 61 
0 27 0 51 0 54 z" fill="rgb(230, 245, 243)"/>
<path d="M5490 5900l0 60 37 0 c20 0 45 -7 55 -17 10 -9 18 -29 18 -44 0 -15 -7 -35 -16 -43 
-9 -9 -32 -16 -55 -16 l-39 0 0 60 z" fill="rgb(230, 245, 243)"/>
<path d="M7112 5868c3 24 8 27 41 30 20 1 45 -4 54 -12 15 -12 15 -16 4 -30 -9 -10 -29 -16 -58 -16 
-42 0 -44 1 -41 28 z" fill="rgb(235, 244, 237)"/>
<path d="M7322 5835l-1 73 c-1 58 2 72 14 72 l17 -4 c-1 0 -2 -1 -2 -1 0 -3 0 -7 0 -10 
l0 -5 c-3 0 -4 0 -5 0 -3 0 -5 -2 -5 -5 0 0 0 0 0 0 l-10 -60 -8 -60 z" fill="rgb(10, 80, 66)"/>
<path d="M1998 5885c-8 19 -13 37 -10 40 3 3 20 5 39 5 18 0 33 -2 33 -4 0 -2 -7 -20 -15 -40 
-8 -20 -19 -36 -23 -36 -4 0 -15 16 -24 35 z" fill="rgb(199, 219, 216)"/>
<path d="M3317 5884c-8 19 -13 37 -10 40 4 3 18 6 33 6 15 0 29 -2 32 -5 3 -3 -2 -21 -10 -40 
-9 -19 -19 -35 -22 -35 -4 0 -14 15 -23 34 z" fill="rgb(199, 219, 216)"/>
<path d="M3786 5882c-9 21 -16 40 -16 43 0 3 16 5 35 5 21 0 35 -5 35 -12 0 -7 -9 -26 -19 -43 
l-19 -30 -16 37 z" fill="rgb(217, 233, 229)"/>
<path d="M6911 5881c-6 18 -11 36 -11 40 0 5 13 9 28 9 16 0 31 -3 35 -6 3 -3 -2 -21 -11 -40 
-8 -19 -19 -34 -23 -34 -4 0 -12 14 -18 31 z" fill="rgb(199, 219, 216)"/>
<path d="M3144 5876l6 52 16 48 c-3 -9 -6 -31 -6 -58 0 -37 -4 -58 -9 -52 -1 1 -4 5 -7 10 
z" fill="rgb(169, 201, 194)"/>
<path d="M2273 5920c4 0 7 -3 7 -7 0 -3 -3 -3 -7 0 -3 4 -3 7 0 7 z" fill="rgb(4, 52, 44)"/>
<path d="M6406 5932c-1 21 3 23 49 23 43 0 50 -3 50 -20 0 -17 -8 -20 -49 -23 -46 -3 -49 -1 -50 20 
z" fill="rgb(230, 245, 243)"/>
</g>
</svg>
