<?xml version="1.0" encoding="UTF-8" standalone="no"?><!DOCTYPE svg PUBLIC "-//W3C//DTD SVG 20010904//EN"
 "http://www.w3.org/Graphics/SVG/1.1/DTD/svg11.dtd">
<svg version="1.1" baseProfile="full" xmlns="http://www.w3.org/2000/svg"
 width="1024pt" height="1024pt" viewBox="0 0 1024 1024" preserveAspectRatio="xMidYMid meet">
<g id="svg" fill="black" stroke="none" stroke-linecap="round" transform="scale(0.1,0.1)">
<path d="M0 5120l0 5120 5120 0 5120 0 0 -5120 0 -5120 -5120 0 -5120 0 0 5120 z" fill="rgb(226, 236, 231)"/>
<path d="M3394 4358c-42 15 -100 43 -129 63 -29 20 -74 62 -101 94 -26 32 -61 90 -77 129 
-26 61 -31 86 -34 181 -4 100 -1 117 24 190 20 58 44 101 88 156 53 67 71 82 153 125 
80 42 106 50 180 59 72 8 101 7 167 -8 43 -9 110 -33 147 -53 46 -25 89 -59 133 -106 
46 -50 73 -91 97 -146 31 -72 33 -84 33 -192 0 -104 -3 -122 -30 -190 -25 -62 -45 -91 -115 -165 
-74 -79 -95 -94 -165 -125 -73 -32 -89 -35 -187 -37 -96 -3 -116 0 -184 25 
z" fill="rgb(35, 99, 81)"/>
<path d="M3418 4438c-74 24 -90 34 -154 97 -57 57 -76 83 -99 140 -19 48 -29 94 -32 150 
-4 69 -1 91 24 160 23 66 39 92 93 150 55 59 78 75 145 104 72 31 88 34 167 33 
63 -2 106 -8 150 -24 41 -15 87 -43 131 -81 51 -43 78 -76 103 -124 20 -37 40 -95 46 -133 
9 -52 9 -83 -1 -137 -7 -42 -26 -94 -47 -132 -19 -35 -58 -85 -86 -112 -29 -27 -79 -61 -118 -79 
-54 -24 -85 -32 -154 -35 -75 -4 -97 -1 -168 23 z" fill="rgb(226, 236, 231)"/>
<path d="M2060 4869l0 401 55 0 55 0 2 -227 3 -228 144 223 c79 122 147 224 151 227 
3 2 73 -98 156 -223 l149 -227 3 227 2 226 51 4 c28 1 53 1 55 -1 2 -2 4 -184 4 -404 
0 -369 -1 -398 -16 -386 -9 8 -102 141 -205 296 -104 156 -191 283 -194 283 
-3 0 -93 -132 -202 -292 -108 -161 -200 -294 -205 -296 -4 -2 -8 177 -8 397 
z" fill="rgb(35, 99, 81)"/>
<path d="M3458 4493c-72 19 -90 29 -142 77 -40 37 -69 75 -88 117 -20 41 -31 83 -34 130 
-4 54 0 83 19 143 20 66 31 83 90 143 56 56 78 71 132 88 51 17 82 21 147 18 
67 -3 94 -10 141 -34 35 -17 80 -53 112 -87 37 -40 59 -75 74 -118 14 -40 21 -85 21 -134 
0 -60 -6 -87 -28 -138 -15 -35 -45 -82 -65 -105 -21 -23 -65 -55 -97 -72 
-37 -19 -87 -35 -130 -41 -61 -9 -80 -7 -152 13 z" fill="rgb(35, 99, 81)"/>
<path d="M4867 5233l-8 -13 c-7 -10 -7 -57 1 -145 1 -16 2 -36 4 -60 3 -83 5 -205 4 -305 
l-3 -235 -52 -3 -53 -3 0 270 c0 149 -2 271 -4 271 -2 0 -31 -28 -64 -62 
-32 -35 -150 -157 -260 -273 l-202 -210 0 403 0 402 55 0 55 0 0 -262 0 -262 71 69 
c39 39 156 158 259 266 128 133 191 192 194 182 2 -3 3 -14 3 -30 z" fill="rgb(35, 99, 81)"/>
<path d="M5445 4477c-15 1 -30 3 -43 6 -58 9 -108 9 -202 2 l-125 -10 0 0 -3 398 -2 397 260 0 
260 0 0 -50 0 -50 -205 0 -205 0 0 -130 0 -130 173 -2 172 -3 3 -47 3 -48 -176 0 
-176 0 3 -117 3 -118 208 -3 207 -2 0 -50 0 -50 -61 0 c-23 0 -60 3 -94 7 
z" fill="rgb(35, 99, 81)"/>
<path d="M5445 4477l-185 -2 -185 0 125 10 c94 7 144 7 202 -2 13 -3 28 -5 43 -6 z" fill="rgb(70, 119, 106)"/>
<path d="M6429 4490l0 0 -57 0 c-30 0 -57 3 -63 7 0 0 0 0 0 1 -4 4 -53 117 -108 252 
-56 135 -105 252 -111 260 -5 8 -10 12 -12 10 -2 -3 -52 -126 -113 -275 
l-110 -270 -57 3 c-32 1 -58 4 -58 7 0 3 70 170 155 372 85 201 162 380 170 396 
8 17 17 28 20 26 2 -3 81 -181 174 -397 l170 -392 z" fill="rgb(35, 99, 81)"/>
<path d="M6429 4490l2 -11 c0 -5 -25 -9 -55 -9 -34 0 -57 5 -61 13 l-6 14 c6 -4 33 -7 63 -7 
l57 0 0 0 z" fill="rgb(70, 119, 106)"/>
<path d="M6570 4480l0 0 40 6 c27 4 44 13 52 27 8 15 9 123 4 389 -5 237 -4 347 1 365 
1 2 2 3 2 3 8 0 10 -118 9 -397 l-3 -398 -52 3 -53 2 z" fill="rgb(81, 130, 115)"/>
<path d="M7175 5225l-3 -230 c-1 -109 1 -233 3 -300 1 -11 1 -20 2 -27 l6 -98 109 0 
108 0 0 -50 0 -50 -280 0 -280 0 0 50 0 49 112 3 113 3 3 348 2 347 50 0 
c27 0 51 -3 53 -7 1 -2 2 -15 2 -38 z" fill="rgb(35, 99, 81)"/>
<path d="M7643 4702l147 227 0 170 0 171 55 0 55 0 0 -171 0 -171 150 -223 c83 -123 150 -227 150 -230 
0 -3 -28 -5 -62 -3 l-63 3 -111 165 c-62 90 -116 164 -120 165 -5 0 -57 -75 -116 -167 
l-107 -168 -62 3 -62 2 146 227 z" fill="rgb(35, 99, 81)"/>
<path d="M6570 4480l0 394 0 396 44 0 53 -3 c-5 -18 -6 -128 -1 -365 5 -266 4 -374 -4 -389 
-8 -14 -25 -23 -52 -27 l-40 -6 0 0 z" fill="rgb(35, 99, 81)"/>
<path d="M3477 4673l-49 43 3 60 c4 52 8 63 40 95 l37 37 -40 91 c-22 51 -38 94 -36 97 
3 2 64 3 135 2 l130 -3 -43 -94 -42 -95 34 -35 c20 -20 39 -52 44 -73 6 -28 3 -49 -10 -83 
-14 -35 -27 -51 -56 -66 -21 -10 -52 -19 -68 -19 -22 0 -45 13 -79 43 z" fill="rgb(226, 236, 231)"/>
<path d="M7175 5225c2 -50 3 -144 3 -250 l-3 -280 c-2 67 -4 191 -3 300 l3 230 z" fill="rgb(113, 156, 139)"/>
<path d="M4867 5233c2 -25 2 -62 2 -101 l-5 -117 c-2 24 -3 44 -4 60 -8 88 -8 135 -1 145 
l8 13 z" fill="rgb(81, 130, 115)"/>
<path d="M4105 5544c-22 9 -42 26 -52 47 -14 29 -15 37 -2 73 11 34 21 43 52 54 20 6 55 10 77 7 
22 -3 51 -12 65 -20 14 -9 25 -22 25 -30 0 -8 -5 -15 -11 -15 -6 0 -19 10 -29 23 
-15 18 -28 22 -70 22 -42 0 -55 -4 -71 -24 -10 -13 -19 -36 -19 -52 0 -16 9 -38 20 -49 
15 -15 33 -20 75 -20 44 0 57 4 67 20 7 11 18 20 25 20 7 0 13 -4 13 -10 
0 -5 -9 -19 -19 -29 -11 -11 -40 -22 -65 -25 -29 -4 -59 -1 -81 8 z" fill="rgb(65, 117, 98)"/>
<path d="M6070 5540c-16 6 -37 24 -45 40 -8 16 -15 38 -15 50 0 12 7 34 15 50 10 20 28 33 54 41 
22 6 55 9 75 5 19 -4 42 -13 50 -21 12 -12 15 -12 19 6 3 12 10 18 16 14 
6 -3 11 -26 11 -51 l0 -44 -60 0 c-33 0 -60 4 -60 10 0 6 18 10 39 10 22 0 42 4 46 10 
3 5 -7 17 -22 27 -16 10 -46 18 -71 18 -34 0 -48 -5 -63 -24 -10 -13 -19 -38 -19 -56 
0 -20 8 -39 21 -51 15 -14 35 -19 70 -18 36 0 55 6 72 22 13 12 26 22 30 22 
4 0 7 -6 7 -14 0 -8 -10 -22 -22 -30 -12 -9 -44 -18 -70 -21 -26 -3 -61 0 -78 5 
z" fill="rgb(65, 117, 98)"/>
<path d="M6342 5628l-3 92 91 0 c58 0 89 -4 85 -10 -3 -5 -37 -10 -76 -10 l-69 0 0 -30 
0 -30 70 0 c40 0 70 -4 70 -10 0 -6 -30 -10 -70 -10 l-70 0 0 -30 0 -30 75 0 
c41 0 75 -4 75 -9 0 -5 -39 -11 -87 -13 l-88 -3 -3 93 z" fill="rgb(70, 119, 106)"/>
<path d="M2744 5542l4 86 c3 48 6 78 8 67 l4 -19 10 -18 c8 -14 23 -18 70 -18 l60 0 -67 -12 
c-62 -12 -68 -15 -68 -38 0 -24 3 -25 73 -28 39 -2 72 -7 72 -13 0 -6 -34 -9 -83 -9 
l-83 2 z" fill="rgb(70, 119, 106)"/>
<path d="M3000 5630c0 64 4 91 13 93 9 1 11 -20 9 -90 -2 -51 -8 -93 -13 -93 -5 0 -9 41 -9 90 
z" fill="rgb(35, 99, 81)"/>
<path d="M3130 5629c0 50 4 92 9 95 5 3 12 -1 15 -10 3 -9 6 -47 6 -86 l0 -70 66 81 
c40 49 74 81 85 81 17 0 19 -8 19 -90 0 -53 -4 -90 -10 -90 -6 0 -10 32 -10 76 
0 42 -4 74 -9 72 -5 -2 -34 -36 -66 -75 -42 -55 -62 -73 -81 -73 -24 0 -24 1 -24 89 
z" fill="rgb(65, 117, 98)"/>
<path d="M3470 5627c-24 46 -40 86 -36 90 5 5 15 -2 23 -14 14 -20 24 -23 84 -23 58 0 70 3 79 20 
6 11 15 20 20 20 6 0 10 -5 10 -10 0 -6 -21 -46 -46 -90 -38 -65 -51 -80 -69 -77 
-16 1 -33 23 -65 84 z" fill="rgb(70, 119, 106)"/>
<path d="M3763 5716c4 -10 7 -39 7 -76 0 -44 4 -79 9 -77 1 0 3 1 6 4 7 6 18 19 28 33 
14 19 41 54 61 78 20 25 43 42 55 42 20 0 21 -6 21 -90 0 -72 -3 -90 -15 -90 
-11 0 -15 18 -17 78 l-3 77 -59 -77 c-44 -59 -65 -78 -82 -78 -23 0 -24 2 -24 90 
0 53 4 90 10 90 1 0 2 -1 3 -4 z" fill="rgb(65, 117, 98)"/>
<path d="M4370 5720l0 -90 0 -90 0 0 -5 90 5 90 z" fill="rgb(108, 151, 140)"/>
<path d="M4370 5720l0 0 88 -2 87 -3 -75 -3 -75 -3 -7 -2 c-4 -1 -6 -36 -5 -77 l2 -75 76 -6 
75 -5 -13 -2 c-7 -1 -44 -2 -83 -2 l-70 0 0 0 0 90 0 90 z" fill="rgb(32, 95, 83)"/>
<path d="M4395 5709l0 -32 0 -32 68 -3 c40 -2 65 -7 62 -12 -4 -6 -32 -10 -64 -10 
-32 0 -61 -3 -64 -7 -4 -3 -7 -17 -7 -30 0 -22 3 -23 76 -23 42 0 74 -4 73 -8 
l-3 -8 -75 5 -76 6 -2 75 c-1 41 1 76 5 77 l7 2 z" fill="rgb(81, 130, 115)"/>
<path d="M4773 5716c4 -10 7 -37 7 -71 0 -41 4 -75 8 -75 2 0 5 2 8 6 5 8 13 21 20 37 
10 23 29 57 41 75 12 17 29 32 38 32 9 0 30 -31 53 -77 35 -75 37 -77 43 -48 
4 17 7 54 8 83 1 33 5 51 11 47 6 -3 10 -47 10 -96 0 -88 -1 -90 -22 -87 
-17 2 -33 22 -61 76 -23 44 -42 70 -49 66 -6 -4 -28 -38 -49 -76 -28 -50 -43 -68 -58 -68 
-20 0 -21 6 -21 90 0 53 4 90 10 90 1 0 2 -1 3 -4 z" fill="rgb(65, 117, 98)"/>
<path d="M5160 5622c-24 48 -42 90 -38 93 3 4 14 -4 23 -18 15 -24 20 -25 78 -19 44 5 67 13 79 27 
9 11 20 16 25 12 4 -5 -11 -43 -33 -85 -26 -48 -50 -81 -65 -87 -23 -9 -26 -6 -69 77 
z" fill="rgb(65, 117, 98)"/>
<path d="M5624 5720l-2 -10 c-1 -5 -3 -45 -4 -87 l-2 -78 -6 80 -7 80 -43 -55 c-24 -30 -54 -67 -67 -82 
-13 -16 -32 -28 -43 -28 -18 0 -20 7 -20 90 0 51 4 90 10 90 5 0 10 -37 12 -82 
l3 -83 63 83 c44 59 68 82 84 82 l22 0 z" fill="rgb(35, 99, 81)"/>
<path d="M5624 5720l3 -77 c2 -42 2 -82 -1 -90 -3 -7 -10 -13 -16 -13 -6 0 -9 31 -8 83 
l1 82 7 -80 6 -80 2 78 c1 42 3 82 4 87 l2 10 z" fill="rgb(95, 144, 129)"/>
<path d="M5765 5624c-26 48 -44 90 -40 94 4 4 16 -6 27 -21 19 -27 22 -27 81 -21 45 5 66 13 78 28 
10 12 20 18 24 14 4 -4 -12 -42 -36 -85 -24 -45 -51 -82 -64 -87 -20 -8 -26 -1 -70 78 
z" fill="rgb(65, 117, 98)"/>
<path d="M6612 5608c-2 41 -1 85 2 98 4 14 11 22 16 19 6 -3 10 -43 10 -88 l0 -82 45 83 
c33 62 49 83 62 80 10 -2 35 -35 58 -78 l40 -75 3 78 c2 42 7 77 12 77 6 0 10 -39 10 -90 
0 -82 -2 -90 -19 -90 -14 0 -31 22 -61 78 -39 74 -41 76 -56 57 -9 -11 -29 -46 -45 -77 
-21 -42 -36 -59 -52 -60 -21 -3 -22 1 -25 70 z" fill="rgb(65, 117, 98)"/>
<path d="M7151 5721l-1 -6 c0 -3 -2 -5 -5 -5 -3 0 -35 -1 -72 -3 l-67 -3 0 -30 -1 -29 73 -3 
c39 -2 72 -7 72 -12 0 -5 -33 -10 -72 -12 -70 -3 -73 -4 -73 -28 0 -24 3 -25 73 -28 
39 -2 72 -7 72 -12 0 -6 -38 -10 -85 -10 l-85 0 0 90 0 90 85 0 86 1 z" fill="rgb(70, 119, 106)"/>
<path d="M7250 5629c0 50 4 93 10 96 5 3 12 -4 15 -17 3 -13 6 -50 7 -83 l3 -60 55 70 
c30 39 62 74 72 79 9 5 23 7 30 5 10 -3 12 -26 10 -91 -2 -49 -8 -88 -13 -88 
-5 0 -9 34 -9 75 0 41 -4 75 -9 75 -6 0 -36 -34 -68 -75 -42 -55 -64 -75 -80 -75 
-22 0 -23 3 -23 89 z" fill="rgb(65, 117, 98)"/>
<path d="M7540 5549c0 6 19 11 42 13 l43 3 3 78 c2 42 7 77 12 77 5 0 10 -35 12 -77 
l3 -78 38 -2 c20 -2 42 -7 49 -13 8 -7 -22 -10 -95 -10 -60 0 -107 4 -107 9 
z" fill="rgb(65, 117, 98)"/>
<path d="M2744 5542l-2 88 c-1 49 2 91 7 95 5 3 13 -4 16 -16 4 -11 4 -23 1 -27 l-6 -6 
-4 19 c-2 11 -5 -19 -8 -67 l-4 -86 z" fill="rgb(83, 127, 118)"/>
<path d="M3763 5716l16 -73 6 -76 c-3 -3 -5 -4 -6 -4 -5 -2 -9 33 -9 77 0 37 -3 66 -7 76 
z" fill="rgb(148, 182, 171)"/>
<path d="M3507 5605c-9 20 -17 40 -17 45 0 6 23 10 50 10 28 0 50 -2 50 -5 0 -3 -9 -24 -20 -45 
-11 -22 -26 -40 -33 -40 -7 0 -21 16 -30 35 z" fill="rgb(226, 236, 231)"/>
<path d="M4773 5716l17 -68 6 -72 c-3 -4 -6 -6 -8 -6 -4 0 -8 34 -8 75 0 34 -3 61 -7 71 
z" fill="rgb(148, 182, 171)"/>
<path d="M5191 5609c-10 22 -16 42 -13 45 3 4 24 6 47 6 23 0 44 -2 47 -6 3 -3 -3 -23 -13 -45 
-11 -21 -26 -39 -34 -39 -8 0 -23 18 -34 39 z" fill="rgb(226, 236, 231)"/>
<path d="M5801 5609c-12 22 -21 43 -21 46 0 3 23 5 50 5 28 0 50 -3 50 -6 0 -4 -10 -23 -22 -43 
-12 -20 -25 -37 -30 -39 -4 -2 -16 15 -27 37 z" fill="rgb(226, 236, 231)"/>
<path d="M7151 5721l4 -4 c3 -2 2 -7 -2 -10 -3 -4 -38 -6 -77 -5 l-70 2 67 3 c37 2 69 3 72 3 
3 0 5 2 5 5 l1 6 z" fill="rgb(108, 151, 140)"/>
</g>
</svg>
