<?xml version="1.0" encoding="UTF-8" standalone="no"?><!DOCTYPE svg PUBLIC "-//W3C//DTD SVG 20010904//EN"
 "http://www.w3.org/Graphics/SVG/1.1/DTD/svg11.dtd">
<svg version="1.1" baseProfile="full" xmlns="http://www.w3.org/2000/svg"
 width="1024pt" height="1024pt" viewBox="0 0 1024 1024" preserveAspectRatio="xMidYMid meet">
<g id="svg" fill="black" stroke="none" stroke-linecap="round" transform="scale(0.1,0.1)">
<path d="M0 5120l0 5120 5120 0 5120 0 0 -5120 0 -5120 -5120 0 -5120 0 0 5120 z" fill="rgb(233, 254, 247)"/>
<path d="M5124 4350c244 239 418 407 425 409 l16 4 298 -294 c404 -398 757 -748 784 -778 
l49 -54 91 94 c50 52 94 92 96 89 3 -3 47 -236 98 -518 51 -281 89 -515 85 -519 
-4 -4 -228 47 -498 114 -270 67 -493 125 -496 128 -3 3 38 49 91 103 l97 97 -568 562 
-568 563 z" fill="rgb(72, 199, 1)"/>
<path d="M5124 4350c-85 -84 -180 -177 -278 -274 -378 -373 -688 -677 -690 -675 -2 2 -179 178 -417 414 
l388 385 c11 11 23 22 34 34 212 210 501 497 661 655 l306 304 437 -430 
-16 -4 c-7 -2 -181 -170 -425 -409 z" fill="rgb(48, 125, 0)"/>
<path d="M3739 3815c-48 47 -98 97 -149 148 -314 311 -560 563 -557 570 3 7 95 100 205 206 
111 106 205 191 210 189 5 -1 167 -158 360 -348 l11 -10 107 -106 235 -230 
c-11 -12 -23 -23 -34 -34 l-388 -385 z" fill="rgb(72, 199, 1)"/>
<path d="M6658 3948l6 1 c3 1 6 -2 6 -6 0 -3 1 -4 3 -2 1 2 3 49 4 104 0 13 0 48 1 100 
0 56 1 131 2 220 l9 -217 c1 -139 -3 -218 -9 -218 -1 0 -9 6 -22 18 zm0 0 c-22 21 -61 59 -111 108 l12 8 c6 4 11 1 11 -6 0 -7 19 -32 42 -55 23 -24 43 -43 45 -43 
2 0 3 -3 2 -6 l-1 -6 z" fill="rgb(59, 103, 107)"/>
<path d="M6658 3948l1 6 c1 3 0 6 -2 6 -2 0 -22 19 -45 43 -23 23 -42 48 -42 55 0 7 -5 10 -11 6 
l-12 -8 c-65 64 -148 146 -237 236 l-360 362 0 598 0 598 371 -2 371 -3 
-7 -7 c0 0 -1 -5 -2 -14 l-10 -214 c0 -71 1 -158 3 -235 1 -51 2 -97 3 -130 
l7 -147 -1 -92 0 -1 -9 -6 c-2 -2 -4 -102 -5 -244 0 0 0 0 0 0 -1 -56 -1 -120 -1 -186 
l8 -424 c-1 -52 -1 -87 -1 -100 -1 -55 -3 -102 -4 -104 -2 -2 -3 -1 -3 2 
0 4 -3 7 -6 6 l-6 -1 z" fill="rgb(6, 63, 67)"/>
<path d="M6678 4145l-8 424 c0 66 0 130 1 186 l9 -185 0 -185 c0 -7 0 -13 0 -20 -1 -89 -2 -164 -2 -220 
z" fill="rgb(4, 55, 63)"/>
<path d="M6685 5006l0 -11 c-2 -225 -4 -441 -5 -610 l0 185 -9 185 c0 0 0 0 0 0 l6 60 
c2 33 4 92 6 130 l2 60 0 1 z" fill="rgb(68, 120, 121)"/>
<path d="M3819 4570l5 0 c3 0 6 -1 6 -2 1 -2 23 -25 49 -53 l47 -51 -107 106 z" fill="rgb(166, 244, 146)"/>
<path d="M3990 4666l0 7 c0 4 -1 7 -3 7 -1 0 -33 30 -70 68 -37 37 -67 76 -68 87 0 11 -3 14 -6 7 
-2 -6 -9 -10 -14 -7 l-11 3 2 7 c0 3 -1 5 -3 5 -1 0 -16 12 -32 28 l-33 25 
0 0 -172 171 0 386 0 385 143 0 137 0 88 0 179 0 5 0 c2 -3 44 -5 91 -5 
l86 0 3 -127 4 -128 2 -333 2 -593 -82 -79 -82 -79 -166 165 z" fill="rgb(6, 63, 67)"/>
<path d="M3990 4666l-122 122 -50 50 11 -3 c5 -3 12 1 14 7 3 7 6 4 6 -7 1 -11 31 -50 68 -87 
37 -38 69 -68 70 -68 2 0 3 -3 3 -7 l0 -7 zm-238 237 l0 0 0 0 zm66 -65 l-66 65 33 -25 c16 -16 31 -28 32 -28 2 0 3 -2 3 -5 l-2 -7 z" fill="rgb(68, 120, 121)"/>
<path d="M6685 5005l-2 -60 c-2 -38 -4 -97 -6 -130 l-6 -60 c1 142 3 242 5 244 l9 6 
z" fill="rgb(4, 55, 63)"/>
<path d="M6692 5845l-6 -747 -7 147 c-1 33 -2 79 -3 130 l2 1 c1 1 2 104 2 229 -1 99 1 186 3 219 
1 9 2 14 2 14 l7 7 z" fill="rgb(68, 120, 121)"/>
<path d="M6683 5824c-2 -33 -4 -120 -3 -219 0 -125 -1 -228 -2 -229 l-2 -1 c-2 77 -3 164 -3 235 
l10 214 z" fill="rgb(4, 55, 63)"/>
<path d="M4127 5845l188 0 1 -260 -4 128 -3 127 -86 0 c-47 0 -89 2 -91 5 l-5 0 z" fill="rgb(44, 102, 104)"/>
<path d="M3580 5845l0 0 280 0 -137 0 -143 0 z" fill="rgb(31, 86, 89)"/>
<path d="M4064 6321c-57 28 -74 43 -104 89 -33 52 -35 60 -35 140 0 80 2 88 35 140 
25 37 52 64 88 84 44 26 65 31 130 34 72 4 81 2 137 -30 44 -24 69 -47 95 -86 
31 -47 35 -62 38 -130 3 -69 1 -83 -25 -132 -22 -44 -41 -63 -89 -94 -52 -33 -72 -39 -131 -43 
-64 -5 -75 -3 -139 28 z" fill="rgb(6, 63, 67)"/>
<path d="M3690 6530l0 -5 c0 -3 2 -5 5 -5 3 0 5 -4 5 -10 0 -5 5 -10 10 -10 6 0 9 56 8 153 
l-2 152 42 3 42 3 0 -256 0 -256 -37 3 c-36 3 -38 6 -124 151 -48 82 -91 153 -96 158 
-7 7 -43 -47 -104 -150 l-93 -161 -38 0 -38 0 2 253 3 252 37 3 c37 3 37 3 44 -44 
4 -26 4 -94 1 -151 -4 -73 -2 -103 5 -101 6 2 38 49 71 103 32 55 66 108 75 118 
8 9 23 17 33 17 13 0 39 -35 83 -110 l66 -110 z" fill="rgb(6, 63, 67)"/>
<path d="M4990 6794l0 -231 c0 -127 3 -238 6 -247 0 0 0 0 0 0 5 -13 -2 -16 -40 -16 
l-46 0 0 165 c0 91 -3 164 -7 163 -5 -2 -68 -76 -141 -165 -117 -144 -136 -163 -162 -163 
l-30 0 0 250 0 250 40 0 40 0 0 -160 c0 -88 4 -160 8 -160 5 0 51 53 103 118 
52 64 113 138 137 164 36 38 47 45 67 39 l25 -6 0 -1 z" fill="rgb(6, 63, 67)"/>
<path d="M5140 6555l0 255 175 0 175 0 0 -40 0 -39 -132 -3 -133 -3 -3 -67 -3 -68 111 0 
110 0 0 -40 0 -40 -110 0 -110 0 0 -65 0 -64 133 -3 132 -3 3 -37 3 -38 -175 0 
-176 0 0 255 z" fill="rgb(6, 63, 67)"/>
<path d="M5651 6552c89 216 107 254 127 257 12 2 32 2 45 0 19 -3 38 -42 127 -249 
58 -135 107 -249 109 -253 1 -5 -19 -7 -45 -5 l-48 3 -37 85 c-20 47 -56 129 -79 183 
-23 55 -44 97 -47 95 -3 -1 -40 -84 -82 -183 l-76 -180 -49 -3 -49 -3 104 253 
z" fill="rgb(6, 63, 67)"/>
<path d="M6140 6548l0 250 23 4 c13 3 31 4 40 2 15 -2 17 -27 17 -243 0 -133 0 -243 0 -246 
0 -3 -18 -8 -40 -11 l-40 -5 0 249 z" fill="rgb(6, 63, 67)"/>
<path d="M6310 6339l0 40 83 3 82 3 3 213 2 213 38 -3 37 -3 3 -212 2 -212 83 -3 82 -3 0 -35 
0 -35 -207 -3 -208 -2 0 39 z" fill="rgb(6, 63, 67)"/>
<path d="M6770 6311c0 5 39 74 88 152 l87 142 5 100 5 100 40 0 40 0 5 -100 5 -100 93 -147 
c50 -81 92 -150 92 -153 0 -4 -21 -5 -47 -3 l-48 3 -62 108 c-35 59 -67 107 -72 107 
-6 0 -40 -49 -76 -110 l-66 -110 -45 0 c-24 0 -44 5 -44 11 z" fill="rgb(6, 63, 67)"/>
<path d="M4990 6794l7 -240 -1 -238 c-3 9 -6 120 -6 247 l0 231 z" fill="rgb(80, 140, 138)"/>
<path d="M4110 6389c-22 11 -54 39 -71 62 -28 39 -30 47 -27 108 3 63 5 68 49 113 
38 40 53 49 93 54 27 4 64 2 86 -5 22 -6 55 -28 74 -47 22 -23 38 -52 45 -82 
7 -31 8 -61 1 -87 -6 -26 -23 -53 -49 -77 -23 -21 -53 -42 -67 -48 -14 -5 -41 -10 -60 -10 
-19 0 -52 9 -74 19 z" fill="rgb(233, 254, 247)"/>
<path d="M3690 6530l5 0 c3 0 6 -3 7 -7 1 -5 5 57 8 137 l6 145 2 -152 c1 -97 -2 -153 -8 -153 
-5 0 -10 5 -10 10 0 6 -2 10 -5 10 -3 0 -5 2 -5 5 l0 5 z" fill="rgb(141, 187, 183)"/>
<path d="M3200 7144c0 36 4 67 9 70 5 3 11 -8 13 -24 4 -26 9 -30 36 -30 21 0 29 -3 22 -10 
-5 -5 -22 -10 -36 -10 -21 0 -25 -4 -22 -22 2 -19 9 -23 36 -23 17 0 32 -3 32 -7 
0 -5 -20 -8 -45 -8 l-45 0 0 64 z" fill="rgb(73, 102, 105)"/>
<path d="M3335 7139c-5 42 -3 67 5 75 8 8 10 -8 6 -64 l-5 -75 -6 64 z" fill="rgb(74, 105, 102)"/>
<path d="M3508 7195c-1 -3 -2 -5 -3 -6 -1 -1 -6 -5 -12 -12 -7 -7 -15 -16 -24 -27 
-6 -6 -12 -13 -19 -20 l-4 -4 -45 -51 -1 73 c0 51 3 71 11 66 7 -4 9 -21 5 -45 
-3 -21 -2 -40 3 -44 6 -3 28 18 50 47 22 29 41 46 41 37 0 -5 -1 -10 -2 -14 
z" fill="rgb(61, 89, 90)"/>
<path d="M3469 7150l1 -5 c0 -3 -1 -5 -3 -5 -2 0 -7 -3 -12 -7 l-9 -7 4 4 c7 7 13 14 19 20 
zm24 27 l5 -52 3 -50 -6 43 c-4 23 -11 40 -16 37 l-10 -5 c9 11 17 20 24 27 
z" fill="rgb(160, 188, 185)"/>
<path d="M3508 7195l-2 -61 -5 -59 -3 50 -5 52 c6 7 11 11 12 12 1 1 2 3 3 6 z" fill="rgb(36, 59, 62)"/>
<path d="M3637 7118c-9 -16 -19 -28 -22 -28 -3 0 -19 25 -36 55 -18 31 -29 59 -25 63 
4 4 12 -1 17 -11 7 -11 22 -17 45 -17 22 0 37 6 40 15 4 8 10 15 15 15 5 0 3 -15 -4 -32 
-7 -18 -21 -45 -30 -60 z" fill="rgb(61, 89, 90)"/>
<path d="M3717 7095c-3 11 -2 45 2 75 l9 55 1 -52 c0 -29 5 -52 10 -50 4 1 23 21 41 45 
18 23 36 42 41 42 5 0 8 -30 7 -67 -1 -44 -3 -54 -5 -28 -2 22 -6 46 -8 53 
-3 8 -22 -8 -48 -40 -38 -46 -45 -50 -50 -33 z" fill="rgb(49, 75, 85)"/>
<path d="M3887 7098c-10 10 -17 33 -17 50 0 19 8 39 22 52 12 11 31 20 43 20 12 0 29 -7 38 -15 
15 -14 13 -14 -21 -9 -30 5 -41 2 -56 -15 -13 -14 -16 -28 -12 -46 4 -15 17 -30 31 -35 
16 -6 34 -6 50 0 14 5 25 6 25 1 0 -5 -7 -12 -16 -15 -9 -3 -28 -6 -43 -6 
-15 0 -35 8 -44 18 z" fill="rgb(61, 93, 103)"/>
<path d="M4032 7148l3 67 34 3 c18 2 40 0 50 -5 11 -6 3 -9 -29 -13 -37 -4 -45 -9 -45 -25 
0 -15 8 -21 35 -25 l35 -5 -39 -6 c-28 -4 -38 -9 -34 -20 2 -8 20 -15 41 -17 
20 -2 37 -7 37 -13 0 -5 -20 -9 -45 -9 l-46 0 3 68 z" fill="rgb(61, 93, 103)"/>
<path d="M4222 7142c-1 37 3 70 8 73 6 4 10 -14 10 -47 l1 -53 23 38 c12 20 28 37 35 37 
6 0 20 -14 30 -30 10 -16 21 -30 24 -30 3 0 8 24 10 53 2 39 4 32 5 -28 
1 -77 1 -79 -16 -59 -9 11 -25 33 -35 50 -17 28 -18 28 -31 9 -7 -11 -24 -33 -38 -50 
l-24 -30 -2 67 z" fill="rgb(61, 93, 103)"/>
<path d="M4430 7145c-10 22 -19 47 -19 55 0 12 2 11 13 -2 8 -11 26 -18 46 -18 20 0 38 7 46 18 
11 14 13 14 14 2 0 -8 -11 -39 -25 -67 -13 -29 -29 -53 -35 -53 -6 0 -13 6 -16 13 
-3 6 -14 30 -24 52 z" fill="rgb(52, 80, 95)"/>
<path d="M4573 7150c1 55 2 61 4 23 2 -29 7 -53 11 -53 4 0 28 24 54 53 l47 52 -1 -75 
c-1 -61 -2 -65 -5 -22 -2 28 -7 51 -11 50 -4 -2 -28 -25 -53 -53 l-46 -50 0 75 
z" fill="rgb(52, 80, 95)"/>
<path d="M4754 7140c-14 34 -22 65 -19 69 4 3 11 -2 16 -12 7 -11 22 -17 44 -17 22 0 37 6 44 17 
5 10 12 15 16 12 3 -4 -5 -32 -19 -63 -14 -31 -32 -59 -41 -62 -12 -5 -22 9 -41 56 
z" fill="rgb(61, 93, 103)"/>
<path d="M4901 7106c-11 15 -21 37 -21 50 0 12 12 32 26 43 15 12 37 21 50 21 12 0 30 -7 38 -16 
9 -8 16 -24 16 -35 0 -10 -4 -19 -9 -19 -5 0 -11 12 -14 26 -4 22 -9 25 -38 22 
-24 -2 -37 -10 -46 -27 -8 -17 -9 -31 -2 -43 5 -9 19 -23 30 -29 16 -8 28 -8 46 0 
19 9 24 9 21 -1 -3 -7 -21 -14 -40 -16 -29 -2 -40 2 -57 24 z" fill="rgb(59, 103, 107)"/>
<path d="M5050 7144c0 36 5 67 10 70 6 3 27 3 48 -1 l37 -8 -43 -3 c-38 -3 -43 -6 -40 -25 
2 -17 11 -23 36 -24 17 -2 35 -4 40 -5 4 -2 -11 -5 -33 -8 -27 -3 -40 -10 -40 -20 
0 -10 12 -16 37 -18 21 -2 38 -7 38 -13 0 -5 -20 -9 -45 -9 l-45 0 0 64 
z" fill="rgb(59, 103, 107)"/>
<path d="M5186 7200c1 0 2 -13 4 -35 l5 -50 7 11 16 27 c12 20 26 37 31 37 5 0 16 -11 25 -25 
9 -14 21 -25 26 -25 6 0 10 18 10 41 0 24 4 38 10 34 6 -3 10 -25 9 -48 
-1 -23 -4 -53 -8 -66 -6 -23 -7 -22 -34 18 -15 22 -31 41 -37 41 -5 0 -19 -18 -31 -40 
-13 -22 -27 -40 -31 -40 -5 0 -7 30 -6 68 2 35 3 52 4 52 z" fill="rgb(59, 103, 107)"/>
<path d="M5380 7210l5 0 c3 0 5 -2 5 -5 0 -3 -2 -5 -5 -5 -6 0 -7 -9 -2 -33 l4 -17 
39 -3 39 -2 -37 -3 c-30 -3 -38 -7 -38 -23 0 -15 7 -19 35 -19 19 0 35 -4 35 -10 
0 -5 -20 -10 -45 -10 l-45 0 0 58 c0 32 2 62 5 65 l5 7 z" fill="rgb(61, 93, 103)"/>
<path d="M5509 7142c-2 37 0 70 4 74 4 4 7 -16 7 -44 0 -29 4 -51 8 -49 5 1 24 21 43 45 
19 23 40 42 46 42 9 0 13 -18 13 -59 0 -33 -4 -63 -10 -66 -6 -4 -10 12 -10 39 
0 25 -2 46 -5 46 -3 0 -25 -21 -49 -47 l-44 -48 -3 67 z" fill="rgb(61, 93, 103)"/>
<path d="M5703 7100l3 22 c2 13 5 39 7 58 l4 36 1 -58 c2 -50 5 -58 21 -58 11 0 23 -4 26 -10 
4 -6 -15 -10 -49 -10 -31 0 -56 5 -56 10 0 6 10 10 22 10 l21 0 z" fill="rgb(55, 92, 106)"/>
<path d="M5869 7211c1 1 1 1 1 1 2 2 6 4 11 5 6 2 13 3 19 3 9 0 13 0 14 -2 0 -1 -3 -3 -11 -7 
l-16 -10 -4 -4 c0 0 0 -1 -1 -3 l-7 -49 1 -50 33 2 c18 0 41 9 52 19 10 9 19 25 19 34 
0 9 -8 24 -18 33 -9 9 -23 15 -32 17 l0 5 c0 3 2 5 5 5 0 0 1 0 1 0 5 -1 17 -5 29 -10 
16 -6 25 -18 26 -32 1 -13 1 -30 0 -38 -1 -8 -11 -23 -23 -32 -12 -11 -37 -18 -64 -18 
l-44 0 0 62 c0 33 4 63 9 69 z" fill="rgb(37, 86, 96)"/>
<path d="M6041 7143c-12 32 -20 61 -17 64 3 3 8 -2 12 -11 4 -11 18 -16 41 -16 22 0 41 7 49 18 
13 16 13 16 14 -1 0 -10 -11 -40 -25 -67 -14 -28 -31 -49 -38 -47 -7 1 -23 28 -36 60 
z" fill="rgb(59, 103, 107)"/>
<path d="M6180 7099c-5 11 -10 22 -10 24 0 3 21 17 46 31 25 14 43 30 39 36 -3 5 -19 10 -34 10 
-15 0 -32 -5 -39 -12 -9 -9 -12 -8 -12 5 0 11 12 18 36 23 29 5 40 2 57 -15 
14 -14 18 -24 11 -31 -6 -6 -27 -19 -47 -29 -28 -14 -36 -23 -31 -36 5 -13 15 -16 41 -12 
20 4 31 2 28 -4 -4 -5 -22 -9 -40 -9 -24 0 -38 6 -45 19 z" fill="rgb(59, 103, 107)"/>
<path d="M6311 7149c0 41 2 71 6 67 4 -4 7 -19 8 -34 0 -25 3 -27 40 -27 38 0 40 2 43 33 
2 18 6 31 10 30 4 -2 5 -34 3 -73 -3 -58 -5 -64 -11 -37 -7 28 -12 32 -39 32 
-17 0 -35 -3 -40 -7 -5 -5 -11 -19 -14 -33 -2 -14 -5 8 -6 49 z" fill="rgb(40, 78, 90)"/>
<path d="M6470 7144c0 49 4 65 16 70 9 3 26 6 38 6 12 0 30 -6 41 -13 17 -10 19 -19 14 -58 
-3 -25 -9 -51 -13 -57 -4 -7 -27 -12 -52 -12 l-44 0 0 64 z" fill="rgb(59, 103, 107)"/>
<path d="M6636 7096c-9 9 -16 32 -16 54 0 29 6 43 22 54 12 9 32 16 44 16 12 0 33 -9 48 -21 
17 -14 26 -30 26 -50 0 -16 -9 -38 -20 -49 -12 -12 -33 -20 -54 -20 -19 0 -42 7 -50 16 
z" fill="rgb(59, 103, 107)"/>
<path d="M6810 7142c-16 34 -27 64 -24 67 3 3 10 -2 15 -12 7 -11 22 -17 49 -17 27 0 42 6 49 17 
5 10 12 15 16 11 3 -3 -8 -33 -24 -67 -17 -34 -36 -61 -41 -61 -6 0 -24 28 -40 62 
z" fill="rgb(61, 93, 103)"/>
<path d="M6950 7145c0 37 4 65 10 65 6 0 10 -9 10 -20 0 -14 7 -20 23 -20 12 0 28 9 35 20 
7 11 17 20 22 20 7 0 7 -6 1 -18 -6 -11 -5 -28 2 -48 9 -25 9 -35 -2 -48 
-9 -10 -29 -16 -57 -16 l-44 0 0 65 z" fill="rgb(59, 103, 107)"/>
<path d="M7105 7148l0 67 49 -1 c38 0 53 -5 67 -23 11 -13 19 -31 19 -41 0 -9 -9 -29 -21 -44 
-17 -21 -28 -26 -67 -26 l-47 0 0 68 z" fill="rgb(54, 101, 98)"/>
<path d="M5887 7201l11 0 c7 -1 20 -1 29 -1 1 0 2 0 3 0 9 -2 23 -8 32 -17 10 -9 18 -24 18 -33 
0 -9 -9 -25 -19 -34 -11 -10 -34 -19 -52 -19 l-33 -2 2 49 c1 22 3 42 4 50 
1 2 1 3 1 3 l4 4 z" fill="rgb(233, 254, 247)"/>
<path d="M6500 7096c-5 3 -10 14 -10 25 0 14 7 19 29 19 17 0 32 -4 35 -9 4 -5 3 -16 0 -25 
-3 -9 -15 -16 -25 -16 -10 0 -23 3 -29 6 z" fill="rgb(233, 254, 247)"/>
<path d="M6653 7103c-13 10 -23 28 -23 39 0 12 7 30 17 40 9 10 28 18 43 18 15 0 33 -6 39 -14 
7 -8 11 -27 9 -43 -2 -19 -12 -33 -33 -43 -27 -14 -32 -13 -52 3 z" fill="rgb(239, 252, 249)"/>
<path d="M6970 7121c0 29 2 30 37 27 20 -2 38 -8 40 -14 2 -7 -3 -19 -12 -28 -9 -9 -27 -16 -41 -16 
-20 0 -24 5 -24 31 z" fill="rgb(233, 254, 247)"/>
<path d="M7122 7143l-4 57 39 0 c32 0 42 -5 53 -25 10 -19 11 -31 2 -49 -8 -17 -23 -27 -49 -33 
l-38 -8 -3 58 z" fill="rgb(233, 254, 247)"/>
<path d="M5703 7100l-1 55 c-1 30 2 56 6 58 l9 3 -4 -36 c-2 -19 -5 -45 -7 -58 l-3 -22 
z" fill="rgb(81, 123, 133)"/>
<path d="M5882 7194c-1 -8 -3 -28 -4 -50 l-2 -49 -1 50 7 49 z" fill="rgb(80, 140, 138)"/>
<path d="M3634 7132c-8 -12 -19 -22 -23 -22 -4 0 -13 11 -19 24 -6 13 -8 27 -5 30 
4 3 17 6 29 6 13 0 25 -4 28 -8 3 -5 -2 -18 -10 -30 z" fill="rgb(197, 219, 216)"/>
<path d="M4445 7140c-6 28 -5 30 24 30 18 0 31 -5 31 -12 0 -7 -7 -21 -14 -30 -7 -10 -18 -18 -24 -18 
-6 0 -13 14 -17 30 z" fill="rgb(197, 219, 216)"/>
<path d="M4776 7138c-7 30 -6 32 18 32 13 0 28 -4 31 -10 3 -5 -5 -20 -18 -32 l-23 -23 -8 33 
z" fill="rgb(197, 219, 216)"/>
<path d="M5186 7200l10 -30 6 -44 -7 -11 -5 50 c-2 22 -3 35 -4 35 z" fill="rgb(139, 180, 183)"/>
<path d="M6062 7134c-10 22 -9 28 3 32 8 4 22 4 30 0 8 -3 15 -9 15 -14 0 -5 -8 -17 -18 -27 
-17 -18 -18 -18 -30 9 z" fill="rgb(213, 237, 229)"/>
<path d="M6832 7129c-9 15 -10 27 -4 33 5 5 18 8 28 6 11 -1 18 -10 16 -18 -2 -8 -8 -22 -15 -30 
-10 -13 -14 -12 -25 9 z" fill="rgb(197, 219, 216)"/>
<path d="M5380 7210l2 3 c2 1 20 3 41 5 22 2 37 -1 37 -7 0 -6 -2 -11 -5 -11 -3 0 -18 0 -35 0 
-25 0 -30 -4 -32 -25 l-1 -25 -4 17 c-5 24 -4 33 2 33 3 0 5 2 5 5 0 3 -2 5 -5 5 
l-5 0 z" fill="rgb(99, 134, 140)"/>
<path d="M6490 7177c0 20 5 23 34 23 19 0 38 -5 41 -10 4 -6 1 -17 -5 -25 -7 -9 -25 -14 -41 -13 
-23 2 -29 7 -29 25 z" fill="rgb(239, 252, 249)"/>
<path d="M5914 7218l15 0 7 -8 c0 0 -1 0 -1 0 -3 0 -5 -2 -5 -5 l0 -5 c-1 0 -2 0 -3 0 
-9 0 -22 0 -29 1 l-11 0 16 10 c8 4 11 6 11 7 z" fill="rgb(80, 140, 138)"/>
<path d="M5869 7211l4 7 8 -1 c-5 -1 -9 -3 -11 -5 0 0 0 0 -1 -1 z" fill="rgb(80, 140, 138)"/>
</g>
</svg>
