<?xml version="1.0" encoding="UTF-8" standalone="no"?><!DOCTYPE svg PUBLIC "-//W3C//DTD SVG 20010904//EN"
 "http://www.w3.org/Graphics/SVG/1.1/DTD/svg11.dtd">
<svg version="1.1" baseProfile="full" xmlns="http://www.w3.org/2000/svg"
 width="1024pt" height="1024pt" viewBox="0 0 1024 1024" preserveAspectRatio="xMidYMid meet">
<g id="svg" fill="black" stroke="none" stroke-linecap="round" transform="scale(0.1,0.1)">
<path d="M0 5120l0 5120 5120 0 5120 0 0 -5120 0 -5120 -5120 0 -5120 0 0 5120 z" fill="rgb(232, 232, 232)"/>
<path d="M3613 4405l-153 80 48 25 c26 14 48 25 49 26 2 0 -80 134 -181 298 l-183 297 -60 -98 
c-33 -54 -84 -138 -113 -188 -29 -49 -56 -90 -59 -90 -3 0 -86 133 -184 295 
l-178 295 3 77 c2 42 6 79 10 83 4 4 12 4 19 -1 7 -4 82 -116 166 -248 85 -133 158 -242 162 -244 
4 -1 59 74 121 168 62 94 117 169 123 167 5 -1 106 -160 223 -352 117 -191 215 -353 217 -359 
2 -6 17 5 34 24 l30 33 35 -179 c20 -98 33 -181 29 -184 -3 -3 -75 31 -158 75 
z" fill="rgb(12, 134, 92)"/>
<path d="M3002 4474c-33 8 -82 26 -110 40 -29 14 -77 44 -107 67 -30 23 -75 70 -100 106 
-28 40 -57 99 -76 153 -23 71 -29 105 -29 176 0 49 6 109 13 133 l13 44 58 -94 
c44 -72 61 -110 71 -162 8 -38 29 -95 49 -132 25 -45 53 -79 93 -110 31 -25 83 -54 115 -65 
35 -12 84 -20 122 -20 36 0 88 7 117 15 28 8 71 29 96 45 24 17 46 30 47 30 
2 0 20 -27 39 -60 l36 -60 -22 -20 c-12 -12 -45 -32 -74 -45 -28 -14 -79 -32 -112 -40 
-34 -8 -88 -15 -121 -15 -33 0 -86 6 -118 14 z" fill="rgb(12, 134, 92)"/>
<path d="M1604 5455l-2 -230 c-1 -126 1 -225 6 -219 l7 9 121 225 121 225 69 0 c68 0 69 0 90 -35 
12 -19 70 -127 130 -240 45 -85 71 -134 87 -160 22 -36 23 -26 24 0 l-4 45 
c3 42 5 105 7 175 l5 215 71 9 c39 5 83 6 98 2 16 -4 30 -15 32 -25 l5 -18 
-1 -225 c0 -104 2 -258 5 -373 0 -22 1 -43 2 -61 4 -155 3 -215 -6 -232 
-11 -22 -17 -23 -109 -20 l-97 3 -165 305 c-90 168 -167 306 -170 308 -3 1 -75 -130 -160 -290 
-84 -161 -160 -301 -168 -310 -12 -15 -32 -18 -102 -18 -53 0 -91 5 -98 12 
-9 9 -12 127 -12 470 l0 458 26 10 c14 6 52 10 85 10 32 0 69 -6 81 -13 
l22 -12 z"/>
<path d="M3810 4535c-9 10 -13 130 -17 452 -5 329 -3 444 6 461 11 20 19 22 99 22 
55 0 92 -4 100 -12 9 -9 12 -84 12 -276 0 -245 1 -263 17 -251 9 8 108 130 221 272 
163 207 210 261 235 268 18 5 52 9 77 9 25 0 56 -7 68 -16 l22 -15 0 -453 
c0 -338 -3 -455 -12 -464 -7 -7 -44 -12 -94 -12 -62 0 -87 4 -98 16 -14 13 -16 54 -16 287 
l0 272 -20 -25 c-11 -14 -113 -143 -227 -287 l-207 -263 -77 0 c-55 0 -80 4 -89 15 
z"/>
<path d="M4812 4532c-9 9 -12 127 -12 470 0 442 1 458 19 468 13 6 142 10 351 10 209 0 338 -4 351 -10 
16 -9 19 -22 19 -83 0 -44 -5 -78 -12 -85 -9 -9 -82 -12 -265 -12 l-254 0 3 -97 
3 -98 219 -3 c145 -1 224 -6 233 -14 10 -8 13 -33 11 -92 l-3 -81 -230 -5 
-230 -5 -3 -30 c-2 -16 -1 -58 3 -92 l7 -63 244 0 c134 0 248 -3 253 -7 
4 -5 11 -39 14 -78 3 -38 1 -78 -4 -87 -9 -17 -36 -18 -357 -18 -257 0 -351 3 -360 12 
z"/>
<path d="M5639 4538c-10 15 12 76 124 348 74 181 159 386 189 457 l55 127 101 0 c94 0 103 -2 116 -22 
8 -13 99 -216 201 -452 102 -237 185 -439 183 -450 -3 -19 -11 -21 -99 -24 
-80 -2 -99 0 -117 15 -13 11 -67 136 -143 328 -66 171 -124 314 -129 318 
-4 5 -37 -67 -73 -160 -36 -92 -93 -239 -127 -325 -39 -101 -67 -161 -80 -168 
-10 -5 -57 -10 -104 -10 -72 0 -88 3 -97 18 z"/>
<path d="M6722 4532c-9 9 -12 127 -12 470 0 456 0 457 21 469 13 6 52 10 96 7 60 -3 78 -7 89 -23 
12 -15 14 -97 14 -458 0 -283 -4 -445 -10 -458 -9 -17 -22 -19 -98 -19 -55 0 -92 4 -100 12 
z"/>
<path d="M7032 4532c-7 7 -12 41 -12 83 0 42 5 76 12 83 8 8 56 12 150 12 l138 0 0 375 
0 375 26 10 c14 6 53 10 87 10 40 0 70 -6 85 -16 l22 -15 0 -370 0 -369 140 0 
c137 0 140 0 145 -23 3 -12 5 -54 3 -92 l-3 -70 -390 -3 c-296 -2 -394 1 -403 10 
z"/>
<path d="M7904 4535c-4 10 60 115 172 283 l179 267 5 190 5 190 82 9 c70 8 85 7 107 -8 
l26 -16 0 -183 0 -183 185 -265 c102 -145 185 -272 185 -282 0 -16 -11 -17 -122 -15 
l-123 3 -115 180 c-63 99 -117 180 -120 180 -3 0 -37 -54 -77 -120 -40 -66 -90 -148 -112 -182 
l-39 -63 -116 0 c-95 0 -118 3 -122 15 z"/>
<path d="M3579 4875c-41 61 -47 79 -52 140 -4 42 -17 93 -32 129 -17 37 -48 81 -83 116 
-41 41 -77 65 -127 86 -58 24 -82 29 -137 27 -38 -2 -89 -10 -114 -19 -25 -8 -71 -33 -102 -55 
-42 -30 -58 -36 -64 -27 -4 7 -22 35 -39 61 l-32 48 24 25 c13 14 56 41 95 61 
55 27 94 38 165 46 86 11 102 10 183 -10 58 -14 114 -36 158 -63 42 -25 89 -64 121 -103 
33 -38 66 -92 86 -139 24 -57 33 -98 38 -161 4 -64 1 -104 -12 -161 -10 -42 -21 -75 -24 -73 
-3 1 -27 34 -52 72 z" fill="rgb(12, 134, 92)"/>
<path d="M2471 5433l5 -5 c2 -3 4 -138 3 -299 l-4 -294 c-3 115 -5 269 -5 373 l1 225 
z" fill="rgb(135, 135, 137)"/>
<path d="M2233 5030l2 0 c3 0 5 -3 5 -7 0 -3 3 -2 8 3 1 2 3 20 5 49 l4 -45 c-1 -26 -2 -36 -24 0 
z" fill="rgb(169, 168, 167)"/>
<path d="M1604 5455l6 -220 5 -220 -7 -9 c-5 -6 -7 93 -6 219 l2 230 z" fill="rgb(169, 168, 167)"/>
<path d="M8688 5340c-26 27 -30 36 -25 68 4 20 16 45 28 55 12 9 35 17 51 17 20 0 40 -10 60 -30 
26 -27 30 -36 25 -68 -4 -20 -16 -45 -28 -54 -12 -10 -35 -18 -51 -18 -20 0 -40 10 -60 30 
z" fill="rgb(12, 134, 92)"/>
<path d="M2480 5795c0 67 2 75 19 75 13 0 20 -9 23 -30 4 -25 9 -30 31 -30 15 0 27 -4 27 -9 
0 -5 -14 -11 -31 -13 -22 -3 -30 -9 -27 -19 2 -8 19 -15 36 -17 20 -2 32 -9 32 -18 
0 -10 -14 -14 -55 -14 l-55 0 0 75 z"/>
<path d="M2644 5858c1 1 1 1 1 0 3 -2 5 -32 6 -66 1 -35 6 -62 12 -62 6 0 13 -2 15 -5 
0 0 0 0 0 0 3 -3 -4 -5 -16 -5 -21 0 -22 5 -22 72 0 36 2 65 4 66 z" fill="rgb(34, 34, 34)"/>
<path d="M2747 5725l-1 70 -1 70 18 3 c14 3 17 -4 18 -35 1 -15 1 -31 0 -43 0 -4 0 -8 -1 -10 
-1 -8 0 -13 3 -10 1 1 5 8 11 17 7 11 17 26 26 41 21 34 38 52 49 50 13 -2 16 -17 16 -78 
0 -64 -3 -75 -17 -78 -15 -3 -18 4 -18 45 l0 48 -33 -49 c-23 -34 -38 -47 -51 -45 
l-19 4 z"/>
<path d="M2997 5850c9 -4 18 -7 26 -8 15 -2 25 1 31 8 1 1 2 3 2 4 3 9 15 16 25 16 
10 0 19 -4 19 -10 0 -5 -12 -39 -26 -75 -24 -59 -29 -65 -55 -65 -27 0 -30 4 -52 75 
-14 44 -20 78 -15 82 6 3 17 -3 26 -13 5 -5 12 -10 19 -14 z" fill="rgb(34, 34, 34)"/>
<path d="M3157 5798l3 32 c3 19 9 37 14 40 l9 4 8 -19 c1 -3 2 -6 3 -9 l-3 -35 c-1 -19 3 -31 7 -25 
l8 9 27 43 c18 28 34 42 45 40 14 -2 17 -15 17 -78 0 -64 -3 -75 -17 -78 
-6 -1 -10 -1 -13 3 -4 5 -5 17 -6 42 0 26 -3 44 -5 39 l-5 -10 -25 -38 c-15 -23 -32 -38 -44 -38 
-16 0 -20 7 -21 33 -1 10 -1 28 -2 45 z"/>
<path d="M3265 5725l-12 32 -4 39 5 10 c2 5 5 -13 5 -39 1 -25 2 -37 6 -42 z" fill="rgb(198, 197, 199)"/>
<path d="M3375 5745c-15 14 -25 36 -25 53 0 17 9 39 20 51 11 12 34 23 50 26 17 3 41 -1 55 -9 
14 -8 25 -22 25 -30 0 -9 -5 -16 -10 -16 -6 0 -21 7 -34 15 -13 9 -31 13 -40 9 
-9 -3 -19 -17 -22 -30 -3 -13 -3 -31 0 -40 3 -9 15 -18 25 -21 10 -3 30 3 44 12 
18 11 27 13 32 5 4 -6 -1 -20 -11 -31 -10 -12 -30 -19 -51 -19 -23 0 -42 8 -58 25 
z" fill="rgb(34, 34, 34)"/>
<path d="M3560 5795l0 75 60 0 c33 0 60 -4 60 -10 0 -5 -18 -10 -40 -10 -33 0 -40 -3 -40 -20 
0 -16 7 -20 36 -20 24 0 34 -4 32 -12 -3 -7 -17 -15 -33 -18 -16 -3 -30 -11 -33 -17 
-2 -9 9 -13 38 -13 29 0 40 -4 38 -12 -3 -8 -27 -14 -61 -16 l-57 -3 0 76 
z" fill="rgb(34, 34, 34)"/>
<path d="M3810 5789c0 45 5 72 13 80 8 6 17 8 20 4 4 -3 7 -25 7 -47 l1 -41 23 48 
c13 26 29 47 35 47 7 0 23 -24 36 -52 l24 -53 0 48 c1 35 5 47 16 47 12 0 15 -15 15 -76 
l0 -75 -26 3 c-21 2 -30 13 -48 57 l-21 54 -18 -57 c-17 -51 -20 -56 -48 -56 
l-29 0 0 69 z"/>
<path d="M4077 5795c-14 41 -22 77 -17 80 5 3 18 -3 30 -15 11 -11 31 -20 44 -20 16 0 27 7 31 20 
4 11 15 20 27 20 12 0 18 -5 16 -12 -3 -7 -15 -43 -27 -80 -21 -63 -25 -68 -51 -68 
-26 0 -30 5 -53 75 z" fill="rgb(34, 34, 34)"/>
<path d="M4266 5795c3 -29 5 -57 4 -63 l-2 -12 -3 37 1 38 z" fill="rgb(87, 85, 87)"/>
<path d="M4266 5795c-1 4 -1 9 -2 13 -4 34 -4 65 -1 68 3 4 13 4 22 1 9 -4 15 -19 15 -42 
0 -19 3 -35 6 -35 3 0 19 17 34 38 l29 37 10 -2 c6 -2 14 -3 17 -3 3 0 4 -34 3 -75 
l-3 -74 -13 -1 c-8 0 -13 19 -15 53 l-3 52 -28 -52 c-20 -37 -34 -53 -49 -53 
l-20 0 2 12 c1 6 -1 34 -4 63 z" fill="rgb(25, 25, 25)"/>
<path d="M4369 5875l5 4 c3 2 12 1 21 -2 11 -5 15 -22 15 -76 0 -38 -3 -72 -7 -75 
l-7 -5 3 74 c1 41 0 75 -3 75 -3 0 -11 1 -17 3 l-10 2 z" fill="rgb(87, 85, 87)"/>
<path d="M4478 5795c-17 46 -23 77 -17 81 6 3 18 -1 28 -10 10 -9 30 -16 44 -16 15 0 36 5 47 12 
10 7 22 9 26 5 4 -3 -1 -28 -11 -54 -9 -27 -24 -58 -31 -70 -8 -13 -24 -23 -37 -23 
-18 0 -26 12 -49 75 z"/>
<path d="M4686 5741c-19 15 -26 30 -26 55 0 20 5 44 10 55 7 11 26 21 50 25 28 5 47 2 64 -9 
14 -9 28 -26 31 -38 4 -12 2 -25 -4 -30 -6 -5 -27 -9 -46 -9 -24 0 -35 5 -35 15 
0 8 9 15 20 15 11 0 20 4 20 9 0 6 -5 13 -11 16 -5 4 -21 4 -35 1 -22 -6 -25 -11 -22 -44 
2 -27 9 -40 25 -47 16 -7 26 -5 41 8 10 9 24 17 30 17 7 0 12 -4 12 -10 
0 -5 -9 -19 -20 -30 -11 -11 -33 -20 -49 -20 -15 0 -40 9 -55 21 z" fill="rgb(34, 34, 34)"/>
<path d="M4880 5795l0 75 45 0 c25 0 47 0 50 0 3 0 8 -4 11 -10 3 -6 -9 -10 -30 -10 
-29 0 -36 -4 -36 -20 0 -16 7 -20 36 -20 24 0 34 -4 32 -12 -3 -7 -19 -14 -36 -16 
-19 -2 -32 -9 -32 -17 0 -8 15 -16 35 -19 19 -3 35 -8 35 -11 0 -3 -25 -7 -55 -10 
l-55 -6 0 76 z" fill="rgb(34, 34, 34)"/>
<path d="M5189 5799c6 -11 9 -15 8 -11 0 3 0 7 -1 12 0 11 1 26 2 41 3 25 9 39 18 39 
11 0 14 -18 14 -80 l0 -80 -28 0 c-25 0 -30 6 -41 40 -6 21 -16 42 -20 45 
-5 3 -16 -15 -24 -40 -13 -38 -20 -45 -42 -45 l-26 0 3 78 c2 60 6 77 18 77 
11 0 16 -13 18 -45 l4 -45 18 49 c11 28 24 46 31 44 7 -2 23 -26 36 -54 
4 -10 9 -18 12 -25 z"/>
<path d="M5402 5809l-1 -4 c0 -3 -1 -7 -1 -10 0 -3 -16 -5 -35 -5 -19 0 -35 -4 -36 -9 
l0 -9 6 -11 c3 -6 22 -11 41 -11 24 0 34 -5 34 -15 0 -13 -11 -15 -57 -13 
l-58 3 0 75 0 75 54 0 c33 0 56 -5 58 -12 3 -7 -10 -13 -34 -15 -26 -2 -38 -8 -38 -18 
0 -10 12 -16 34 -18 l33 -3 z"/>
<path d="M5495 5865c3 -7 5 -19 5 -40 0 -25 3 -45 8 -45 0 0 1 1 3 2 6 6 17 23 28 43 
18 34 30 45 47 45 23 0 24 -3 24 -75 0 -68 -2 -75 -20 -75 -17 0 -20 7 -20 48 
l0 47 -30 -47 c-20 -31 -37 -48 -50 -48 -18 0 -20 7 -20 75 0 60 3 75 15 75 
4 0 7 -2 10 -5 z"/>
<path d="M5658 5733c-2 6 9 15 25 19 25 6 27 9 27 62 0 49 2 56 20 56 18 0 20 -7 20 -59 
0 -55 2 -59 25 -63 14 -3 25 -10 25 -17 0 -7 -24 -11 -70 -11 -48 0 -71 4 -72 13 
z"/>
<path d="M5940 5801l0 82 52 -7 c29 -4 61 -14 70 -23 11 -10 18 -31 18 -54 0 -29 -6 -42 -26 -58 
-18 -14 -41 -21 -70 -21 l-44 0 0 81 z"/>
<path d="M6151 5788c-14 37 -23 71 -20 75 4 4 22 2 40 -4 28 -11 40 -10 66 1 18 8 34 12 37 9 
4 -3 -6 -38 -20 -77 -24 -63 -30 -72 -52 -72 -21 0 -28 9 -51 68 z"/>
<path d="M6342 5743c-9 12 -13 30 -9 39 3 9 24 22 46 28 23 6 41 15 41 21 0 5 -7 12 -16 16 
-9 3 -25 1 -35 -5 -10 -7 -23 -12 -29 -12 -5 0 -10 7 -10 15 0 9 12 20 27 26 
15 6 42 8 60 4 18 -3 37 -14 43 -25 5 -10 7 -25 4 -34 -3 -8 -26 -21 -50 -30 
-24 -8 -44 -20 -44 -25 0 -6 10 -11 23 -11 13 0 28 5 34 11 6 6 16 8 23 4 
8 -5 6 -12 -6 -26 -10 -12 -30 -19 -52 -19 -24 0 -39 7 -50 23 z" fill="rgb(34, 34, 34)"/>
<path d="M6522 5793c-3 71 -2 77 16 77 14 0 21 -8 24 -30 4 -24 9 -30 30 -30 21 0 26 6 31 36 
4 23 11 35 19 32 9 -2 14 -28 16 -81 3 -71 1 -78 -15 -75 -11 2 -19 14 -21 31 
-3 23 -8 27 -33 27 -24 0 -29 -4 -29 -25 0 -15 -7 -29 -17 -33 -16 -6 -18 1 -21 71 
z"/>
<path d="M6727 5768c0 26 1 62 2 80 1 30 3 32 40 32 22 0 51 -4 65 -10 18 -7 26 -17 26 -34 
0 -14 -5 -28 -10 -31 -7 -4 -6 -13 1 -26 8 -16 7 -25 -7 -40 -12 -14 -31 -19 -67 -19 
l-50 0 0 48 z" fill="rgb(34, 34, 34)"/>
<path d="M6933 5751c-18 23 -23 39 -18 58 3 14 17 36 31 49 14 12 38 22 55 22 18 0 39 -9 54 -25 
17 -16 25 -35 25 -59 0 -25 -7 -40 -26 -55 -16 -12 -41 -21 -62 -21 -28 0 -41 7 -59 31 
z" fill="rgb(25, 25, 25)"/>
<path d="M7156 5793c-14 39 -26 75 -26 80 0 4 6 7 14 7 7 0 19 -7 26 -15 7 -8 26 -15 42 -15 
16 0 31 6 34 15 4 8 15 15 26 15 15 0 18 -5 13 -20 -3 -10 -17 -46 -31 -80 
-20 -49 -28 -60 -48 -60 -20 0 -27 10 -50 73 z"/>
<path d="M7466 5753c-2 -2 -4 -3 -6 -3 -5 0 -14 9 -20 20 -2 4 -5 8 -9 11 -7 5 -17 9 -26 9 
-18 0 -25 -5 -25 -20 l-1 -21 5 -6 c3 -3 17 -3 31 -1 14 3 28 1 31 -5 l6 -11 
-56 -4 -56 -4 0 82 c0 72 2 81 18 78 10 -2 18 -14 20 -30 3 -22 9 -28 27 -28 
18 0 25 7 30 30 4 17 13 30 21 30 9 0 14 -11 14 -29 0 -17 -5 -33 -11 -37 
-8 -4 -8 -9 0 -17 6 -6 11 -19 11 -29 0 -6 -2 -12 -4 -15 z" fill="rgb(25, 25, 25)"/>
<path d="M7535 5795l0 80 55 -2 c43 -1 58 -6 72 -23 10 -12 18 -37 18 -55 0 -24 -7 -39 -26 -54 
-17 -13 -44 -22 -73 -23 l-46 -3 0 80 z"/>
<path d="M2644 5858l16 10 c19 3 20 -2 20 -70 l-2 -73 c-2 3 -9 5 -15 5 -6 0 -11 27 -12 62 
-1 34 -3 64 -6 66 0 1 0 1 -1 0 z"/>
<path d="M2747 5725l-1 70 -1 70 1 -70 1 -70 z" fill="rgb(111, 109, 110)"/>
<path d="M7466 5753l-4 -15 -10 -12 -6 11 c-3 6 -17 8 -31 5 -14 -2 -28 -2 -31 1 l-5 6 
11 1 c5 0 17 0 25 0 8 0 15 8 15 18 l1 13 c4 -3 7 -7 9 -11 6 -11 15 -20 20 -20 
2 0 4 1 6 3 z" fill="rgb(87, 85, 87)"/>
<path d="M6768 5756c-2 15 2 18 20 17 12 -2 22 -5 22 -8 0 -3 -9 -10 -19 -17 -16 -10 -20 -9 -23 8 
z" fill="rgb(215, 215, 215)"/>
<path d="M5980 5799c0 43 3 51 19 51 10 0 24 -6 30 -14 7 -8 11 -30 9 -48 -2 -28 -7 -34 -30 -36 
-27 -3 -28 -2 -28 47 z" fill="rgb(232, 232, 232)"/>
<path d="M6959 5776c-7 20 -6 32 6 50 8 13 23 24 33 24 10 0 23 -5 30 -12 7 -7 12 -24 12 -38 
0 -14 -5 -31 -12 -38 -7 -7 -22 -12 -35 -12 -16 0 -27 8 -34 26 z" fill="rgb(232, 232, 232)"/>
<path d="M7431 5781l-1 -13 c0 -10 -7 -18 -15 -18 -8 0 -20 0 -25 0 l-11 -1 1 21 c0 15 7 20 25 20 
9 0 19 -4 26 -9 z" fill="rgb(232, 232, 232)"/>
<path d="M7595 5849c-3 -3 -5 -28 -5 -55 0 -27 0 -39 5 -42 l-14 2 c-6 4 -11 25 -11 46 
0 21 6 42 13 47 l12 2 z" fill="rgb(198, 197, 199)"/>
<path d="M7595 5849c0 0 0 0 0 0 3 3 14 1 23 -4 11 -7 17 -22 17 -45 0 -27 -5 -37 -22 -45 
-10 -4 -15 -6 -18 -3 -5 3 -5 15 -5 42 0 27 2 52 5 55 z" fill="rgb(232, 232, 232)"/>
<path d="M4118 5787c-2 20 1 28 12 28 10 0 14 -8 12 -25 -2 -14 -8 -26 -12 -28 -5 -2 -10 9 -12 25 
z" fill="rgb(198, 197, 199)"/>
<path d="M4522 5785c-7 14 -12 28 -12 30 0 3 9 5 20 5 11 0 20 -6 19 -12 0 -7 -4 -21 -8 -31 
-6 -17 -8 -16 -19 8 z" fill="rgb(215, 215, 215)"/>
<path d="M2781 5790l7 -1 6 -2 c-6 -9 -10 -16 -11 -17 -3 -3 -4 2 -3 10 1 2 1 6 1 10 
z" fill="rgb(148, 148, 148)"/>
<path d="M3011 5788c-10 18 -9 23 4 28 9 4 19 4 22 0 3 -3 2 -16 -4 -28 l-10 -23 -12 23 
z" fill="rgb(198, 197, 199)"/>
<path d="M5402 5809l5 -9 c3 -6 -2 -12 -11 -15 -9 -3 -27 -7 -42 -9 l-25 -4 0 9 c1 5 17 9 36 9 
19 0 35 2 35 5 0 3 1 7 1 10 l1 4 z" fill="rgb(111, 109, 110)"/>
<path d="M6192 5787c-7 12 -12 24 -12 27 0 3 9 6 20 6 11 0 20 -3 19 -7 0 -5 -4 -17 -8 -28 
-8 -19 -8 -19 -19 2 z" fill="rgb(215, 215, 215)"/>
<path d="M7194 5795c-5 19 -2 25 10 25 9 0 16 -8 16 -19 0 -11 -4 -23 -10 -26 -5 -3 -12 6 -16 20 
z" fill="rgb(215, 215, 215)"/>
<path d="M3194 5846c3 -11 6 -23 8 -31 l4 -20 -8 -9 c-4 -6 -8 6 -7 25 l3 35 z" fill="rgb(169, 168, 167)"/>
<path d="M4300 5785c0 3 2 5 5 5 3 0 5 -2 5 -5 0 -3 -2 -5 -5 -5 -3 0 -5 2 -5 5 z" fill="rgb(169, 168, 167)"/>
<path d="M5189 5799l4 1 3 0 c1 -5 1 -9 1 -12 1 -4 -2 0 -8 11 z" fill="rgb(169, 168, 167)"/>
<path d="M5495 5865l12 -40 4 -43 c-2 -1 -3 -2 -3 -2 -5 0 -8 20 -8 45 0 21 -2 33 -5 40 
z" fill="rgb(87, 85, 87)"/>
<path d="M3157 5798c0 11 -1 22 -1 32 -1 33 3 45 13 45 l14 -1 -9 -4 c-5 -3 -11 -21 -14 -40 
l-3 -32 z" fill="rgb(98, 98, 98)"/>
<path d="M6770 5830c0 15 7 20 25 20 18 0 25 -5 25 -20 0 -15 -7 -20 -25 -20 -18 0 -25 5 -25 20 
z" fill="rgb(232, 232, 232)"/>
<path d="M2997 5850l28 -2 29 2 c-6 -7 -16 -10 -31 -8 -8 1 -17 4 -26 8 z" fill="rgb(135, 135, 137)"/>
</g>
</svg>
