<?xml version="1.0" encoding="UTF-8" standalone="no"?><!DOCTYPE svg PUBLIC "-//W3C//DTD SVG 20010904//EN"
 "http://www.w3.org/Graphics/SVG/1.1/DTD/svg11.dtd">
<svg version="1.1" baseProfile="full" xmlns="http://www.w3.org/2000/svg"
 width="1024pt" height="1024pt" viewBox="0 0 1024 1024" preserveAspectRatio="xMidYMid meet">
<g id="svg" fill="black" stroke="none" stroke-linecap="round" transform="scale(0.1,0.1)">
<path d="M0 5120l0 5120 5120 0 5120 0 0 -5120 0 -5120 -5120 0 -5120 0 0 5120 z" fill="rgb(255, 255, 255)"/>
<path d="M3345 5705l20 -15 c11 -8 13 -9 6 1 -2 3 -6 8 -11 14 -13 17 -28 31 -33 33 
-4 1 -6 -1 -3 -5 2 -5 100 -132 217 -283 117 -151 349 -455 517 -675 168 -220 309 -402 314 -404 
5 -2 177 4 382 14 l371 17 823 -491 c452 -270 825 -493 828 -495 3 -2 -20 -38 -50 -80 
-31 -42 -56 -83 -56 -90 0 -9 20 -15 60 -20 33 -3 141 -9 240 -12 133 -5 180 -4 180 5 
0 6 -43 96 -95 200 -52 104 -100 193 -107 197 -9 6 -27 -11 -58 -51 l-45 -60 -43 55 
c-23 30 -409 516 -857 1080 -447 564 -818 1025 -823 1025 -5 0 -181 -224 -391 -497 
l-383 -498 -307 318 c-169 174 -386 400 -482 502 l-184 194 -10 6 c6 -5 9 -7 10 -6 
l184 -194 c96 -102 313 -328 482 -502 l307 -318 383 498 c210 273 386 497 391 497 
5 0 376 -461 823 -1025 448 -564 834 -1050 857 -1080 l43 -55 45 60 c31 40 49 57 58 51 
7 -4 55 -93 107 -197 52 -104 95 -194 95 -200 0 -9 -47 -10 -180 -5 -99 3 -207 9 -240 12 
-40 5 -60 11 -60 20 0 7 25 48 56 90 30 42 53 78 50 80 -3 2 -376 225 -828 495 
l-823 491 -371 -17 c-205 -10 -377 -16 -382 -14 -5 2 -146 184 -314 404 
-168 220 -400 524 -517 675 -86 111 -161 209 -196 255 z" fill="rgb(1, 146, 68)"/>
<path d="M3710 4965l5 -790 c3 -499 8 -799 15 -814 l8 -18 c-11 2 -16 5 -21 10 -16 16 -17 66 -15 825 
2 373 5 693 8 787 z" fill="rgb(65, 163, 100)"/>
<path d="M3710 4965c0 18 1 27 2 28 3 5 136 -166 295 -380 l288 -388 55 4 0 -71 c0 -12 0 -38 1 -73 
0 -82 1 -216 3 -350 l3 -350 2 -10 2 -10 -16 -20 -305 -5 c-205 -3 -274 -4 -302 3 
l-8 18 c-7 15 -12 315 -15 814 l-5 790 z" fill="rgb(1, 146, 68)"/>
<path d="M5889 3357l1 219 2 222 c26 -15 52 -30 78 -45 308 -181 563 -335 568 -343 
5 -8 6 -27 1 -42 l-7 -28 -316 0 c-173 0 -317 3 -320 8 0 0 -2 3 -7 9 z" fill="rgb(1, 146, 68)"/>
<path d="M5889 3357c-23 30 -105 134 -200 253 -111 140 -253 321 -315 402 -63 80 -114 149 -114 152 
0 3 34 -15 75 -39 38 -23 280 -165 557 -327 l-2 -222 -1 -219 z"/>
<path d="M4350 4229l43 4 c53 4 225 14 382 23 157 9 288 14 292 10 3 -3 -158 -212 -358 -463 
l-348 -438 -2 10 -2 10 -1 350 -5 350 c-1 35 -1 61 -1 73 l0 71 z"/>
<path d="M4351 4085l5 -350 1 -350 -3 350 c-2 134 -3 268 -3 350 z" fill="rgb(6, 73, 34)"/>
<path d="M6213 4520l-323 396 0 376 c0 306 3 378 14 387 9 8 103 11 322 9 l309 -3 0 -780 
0 -780 -322 395 z"/>
<path d="M4022 5205l-312 316 0 79 c0 77 1 80 25 85 14 3 157 4 318 3 l292 -3 3 -397 
c1 -219 -1 -398 -6 -398 -5 0 -149 142 -320 315 z" fill="rgb(1, 146, 68)"/>
<path d="M3345 5705c-13 16 -21 26 -21 28 -3 4 -1 6 3 5 5 -2 20 -16 33 -33 5 -6 9 -11 11 -14 
7 -10 5 -9 -6 -1 l-20 15 zm26 -14 c3 -4 5 -7 4 -7 -1 -1 -4 1 -10 6 l-20 15 214 -215 c96 -102 313 -328 482 -502 
l307 -318 383 498 c210 273 386 497 391 497 5 0 376 -461 823 -1025 448 -564 834 -1050 857 -1080 
l43 -55 45 60 c31 40 49 57 58 51 7 -4 55 -93 107 -197 52 -104 95 -194 95 -200 
0 -9 -47 -10 -180 -5 -99 3 -207 9 -240 12 -40 5 -60 11 -60 20 0 7 25 48 56 90 
30 42 53 78 50 80 -3 2 -376 225 -828 495 l-823 491 -371 -17 c-205 -10 -377 -16 -382 -14 
-5 2 -146 184 -314 404 -168 220 -400 524 -517 675 -117 151 -215 278 -217 283 
-3 4 -1 6 3 5 5 -2 20 -16 33 -33 5 -6 9 -11 11 -14 z" fill="rgb(145, 195, 173)"/>
<path d="M3797 6104c-45 18 -76 38 -107 72 -23 26 -51 69 -61 95 -12 31 -19 75 -19 119 
0 46 7 88 21 125 12 34 37 72 65 99 27 28 65 53 99 65 35 13 80 21 120 21 
48 0 79 -7 128 -28 49 -22 74 -41 105 -80 23 -28 48 -74 56 -103 9 -29 16 -77 16 -106 
0 -29 -9 -76 -20 -105 -11 -28 -33 -68 -49 -88 -16 -20 -56 -51 -89 -69 
-46 -25 -76 -33 -131 -36 -58 -4 -82 -1 -134 19 z"/>
<path d="M2892 6379c-2 216 1 297 9 308 8 9 27 13 53 11 l41 -3 5 -185 5 -185 73 143 
72 142 45 0 45 0 67 -141 c51 -106 69 -137 74 -123 4 11 8 94 8 187 l1 167 50 0 
50 0 0 -305 0 -306 -57 3 -58 3 -85 180 c-47 99 -88 180 -92 180 -4 0 -47 -82 -97 -182 
l-91 -183 -57 -2 -58 -3 -3 294 z"/>
<path d="M4325 6391l0 304 50 0 50 0 5 -205 5 -205 41 55 c22 30 87 122 144 203 l104 148 51 -3 
50 -3 3 -215 c2 -118 0 -252 -3 -297 l-7 -83 -49 0 -49 0 0 195 c0 107 -4 194 -8 193 
-5 -2 -70 -90 -146 -195 l-137 -193 -52 -1 -52 -1 0 303 z"/>
<path d="M5111 6431c4 -1 7 -1 9 -1 6 0 55 0 110 0 43 0 80 -1 94 -3 3 -1 5 -1 6 -2 
0 0 0 0 0 0 0 -3 0 -7 0 -10 0 -3 0 -21 0 -40 l0 -34 0 0 -127 -3 -128 -3 0 -70 
0 -70 153 -3 152 -3 0 -49 0 -50 -207 2 -208 3 -3 298 -2 297 210 0 210 0 0 -50 
0 -49 -152 -3 -153 -3 -3 -73 c-3 -67 -1 -74 18 -78 7 -1 15 -3 21 -3 z"/>
<path d="M5562 6388l115 297 55 3 56 3 27 -73 c16 -40 67 -173 115 -295 48 -122 85 -225 82 -228 
-3 -3 -29 -5 -58 -5 l-52 0 -28 73 c-15 39 -53 142 -84 226 -53 146 -57 153 -67 125 
-6 -16 -43 -118 -82 -226 l-72 -198 -61 0 -61 0 115 298 z"/>
<path d="M6102 6393l3 302 45 0 45 0 7 -290 c4 -159 5 -296 3 -302 -3 -8 -23 -13 -55 -13 
l-50 0 2 303 z"/>
<path d="M6295 6140l0 55 88 3 87 3 0 244 0 245 55 0 55 0 0 -250 0 -250 85 0 85 0 0 -50 
0 -50 -227 -2 -228 -3 0 55 z"/>
<path d="M7348 6112c1 -2 2 -4 1 -4 -3 -5 -31 -8 -62 -8 l-52 0 -4 0 -75 115 c-42 63 -77 115 -80 115 
-2 0 -39 -54 -82 -120 l-79 -120 -57 0 c-31 0 -59 3 -62 8 -2 4 47 83 110 176 
l114 169 0 124 0 124 53 -3 52 -3 5 -130 5 -130 110 -155 c53 -75 95 -140 103 -158 
z"/>
<path d="M7348 6112l10 -10 c3 -10 -11 -12 -59 -10 l-64 8 52 0 c31 0 59 3 62 8 1 0 0 2 -1 4 
z" fill="rgb(64, 64, 64)"/>
<path d="M3811 6214c-26 16 -50 42 -66 72 -18 34 -25 62 -25 103 0 39 7 71 23 101 
12 26 40 58 65 75 36 26 51 30 105 30 52 0 71 -5 105 -28 23 -15 51 -45 63 -68 
11 -23 23 -66 26 -95 5 -45 1 -62 -21 -109 -20 -41 -39 -62 -70 -80 -33 -19 -57 -25 -103 -25 
-47 0 -71 6 -102 24 z" fill="rgb(255, 255, 255)"/>
<path d="M5330 6425l4 -40 -4 -44 0 34 c0 19 0 37 0 40 0 3 0 7 0 10 0 0 0 0 0 0 z" fill="rgb(64, 64, 64)"/>
<path d="M5111 6431l13 7 c8 4 57 5 108 2 l92 -13 c-14 2 -51 3 -94 3 -55 0 -104 0 -110 0 
-2 0 -5 0 -9 1 z" fill="rgb(149, 146, 145)"/>
<path d="M3440 6938c0 34 4 62 8 62 5 0 8 -24 8 -52 -1 -29 -4 -57 -8 -62 -5 -5 -8 18 -8 52 
z" fill="rgb(42, 43, 42)"/>
<path d="M4544 6900c-2 14 0 45 5 70 l9 45 1 -43 c1 -29 5 -43 13 -40 7 2 21 17 32 33 
11 17 26 31 33 33 9 1 13 -13 13 -53 0 -30 -4 -55 -10 -55 -5 0 -10 17 -10 38 
l-1 37 -40 -45 c-39 -44 -40 -44 -45 -20 z" fill="rgb(50, 52, 52)"/>
<path d="M6805 6940l0 55 38 3 c21 2 45 -2 53 -9 8 -6 14 -26 14 -44 0 -18 -7 -38 -15 -44 
-8 -6 -32 -12 -52 -13 l-38 -3 0 55 z" fill="rgb(42, 43, 42)"/>
<path d="M3320 6951c0 37 4 58 10 54 6 -3 10 -17 10 -31 0 -19 6 -25 28 -26 l27 -3 -27 -3 
c-20 -2 -28 -9 -28 -22 0 -14 9 -20 38 -22 33 -3 32 -3 -10 -5 l-48 -3 0 61 
z" fill="rgb(30, 32, 32)"/>
<path d="M3501 6943c0 36 3 57 10 57 7 0 10 -15 7 -40 -2 -22 -1 -39 3 -37 3 1 19 19 33 40 
15 20 32 37 37 37 5 0 8 -26 7 -57 -1 -43 -2 -48 -5 -20 -2 20 -7 37 -10 37 
-4 0 -23 -17 -43 -37 l-37 -38 -2 58 z" fill="rgb(30, 32, 32)"/>
<path d="M3666 6974c2 -4 4 -9 6 -13 2 -6 3 -12 3 -16 0 -11 5 -21 11 -23 6 -2 14 5 17 15 
2 5 5 13 9 22 3 7 7 15 10 23 1 1 1 2 2 3 13 27 15 28 15 7 1 -12 -8 -41 -19 -62 
-11 -22 -25 -40 -31 -40 -5 0 -19 20 -30 45 -11 25 -19 50 -17 56 2 5 10 1 18 -8 
2 -3 4 -6 6 -9 z" fill="rgb(42, 43, 42)"/>
<path d="M3810 6915c0 0 0 -1 0 -1 0 0 0 0 1 -1 l-1 -14 c0 -5 -7 -9 -15 -9 -12 0 -15 13 -15 55 
0 30 4 55 9 55 6 0 12 -19 14 -42 l7 -43 z" fill="rgb(30, 32, 32)"/>
<path d="M3931 6913c-12 19 -14 30 -6 53 8 23 17 30 44 32 19 2 38 -2 45 -10 9 -10 6 -12 -13 -6 
-13 4 -33 3 -43 -3 -10 -5 -18 -20 -18 -33 0 -13 7 -29 15 -36 9 -7 25 -10 41 -6 
17 5 23 3 19 -4 -3 -5 -20 -10 -37 -10 -21 0 -36 8 -47 23 z" fill="rgb(42, 43, 42)"/>
<path d="M4060 6945l0 55 48 -2 47 -3 -40 -5 c-27 -3 -40 -10 -40 -20 0 -10 13 -17 35 -20 
l35 -5 -32 -2 c-25 -2 -33 -8 -33 -22 0 -15 8 -21 33 -23 27 -3 26 -3 -10 -5 
l-43 -3 0 55 z" fill="rgb(30, 32, 32)"/>
<path d="M4240 6951c0 39 4 59 9 54 5 -6 11 -32 12 -59 2 -32 -1 -51 -9 -54 -9 -3 -12 14 -12 59 
z" fill="rgb(42, 43, 42)"/>
<path d="M4358 6994c0 0 0 0 1 -1 0 -7 1 -33 1 -58 0 -18 -2 -34 -5 -41 -1 -3 -3 -4 -4 -4 
-5 0 -18 15 -29 33 -17 26 -22 29 -31 17 -5 -8 -13 -12 -16 -8 -4 3 0 15 7 27 
7 12 16 21 20 21 4 0 16 -12 25 -27 l18 -28 6 40 c3 18 6 30 7 29 z" fill="rgb(42, 43, 42)"/>
<path d="M4358 6994l5 -46 -8 -54 c3 7 5 23 5 41 0 25 -1 51 -1 58 -1 1 -1 1 -1 1 
z" fill="rgb(175, 173, 175)"/>
<path d="M4421 6941c-13 28 -19 54 -16 57 4 4 11 -1 16 -11 6 -9 21 -17 34 -17 13 0 28 8 34 17 
5 10 12 15 16 11 3 -3 -3 -29 -16 -57 -12 -28 -27 -51 -34 -51 -7 0 -22 23 -34 51 
z" fill="rgb(42, 43, 42)"/>
<path d="M4701 6941c-12 28 -20 56 -17 62 2 7 8 2 11 -10 5 -17 15 -23 36 -23 16 0 32 7 38 17 
5 10 12 15 15 12 3 -3 -4 -29 -16 -57 -12 -29 -27 -52 -34 -52 -6 0 -21 23 -33 51 
z" fill="rgb(42, 43, 42)"/>
<path d="M4920 6977l0 -9 c0 -4 0 -11 0 -14 0 -3 -5 -3 -11 -1 l-11 6 -4 15 c-2 9 -12 16 -22 16 
-10 0 -23 -5 -30 -12 -7 -7 -12 -22 -12 -35 0 -12 9 -27 21 -33 11 -7 32 -9 46 -5 
16 4 22 2 18 -5 -3 -5 -20 -10 -37 -10 -17 0 -40 7 -50 17 -10 9 -18 26 -18 39 
0 12 12 32 26 43 15 12 33 21 40 21 8 0 21 -7 29 -17 l15 -16 z" fill="rgb(42, 43, 42)"/>
<path d="M4962 6943l3 52 40 0 c31 0 32 -1 8 -3 -25 -2 -33 -8 -33 -23 0 -14 8 -20 33 -21 
l32 -3 -32 -3 c-25 -2 -33 -8 -33 -22 0 -14 9 -20 38 -22 33 -3 32 -3 -11 -5 
l-48 -3 3 53 z" fill="rgb(30, 32, 32)"/>
<path d="M5091 6950c0 49 2 61 10 47 6 -9 9 -25 8 -35 -1 -9 -1 -21 0 -27 0 -5 10 6 21 25 
13 21 23 30 26 23 3 -7 14 -23 24 -35 l19 -23 2 45 1 45 8 -35 c5 -19 6 -47 3 -62 
-3 -16 -9 -28 -14 -28 -5 0 -16 14 -24 31 -9 16 -20 29 -25 27 -4 -2 -19 -16 -33 -33 
l-25 -30 -1 65 z" fill="rgb(50, 52, 52)"/>
<path d="M5465 7000l8 0 c4 0 7 -2 7 -5 0 -3 0 -24 0 -47 0 -23 -2 -44 -5 -47 l-5 -6 
0 33 c0 17 -4 32 -9 32 -5 0 -18 -16 -30 -35 -11 -19 -28 -35 -36 -35 -9 0 -15 9 -15 25 
0 23 -3 25 -50 25 -43 0 -50 -3 -50 -19 0 -15 8 -21 33 -23 27 -3 26 -3 -10 -5 
l-43 -3 0 55 0 55 40 0 c22 0 36 -4 30 -8 -5 -4 -18 -8 -30 -8 -12 0 -20 -6 -20 -17 
0 -14 9 -17 50 -17 47 0 50 2 50 25 0 14 4 25 9 25 6 0 11 -19 13 -42 l3 -43 30 42 
30 43 z" fill="rgb(42, 43, 42)"/>
<path d="M5465 7000l6 5 c3 3 9 2 12 -2 4 -3 7 -28 7 -55 0 -26 -5 -49 -10 -50 l-10 -3 
5 6 c3 3 5 24 5 47 0 23 0 44 0 47 0 3 -3 5 -7 5 l-8 0 z" fill="rgb(78, 77, 79)"/>
<path d="M5551 6919c4 4 6 8 6 11 1 8 4 29 6 45 1 8 2 12 3 12 1 0 2 -9 3 -29 1 -39 5 -48 26 -57 
22 -10 18 -11 -30 -11 -49 0 -53 1 -32 13 7 4 14 10 18 16 z" fill="rgb(42, 43, 42)"/>
<path d="M5712 6942l3 53 44 0 c36 0 46 -4 54 -23 7 -15 7 -33 1 -50 -8 -24 -15 -27 -58 -30 
l-48 -3 4 53 z" fill="rgb(42, 43, 42)"/>
<path d="M5870 6930c-11 21 -20 45 -20 53 0 11 6 11 30 3 22 -8 34 -8 51 2 11 7 22 12 24 10 
2 -2 -7 -27 -21 -56 -13 -28 -28 -52 -34 -52 -5 0 -19 18 -30 40 z" fill="rgb(50, 52, 52)"/>
<path d="M5983 6910c-4 14 2 23 23 32 16 7 32 17 36 23 4 5 4 13 1 18 -3 4 -18 6 -34 3 
-20 -4 -26 -3 -20 5 5 6 24 9 42 7 26 -2 34 -8 34 -23 0 -12 -13 -27 -33 -38 
-19 -10 -30 -22 -26 -28 3 -6 17 -9 30 -6 13 2 24 0 24 -4 0 -5 -16 -9 -36 -9 
-27 0 -37 5 -41 20 z" fill="rgb(42, 43, 42)"/>
<path d="M6106 6898c-4 6 -4 35 0 64 7 51 8 52 15 20 6 -30 10 -33 35 -30 23 2 30 9 35 33 
5 22 7 12 8 -32 0 -35 -3 -63 -8 -63 -5 0 -8 8 -7 18 1 11 -9 19 -26 24 
-23 5 -28 2 -36 -20 -5 -17 -11 -22 -16 -14 z" fill="rgb(42, 43, 42)"/>
<path d="M6250 6944c0 46 3 54 21 59 12 3 31 2 44 -3 13 -5 25 -12 27 -17 3 -4 1 -27 -3 -50 
-8 -42 -9 -43 -48 -43 l-41 0 0 54 z" fill="rgb(42, 43, 42)"/>
<path d="M6391 6904c-7 8 -11 30 -9 48 2 25 10 36 32 47 25 12 31 11 54 -5 15 -11 28 -29 30 -42 
2 -13 -4 -32 -14 -43 -10 -11 -30 -19 -49 -19 -18 0 -38 6 -44 14 z" fill="rgb(42, 43, 42)"/>
<path d="M6542 6945c-12 31 -19 55 -14 53 4 -2 22 -9 41 -17 30 -12 35 -12 43 3 5 9 13 16 18 16 
5 0 -1 -23 -12 -51 -12 -29 -29 -54 -38 -56 -12 -3 -22 10 -38 52 z" fill="rgb(42, 43, 42)"/>
<path d="M6673 6953c2 46 5 56 11 40 5 -13 17 -23 27 -23 11 0 22 7 25 15 4 8 10 15 16 15 
5 0 7 -9 3 -19 -3 -11 0 -29 6 -40 10 -15 10 -23 0 -35 -8 -10 -29 -16 -53 -16 
l-39 0 4 63 z" fill="rgb(42, 43, 42)"/>
<path d="M5740 6906c-5 3 -10 21 -10 40 0 21 6 37 14 40 8 3 24 0 36 -6 15 -8 20 -19 18 -38 
-2 -17 -11 -30 -25 -34 -13 -5 -27 -5 -33 -2 z" fill="rgb(255, 255, 255)"/>
<path d="M6266 6918c-1 12 7 18 27 20 22 3 27 -1 27 -17 0 -16 -6 -21 -26 -21 -18 0 -27 6 -28 18 
z" fill="rgb(217, 214, 215)"/>
<path d="M6405 6924c-14 21 -14 25 3 46 13 17 24 21 40 16 12 -4 26 -15 32 -25 6 -13 5 -24 -6 -39 
-8 -12 -24 -22 -34 -22 -11 0 -26 11 -35 24 z" fill="rgb(255, 255, 255)"/>
<path d="M6690 6925c0 17 5 25 18 25 10 0 23 -5 29 -11 6 -6 9 -18 6 -25 -3 -8 -16 -14 -29 -14 
-19 0 -24 5 -24 25 z" fill="rgb(255, 255, 255)"/>
<path d="M6820 6938c0 28 5 45 14 48 8 3 24 0 36 -6 15 -8 20 -19 18 -38 -2 -21 -11 -29 -35 -37 
l-33 -9 0 42 z" fill="rgb(255, 255, 255)"/>
<path d="M3810 6915c0 3 0 8 0 11 0 3 14 23 32 45 23 28 34 36 40 27 4 -7 8 -24 8 -38 
0 -17 -3 -21 -9 -12 -6 10 -15 7 -39 -13 -16 -13 -29 -22 -31 -22 -1 1 -1 1 -1 1 
0 0 0 1 0 1 z" fill="rgb(64, 64, 64)"/>
<path d="M5551 6919l-1 32 c-1 23 2 44 6 48 l10 -12 c-1 0 -2 -4 -3 -12 -2 -16 -5 -37 -6 -45 
0 -3 -2 -7 -6 -11 z" fill="rgb(149, 146, 145)"/>
<path d="M3672 6961l20 0 20 -2 c-4 -9 -7 -17 -9 -22 -3 -10 -11 -17 -17 -15 -6 2 -11 12 -11 23 
0 4 -1 10 -3 16 z" fill="rgb(228, 228, 228)"/>
<path d="M4440 6939c-9 18 -8 21 9 21 11 0 22 -4 25 -9 3 -5 -1 -14 -8 -21 -12 -9 -17 -7 -26 9 
z" fill="rgb(228, 228, 228)"/>
<path d="M4722 6932c-7 7 -12 16 -12 20 0 4 9 8 20 8 11 0 20 -6 20 -14 0 -8 -4 -17 -8 -20 
-5 -3 -14 0 -20 6 z" fill="rgb(217, 214, 215)"/>
<path d="M5885 6939c-5 17 -2 21 14 21 12 0 21 -6 21 -15 0 -9 -6 -18 -14 -21 -9 -3 -17 3 -21 15 
z" fill="rgb(228, 228, 228)"/>
<path d="M6564 6938c-5 18 -2 22 15 22 11 0 21 -4 21 -10 0 -5 -7 -15 -15 -22 -12 -11 -16 -9 -21 10 
z" fill="rgb(228, 228, 228)"/>
<path d="M4920 6977l6 -8 c3 -4 3 -12 -1 -18 -3 -6 -13 -11 -21 -11 -9 0 -13 4 -11 9 
l5 10 11 -6 c6 -2 11 -2 11 1 0 3 0 10 0 14 l0 9 z" fill="rgb(89, 89, 87)"/>
<path d="M6267 6967c-2 14 5 18 28 18 20 0 30 -5 30 -15 0 -9 -11 -16 -28 -18 -22 -3 -29 1 -30 15 
z" fill="rgb(228, 228, 228)"/>
<path d="M3666 6974l25 6 31 2 c-3 -8 -7 -16 -10 -23 l-20 2 -20 0 c-2 4 -4 9 -6 13 
z" fill="rgb(89, 89, 87)"/>
</g>
</svg>
