<?xml version="1.0" encoding="UTF-8" standalone="no"?><!DOCTYPE svg PUBLIC "-//W3C//DTD SVG 20010904//EN"
 "http://www.w3.org/Graphics/SVG/1.1/DTD/svg11.dtd">
<svg version="1.1" baseProfile="full" xmlns="http://www.w3.org/2000/svg"
 width="1024pt" height="1024pt" viewBox="0 0 1024 1024" preserveAspectRatio="xMidYMid meet">
<g id="svg" fill="black" stroke="none" stroke-linecap="round" transform="scale(0.1,0.1)">
<path d="M0 5120l0 5120 5120 0 5120 0 0 -5120 0 -5120 -5120 0 -5120 0 0 5120 z" fill="rgb(240, 254, 246)"/>
<path d="M6736 4275c-13 8 -34 31 -46 50 -18 29 -22 47 -18 91 4 47 10 61 40 91 29 29 46 37 85 40 
34 4 60 0 81 -11 17 -9 42 -31 56 -49 14 -17 27 -45 31 -62 3 -19 -2 -47 -15 -78 
-12 -27 -34 -56 -50 -67 -21 -14 -47 -20 -85 -20 -31 0 -65 6 -79 15 z" fill="rgb(34, 164, 1)"/>
<path d="M7746 5441c3 -13 5 -32 5 -51 0 -19 -2 -40 -4 -53 -2 -8 -3 -14 -5 -17 -7 -11 -36 -16 -122 -20 
-104 -5 -115 -7 -141 -32 l-29 -26 2 -209 3 -208 103 3 c58 2 118 -2 137 -8 
30 -10 35 -16 41 -58 5 -32 3 -54 -7 -71 -9 -16 -13 -22 -45 -25 -20 -2 -51 -3 -102 -4 
l-132 -3 0 -10 0 -97 c0 -78 -4 -114 -14 -128 -12 -15 -27 -19 -76 -19 -49 0 -64 4 -76 19 
-10 14 -14 50 -14 123 l0 103 -85 0 c-58 0 -96 5 -115 15 -28 14 -30 20 -30 70 
0 42 5 60 20 75 17 17 33 20 115 20 l95 0 0 188 c0 117 5 211 14 252 11 52 22 75 55 112 
29 33 58 53 97 67 44 17 78 21 174 21 83 0 123 -4 130 -12 2 -3 4 -9 6 -17 
z"/>
<path d="M3192 4619c-41 11 -93 36 -134 64 -51 35 -78 63 -112 117 -25 39 -52 94 -61 122 
-8 28 -15 86 -15 127 0 56 6 93 25 142 13 37 40 89 60 116 19 28 56 64 80 82 
l45 32 0 -83 c0 -74 -3 -89 -31 -138 -16 -30 -35 -82 -41 -115 -9 -52 -8 -69 9 -125 
16 -51 32 -77 74 -123 38 -40 70 -63 107 -77 31 -12 77 -20 111 -20 43 0 77 8 123 28 
38 16 78 43 101 68 21 22 49 67 62 99 15 34 25 78 25 105 0 26 -6 67 -14 92 
-7 25 -25 62 -40 84 -23 34 -26 48 -26 121 0 58 4 83 12 83 7 0 38 -27 71 -60 
36 -37 70 -86 89 -126 25 -52 32 -83 36 -154 4 -72 1 -101 -17 -159 -13 -43 -40 -97 -66 -135 
-31 -44 -66 -77 -113 -108 -42 -28 -93 -52 -133 -62 -36 -9 -86 -16 -112 -16 
-26 0 -77 8 -115 19 z" fill="rgb(34, 164, 1)"/>
<path d="M1730 4655c-40 17 -74 40 -101 71 -23 25 -50 70 -60 100 -17 48 -19 85 -19 333 
0 241 2 282 16 295 10 11 34 16 68 16 29 0 61 -6 72 -12 18 -12 19 -30 24 -298 
l5 -285 31 -32 c23 -25 43 -35 79 -40 32 -4 62 -1 89 8 28 10 49 26 65 52 
25 38 25 41 29 310 3 234 6 274 20 285 9 6 39 12 68 12 34 0 58 -5 68 -16 
14 -13 16 -53 16 -277 0 -228 2 -268 18 -302 10 -24 30 -47 50 -57 23 -13 49 -17 93 -15 
55 3 63 6 97 43 l37 39 3 275 c3 235 5 277 19 292 12 13 31 18 74 18 48 0 60 -4 73 -22 
14 -19 16 -64 16 -288 0 -224 -3 -274 -18 -325 -14 -46 -30 -72 -69 -112 
-38 -39 -66 -57 -112 -73 -37 -12 -86 -20 -129 -20 -38 0 -92 7 -120 15 
-29 8 -67 24 -85 34 l-32 20 -64 -32 c-57 -28 -75 -32 -163 -34 -86 -3 -105 0 -158 22 
z"/>
<path d="M4198 4642c-63 6 -89 15 -132 42 -41 25 -63 48 -88 92 l-33 59 -3 305 c-3 280 -2 305 14 317 
10 7 40 13 67 13 26 0 57 -5 68 -10 18 -10 19 -24 19 -268 0 -223 3 -263 18 -302 
13 -34 27 -50 54 -63 24 -11 61 -17 112 -17 44 0 91 6 111 15 21 8 44 29 58 52 
21 36 22 49 25 303 2 163 8 270 14 278 6 7 34 12 66 12 38 0 61 -5 74 -17 
17 -15 18 -37 18 -293 0 -222 -3 -287 -16 -329 -11 -38 -29 -67 -63 -101 
-34 -34 -65 -54 -109 -69 -34 -11 -92 -22 -129 -24 -38 -2 -103 0 -145 5 
z"/>
<path d="M5165 4646l70 2 70 -2 c-19 -1 -42 -1 -70 -1 -27 0 -50 0 -70 1 z" fill="rgb(105, 109, 112)"/>
<path d="M5165 4646c-61 2 -92 7 -124 18 -37 13 -71 35 -102 66 -29 29 -53 65 -63 94 
-6 17 -10 39 -13 72 -2 34 -4 79 -4 142 l-2 167 c2 16 4 29 7 42 9 47 24 82 47 113 
19 25 56 59 83 75 l49 30 273 3 c264 3 273 3 293 -17 15 -15 21 -34 21 -69 
0 -27 -6 -55 -12 -63 -11 -11 -62 -15 -259 -19 -216 -5 -249 -7 -273 -24 
-16 -10 -34 -30 -42 -45 -7 -14 -14 -39 -16 -56 l-3 -30 279 -5 279 -5 26 -30 
c24 -28 26 -37 25 -120 0 -66 -6 -105 -22 -145 -12 -33 -40 -74 -67 -103 
-33 -34 -64 -54 -108 -70 -41 -14 -67 -20 -132 -21 l-70 2 -70 -2 z"/>
<path d="M5744 4671c-16 23 -10 38 145 394 93 213 170 377 182 388 16 12 39 17 89 17 
51 0 71 -4 83 -17 8 -10 85 -175 170 -368 85 -192 158 -360 162 -373 5 -16 1 -29 -11 -43 
-13 -15 -31 -19 -76 -19 -43 0 -63 5 -77 19 -10 10 -72 143 -136 296 -72 167 -121 272 -125 263 
-4 -7 -58 -133 -119 -280 -62 -147 -119 -273 -128 -279 -8 -7 -44 -15 -79 -17 
-59 -4 -66 -2 -80 19 z"/>
<path d="M6776 4661c7 -1 14 -1 21 -1 24 0 45 0 48 0 1 0 3 0 5 0 l-37 -2 -37 3 z" fill="rgb(80, 83, 82)"/>
<path d="M7684 4666l-116 -14 -118 -3 0 10 132 3 c51 1 82 2 102 4 z" fill="rgb(139, 146, 144)"/>
<path d="M7900 4660c-12 5 -20 19 -20 33 0 14 70 186 155 382 l156 359 -106 240 c-58 133 -105 249 -105 258 
0 9 10 24 22 32 12 9 42 16 65 16 24 0 54 -6 66 -14 18 -10 91 -164 297 -627 
150 -338 275 -624 277 -635 3 -15 -3 -27 -18 -38 -14 -10 -44 -16 -74 -16 
-28 0 -60 6 -71 15 -13 8 -65 116 -135 280 -62 146 -116 265 -119 265 -4 0 -55 -117 -115 -261 
-75 -179 -117 -267 -133 -280 -17 -13 -41 -19 -73 -19 -27 0 -58 4 -69 10 
z"/>
<path d="M6776 4661c-16 2 -29 6 -34 11 -9 9 -12 109 -12 389 0 338 2 379 17 394 12 13 30 16 75 13 
45 -2 62 -7 70 -21 6 -12 12 -157 14 -375 3 -298 2 -362 -10 -384 -8 -16 -22 -28 -30 -28 
-6 0 -12 0 -16 0 -2 0 -4 0 -5 0 -3 0 -24 0 -48 0 -7 0 -14 0 -21 1 z"/>
<path d="M5081 4839c-15 11 -33 34 -40 52 -6 17 -11 43 -11 55 l0 24 210 0 c180 0 211 -2 217 -15 
3 -9 -1 -32 -8 -53 -9 -24 -27 -45 -52 -59 -34 -21 -52 -23 -163 -23 -105 0 -128 3 -153 19 
z" fill="rgb(240, 254, 246)"/>
<path d="M3347 4882l1 96 -3 97 c3 42 5 123 5 208 l0 197 25 0 c14 0 41 -4 60 -10 
l36 -10 -1 -5 c0 -3 2 -5 5 -5 3 0 5 -89 5 -197 l4 -198 c-2 -14 -4 -50 -4 -90 
l0 -86 -67 2 -66 1 z" fill="rgb(34, 164, 1)"/>
<path d="M3347 4882l-6 66 c-3 37 -3 83 1 102 1 4 2 13 3 25 l3 -97 -1 -96 z" fill="rgb(154, 227, 153)"/>
<path d="M4863 4896l-10 141 c-2 68 0 125 4 168 l2 -167 c0 -63 2 -108 4 -142 z" fill="rgb(139, 146, 144)"/>
<path d="M3140 5244c0 193 1 206 19 216 11 5 41 11 68 13 l48 2 0 -215 0 -215 -67 -3 
-68 -3 0 205 z" fill="rgb(34, 164, 1)"/>
<path d="M3471 5460l10 -8 c6 -5 10 -86 10 -196 -1 -103 -3 -191 -6 -196 0 0 -1 -2 -1 -5 
l-4 198 c0 108 -2 197 -5 197 -3 0 -5 2 -5 5 l1 5 z" fill="rgb(162, 225, 157)"/>
<path d="M7746 5441l9 -52 -8 -52 c2 13 4 34 4 53 0 19 -2 38 -5 51 z" fill="rgb(52, 54, 53)"/>
<path d="M1550 5889c0 50 4 92 9 95 5 3 12 -1 15 -10 3 -9 6 -27 6 -40 0 -22 4 -24 45 -24 
25 0 45 -4 45 -9 0 -6 -19 -11 -42 -13 -39 -3 -43 -6 -46 -30 -3 -27 -2 -28 47 -28 
39 0 51 -4 51 -15 0 -12 -14 -15 -65 -15 l-65 0 0 89 z" fill="rgb(42, 44, 42)"/>
<path d="M1742 5893c2 63 7 93 16 95 9 3 12 -20 12 -92 0 -80 -3 -96 -15 -96 -13 0 -15 15 -13 93 
z" fill="rgb(42, 44, 42)"/>
<path d="M1852 5893c2 61 7 93 15 95 8 2 13 -18 15 -65 l3 -68 57 69 c32 39 60 68 62 65 
3 -3 8 -35 12 -71 4 -36 4 -78 0 -92 -3 -14 -11 -26 -16 -26 -6 0 -10 29 -10 65 
0 36 -3 65 -8 65 -4 0 -29 -28 -56 -62 -27 -35 -55 -64 -63 -65 -11 -3 -13 15 -11 90 
z" fill="rgb(42, 44, 42)"/>
<path d="M2115 5890c-25 49 -40 92 -35 95 5 3 15 -3 22 -15 10 -16 23 -20 64 -20 34 0 56 5 64 15 
7 8 19 15 26 15 10 0 0 -28 -31 -90 -25 -49 -50 -90 -55 -90 -5 0 -30 40 -55 90 
z" fill="rgb(42, 44, 42)"/>
<path d="M2332 5893c-1 59 2 97 8 97 6 0 10 -26 10 -59 0 -33 4 -62 8 -65 5 -3 32 24 61 60 
29 35 56 62 62 59 5 -4 9 -46 9 -96 0 -53 -4 -89 -10 -89 -6 0 -10 26 -10 59 
0 33 -3 61 -7 63 -5 2 -35 -26 -68 -62 l-61 -65 -2 98 z" fill="rgb(27, 27, 27)"/>
<path d="M2593 5828c-27 23 -33 35 -33 68 0 30 6 46 24 63 13 12 41 25 63 28 30 4 43 0 61 -16 
12 -12 18 -21 13 -21 -5 0 -21 4 -35 10 -17 6 -36 6 -56 -2 -19 -6 -35 -21 -41 -36 
-7 -17 -6 -34 1 -53 7 -15 25 -33 41 -39 23 -10 35 -10 59 0 17 7 34 9 38 6 
4 -4 -2 -14 -12 -22 -11 -8 -36 -14 -55 -14 -24 0 -46 9 -68 28 z" fill="rgb(42, 44, 42)"/>
<path d="M2792 5893l3 92 68 3 c40 2 67 -1 67 -7 0 -5 -24 -11 -52 -13 -49 -3 -53 -5 -56 -30 
-3 -26 -1 -28 32 -28 19 0 41 -3 50 -6 9 -3 13 -10 10 -15 -3 -5 -25 -9 -50 -9 
-40 0 -44 -2 -44 -25 0 -22 4 -25 39 -25 22 0 46 -3 55 -6 9 -3 13 -10 10 -15 
-3 -5 -34 -9 -70 -9 l-65 0 3 93 z" fill="rgb(42, 44, 42)"/>
<path d="M3097 5875l2 -27 c0 -16 3 -28 6 -28 3 0 5 -2 5 -5 l0 -1 c-3 -2 -4 -4 -5 -4 
-3 0 -6 15 -7 33 -1 7 -1 19 -1 32 z" fill="rgb(92, 94, 92)"/>
<path d="M3097 5875c0 18 0 39 1 58 1 31 6 57 12 57 5 0 10 -30 12 -67 l3 -68 32 58 
c18 31 36 57 42 57 5 0 22 -22 37 -50 15 -27 30 -49 33 -47 3 1 7 28 9 60 
1 31 7 57 12 57 6 0 10 -39 10 -96 0 -70 -3 -95 -12 -92 -7 2 -28 30 -47 63 
-19 33 -38 60 -41 60 -4 0 -25 -26 -48 -57 -18 -24 -34 -45 -42 -54 l0 1 
c0 3 -2 5 -5 5 -3 0 -6 12 -6 28 l-2 27 z" fill="rgb(27, 27, 27)"/>
<path d="M3390 5960l5 -10 c4 -6 30 -10 60 -10 30 0 57 5 60 11 4 6 10 7 14 2 l5 -6 
c-7 -16 -19 -41 -32 -67 -20 -41 -42 -76 -49 -78 -6 -2 -30 36 -52 84 -23 48 -41 88 -41 90 
0 2 7 4 15 4 8 0 15 -5 15 -10 l0 -10 z" fill="rgb(27, 27, 27)"/>
<path d="M3614 5845c1 14 3 32 4 50 l7 90 5 -70 5 -70 2 2 52 63 c30 36 61 69 68 73 
10 6 13 -12 13 -88 0 -53 -4 -95 -10 -95 -5 0 -10 30 -12 68 l-3 67 -54 -67 
c-30 -38 -61 -68 -68 -68 -7 0 -13 1 -13 3 1 0 2 17 4 42 z" fill="rgb(27, 27, 27)"/>
<path d="M3898 5941c10 -4 22 -5 40 -3 24 1 36 4 45 13 4 4 7 9 11 17 11 22 15 24 20 11 
5 -11 -8 -47 -34 -99 -22 -45 -46 -80 -53 -78 -7 2 -31 41 -54 88 -23 47 -38 86 -33 88 
4 2 19 -7 32 -20 8 -9 16 -14 26 -17 z" fill="rgb(42, 44, 42)"/>
<path d="M4219 5899l1 25 c0 14 -4 28 -10 32 l-9 8 -31 0 c-19 1 -41 -8 -56 -21 -13 -12 -24 -33 -24 -46 
0 -14 8 -35 18 -48 13 -15 30 -23 53 -23 19 -1 42 3 52 8 12 6 17 4 17 -7 
0 -8 -7 -18 -16 -21 -9 -3 -29 -6 -45 -6 -17 0 -43 7 -59 15 -17 9 -33 28 -39 48 
-8 23 -8 42 -2 60 6 14 23 36 40 48 24 17 38 21 72 16 23 -3 46 -11 50 -19 
5 -7 9 -25 9 -40 0 -16 -5 -28 -10 -28 l-11 -1 z" fill="rgb(27, 27, 27)"/>
<path d="M4315 5985l0 0 40 -5 c38 -5 39 -5 13 -13 -4 -1 -7 -2 -10 -3 -13 -5 -18 -14 -18 -29 
0 -21 6 -25 45 -29 25 -4 45 -8 45 -11 0 -3 -20 -7 -45 -11 -39 -4 -45 -8 -45 -29 
0 -21 5 -25 50 -29 28 -4 50 -8 50 -11 0 -3 -29 -7 -65 -10 l-66 -6 3 93 
3 93 z" fill="rgb(42, 44, 42)"/>
<path d="M4520 5890c0 50 4 90 10 90 5 0 10 -28 12 -62 l3 -63 33 58 c18 31 36 57 41 57 
5 0 24 -26 43 -57 l33 -58 3 68 c2 37 7 67 12 67 6 0 10 -42 10 -96 0 -72 -3 -95 -12 -92 
-7 3 -29 32 -49 67 -33 57 -37 60 -51 44 -8 -10 -27 -39 -42 -65 -15 -27 -31 -48 -36 -48 
-6 0 -10 39 -10 90 z" fill="rgb(27, 27, 27)"/>
<path d="M4805 5890l0 95 49 3 c27 2 61 0 75 -3 23 -6 24 -8 8 -17 -10 -5 -37 -8 -60 -6 
-41 3 -42 2 -42 -27 0 -29 2 -30 44 -31 25 0 47 -6 49 -12 2 -8 -13 -12 -48 -12 
-50 0 -51 -1 -48 -27 3 -26 7 -28 51 -30 26 -2 47 -5 47 -8 0 -3 -28 -8 -62 -12 
l-63 -8 0 95 z" fill="rgb(52, 54, 53)"/>
<path d="M5017 5888c2 50 5 92 8 92 3 0 7 -29 10 -64 l6 -65 56 70 c31 38 60 69 64 69 
5 0 9 -43 9 -96 0 -72 -3 -95 -12 -92 -8 2 -14 25 -16 61 -2 31 -6 56 -10 55 
-4 -2 -32 -30 -63 -63 l-56 -60 4 93 z" fill="rgb(42, 44, 42)"/>
<path d="M5238 5815c9 -3 33 -5 61 -5 39 0 77 1 84 3 1 0 3 0 3 1 l-73 -6 -75 7 z" fill="rgb(73, 72, 74)"/>
<path d="M5549 5891l-3 94 36 3 c20 2 55 -2 77 -8 29 -8 45 -19 56 -40 8 -16 15 -38 15 -49 
0 -12 -13 -35 -29 -53 -24 -27 -36 -32 -89 -36 l-60 -4 -3 93 z" fill="rgb(42, 44, 42)"/>
<path d="M5818 5952c11 -5 27 -9 46 -10 21 -1 34 -1 43 3 7 4 12 10 19 20 11 16 20 23 26 17 
6 -6 -6 -41 -34 -93 -23 -46 -49 -85 -55 -87 -7 -2 -30 34 -53 84 -22 48 -40 88 -40 90 
0 2 5 4 11 4 7 0 18 -8 25 -17 2 -4 7 -8 12 -11 z" fill="rgb(42, 44, 42)"/>
<path d="M6026 5819c-10 11 -16 30 -14 43 2 18 15 27 56 42 28 10 52 25 52 32 0 7 -9 18 -20 24 
-14 7 -32 8 -55 1 -27 -7 -35 -6 -35 4 0 7 14 16 30 20 16 4 43 4 59 0 16 -3 35 -13 41 -21 
7 -7 10 -25 6 -38 -4 -18 -18 -28 -56 -40 -27 -9 -50 -23 -50 -30 0 -7 6 -19 14 -25 
9 -8 28 -10 50 -5 22 4 36 2 36 -4 0 -5 -7 -13 -16 -16 -9 -3 -30 -6 -48 -6 
-20 0 -40 8 -50 19 z" fill="rgb(42, 44, 42)"/>
<path d="M6378 5965l-7 -80 c-5 -64 -8 -72 -11 -40 l-5 40 -5 0 -50 0 -55 0 -2 -35 
-1 -35 -1 -7 c-1 -5 -5 -8 -11 -8 -6 0 -10 38 -10 95 0 52 4 95 9 95 5 0 12 -18 16 -40 
l7 -40 48 0 49 0 3 38 c2 20 9 38 16 40 6 2 11 -2 11 -10 l-1 -13 z" fill="rgb(27, 27, 27)"/>
<path d="M6378 5965l1 -82 c1 -68 -2 -83 -14 -83 -8 0 -15 2 -15 5 0 3 0 21 0 40 l0 35 
0 3 0 2 5 0 5 -40 c3 -32 6 -24 11 40 l7 80 z" fill="rgb(42, 44, 42)"/>
<path d="M6462 5893l3 92 53 3 c31 1 62 -4 77 -12 14 -8 25 -24 25 -34 0 -11 -6 -25 -13 -31 
-11 -8 -11 -18 -3 -43 10 -30 9 -35 -13 -50 -15 -12 -41 -18 -77 -18 l-55 0 3 93 
z" fill="rgb(42, 44, 42)"/>
<path d="M6714 5821c-14 12 -30 33 -35 47 -6 16 -6 36 1 58 8 22 22 38 47 49 20 10 49 15 67 12 
17 -2 43 -16 58 -29 21 -19 28 -35 28 -61 0 -23 -8 -46 -23 -62 -17 -20 -34 -28 -70 -31 
-37 -3 -52 0 -73 17 z" fill="rgb(27, 27, 27)"/>
<path d="M6961 5886c-22 47 -41 88 -41 90 0 2 6 4 14 4 8 0 16 -7 20 -15 4 -11 21 -15 59 -15 
45 0 57 4 69 22 8 12 19 18 26 14 8 -5 -2 -34 -33 -96 -25 -50 -51 -90 -59 -90 
-7 0 -32 39 -55 86 z" fill="rgb(42, 44, 42)"/>
<path d="M7184 5974c-2 -15 -3 -41 -3 -71 1 -48 1 -91 0 -95 0 -1 0 -1 1 -2 l-7 81 
9 87 z" fill="rgb(92, 94, 92)"/>
<path d="M7184 5974c1 8 3 13 5 12 5 -3 11 -17 13 -31 4 -19 11 -25 30 -25 15 0 35 12 52 31 
15 17 30 28 33 25 3 -2 -1 -18 -7 -33 -11 -25 -11 -32 5 -50 12 -14 16 -30 12 -49 
-2 -15 -14 -33 -26 -41 -12 -7 -43 -13 -71 -13 -24 0 -44 3 -48 6 -1 1 -1 1 -1 2 
1 4 1 47 0 95 0 30 1 56 3 71 z" fill="rgb(27, 27, 27)"/>
<path d="M7402 5893l3 92 56 0 c36 0 65 -7 83 -18 15 -10 29 -31 33 -47 3 -16 2 -41 -1 -55 
-4 -14 -20 -34 -36 -45 -21 -14 -47 -20 -85 -20 l-56 0 3 93 z" fill="rgb(42, 44, 42)"/>
<path d="M5238 5815c-3 1 -5 3 -4 4 3 5 19 11 36 13 l30 5 0 77 c0 49 4 75 10 71 6 -3 10 -38 10 -76 
0 -53 4 -71 15 -74 40 -13 54 -18 51 -21 0 -1 -2 -1 -3 -1 -7 -2 -45 -3 -84 -3 
-28 0 -52 2 -61 5 z" fill="rgb(27, 27, 27)"/>
<path d="M5580 5826c-5 3 -10 32 -10 64 0 38 5 62 15 70 11 9 23 9 57 -1 31 -10 45 -21 52 -41 
6 -18 6 -35 -2 -52 -8 -19 -23 -28 -57 -36 -25 -5 -49 -7 -55 -4 z" fill="rgb(240, 254, 246)"/>
<path d="M6242 5815l1 35 2 35 55 0 50 0 0 -2 0 -3 0 0 -49 0 c-48 0 -50 -1 -55 -32 
l-4 -33 z" fill="rgb(80, 83, 82)"/>
<path d="M6492 5848l-4 32 47 0 c42 0 46 -2 43 -22 -2 -17 -13 -26 -42 -33 -39 -10 -39 -10 -44 23 
z" fill="rgb(240, 254, 246)"/>
<path d="M6730 5843c-28 22 -32 30 -28 59 3 21 15 39 32 50 15 11 36 16 51 13 14 -3 34 -12 45 -22 
12 -10 20 -28 20 -48 0 -20 -8 -38 -20 -48 -11 -10 -31 -20 -44 -23 -16 -4 -34 2 -56 19 
z" fill="rgb(240, 254, 246)"/>
<path d="M7205 5860c0 41 2 45 27 48 15 2 37 -2 48 -8 15 -8 20 -19 18 -38 -3 -23 -10 -28 -48 -37 
l-45 -10 0 45 z" fill="rgb(240, 254, 246)"/>
<path d="M7432 5887c-3 65 -2 72 17 78 12 3 30 4 41 1 11 -3 29 -13 40 -23 12 -10 20 -28 20 -48 
0 -20 -8 -38 -20 -48 -11 -10 -37 -20 -57 -24 l-38 -8 -3 72 z" fill="rgb(240, 254, 246)"/>
<path d="M3436 5868c-9 17 -16 36 -16 42 0 5 16 10 35 10 19 0 35 -3 35 -7 -1 -5 -9 -23 -19 -42 
l-18 -35 -17 32 z" fill="rgb(234, 242, 240)"/>
<path d="M3907 5874c-9 20 -17 39 -17 41 0 3 16 5 35 5 21 0 35 -5 35 -12 0 -7 -8 -26 -18 -42 
l-17 -29 -18 37 z" fill="rgb(240, 254, 246)"/>
<path d="M6996 5872c-9 21 -16 40 -16 43 0 3 18 5 41 5 l40 0 -24 -42 -24 -43 -17 37 
z" fill="rgb(234, 242, 240)"/>
<path d="M2145 5880c-8 16 -15 31 -15 35 0 3 18 5 40 5 l40 0 -17 -35 c-9 -19 -20 -35 -25 -35 
-4 0 -14 13 -23 30 z" fill="rgb(234, 242, 240)"/>
<path d="M3614 5845l-3 67 c-1 37 3 69 8 72 4 3 11 3 15 -1 3 -3 5 -36 4 -72 l-1 -64 
-2 -2 -5 70 -5 70 -7 -90 c-1 -18 -3 -36 -4 -50 z" fill="rgb(60, 64, 61)"/>
<path d="M5843 5873c-7 15 -13 32 -13 37 0 6 16 10 36 10 30 0 35 -3 30 -17 -3 -10 -14 -27 -24 -38 
-17 -20 -17 -20 -29 8 z" fill="rgb(240, 254, 246)"/>
<path d="M4219 5899l-3 3 c-2 2 -6 16 -9 32 l-6 30 9 -8 c6 -4 10 -18 10 -32 l-1 -25 
z" fill="rgb(60, 64, 61)"/>
<path d="M6492 5938c2 23 8 27 36 30 17 1 39 -4 49 -12 9 -7 14 -20 10 -30 -5 -12 -19 -16 -52 -16 
-45 0 -46 1 -43 28 z" fill="rgb(240, 254, 246)"/>
<path d="M3390 5960l5 0 c3 0 5 -2 5 -5 0 -3 24 -5 54 -5 30 0 56 4 58 10 l3 10 13 1 
13 2 -1 -9 c0 -2 -2 -8 -6 -17 l-5 6 c-4 5 -10 4 -14 -2 -3 -6 -30 -11 -60 -11 
-30 0 -56 4 -60 10 l-5 10 z" fill="rgb(80, 83, 82)"/>
<path d="M3898 5941l4 4 c4 4 23 7 43 7 l38 -1 c-9 -9 -21 -12 -45 -13 -18 -2 -30 -1 -40 3 
z" fill="rgb(161, 166, 165)"/>
<path d="M5818 5952l47 -5 42 -2 c-9 -4 -22 -4 -43 -3 -19 1 -35 5 -46 10 z" fill="rgb(161, 166, 165)"/>
<path d="M4315 5985l49 3 c27 2 61 0 75 -3 18 -5 22 -9 13 -16 -7 -5 -30 -9 -52 -9 
l-42 4 c3 1 6 2 10 3 26 8 25 8 -13 13 l-40 5 0 0 z" fill="rgb(80, 83, 82)"/>
<path d="M3515 5970l6 5 c4 3 10 4 13 2 l7 -4 -13 -2 -13 -1 z" fill="rgb(27, 27, 27)"/>
</g>
</svg>
