<?xml version="1.0" encoding="UTF-8" standalone="no"?><!DOCTYPE svg PUBLIC "-//W3C//DTD SVG 20010904//EN"
 "http://www.w3.org/Graphics/SVG/1.1/DTD/svg11.dtd">
<svg version="1.1" baseProfile="full" xmlns="http://www.w3.org/2000/svg"
 width="1024pt" height="1024pt" viewBox="0 0 1024 1024" preserveAspectRatio="xMidYMid meet">
<g id="svg" fill="black" stroke="none" stroke-linecap="round" transform="scale(0.1,0.1)">
<path d="M0 5120l0 5120 5120 0 5120 0 0 -5120 0 -5120 -5120 0 -5120 0 0 5120 z" fill="rgb(230, 241, 232)"/>
<path d="M7061 2655c-424 195 -778 355 -786 355 -8 0 -15 3 -15 8 1 4 136 49 300 100 
165 51 300 96 300 100 0 5 -81 117 -180 251 -99 133 -184 241 -188 239 -4 -2 -135 -83 -291 -181 
-156 -98 -287 -175 -291 -170 -4 4 -184 241 -400 526 -216 285 -396 517 -400 515 
-5 -2 -248 -248 -542 -547 l-533 -544 -174 249 c-96 137 -465 659 -820 1159 
-355 501 -646 917 -646 925 0 8 96 81 215 162 118 81 217 144 221 140 3 -4 291 -405 640 -891 
l633 -883 176 178 c96 99 329 338 517 533 188 194 346 350 352 347 6 -4 193 -242 417 -529 
224 -287 420 -537 435 -555 l27 -34 291 177 c160 97 298 175 305 172 8 -3 164 -214 347 -469 
184 -255 337 -464 340 -465 3 -2 67 72 141 165 75 92 150 185 167 206 17 22 34 37 37 34 
3 -3 47 -352 99 -774 52 -423 96 -788 99 -811 4 -32 2 -43 -8 -43 -8 0 -361 160 -785 355 
z" fill="rgb(48, 160, 74)"/>
<path d="M6231 5178l5 5 c4 4 7 242 7 529 0 288 -4 601 -8 696 0 2 0 5 0 7 -5 126 -4 169 5 180 
11 13 77 15 472 15 297 0 466 -4 479 -10 19 -10 19 -34 19 -1175 0 -640 -3 -1170 -6 -1179 
-3 -9 -14 -16 -24 -16 -11 0 -92 105 -240 311 -122 171 -228 313 -235 315 
-7 3 -104 -49 -215 -116 -112 -66 -210 -120 -219 -118 -8 2 -21 14 -28 28 
-8 16 -11 140 -12 528 z" fill="rgb(5, 52, 5)"/>
<path d="M5013 5510l-7 0 c-3 0 -6 -1 -6 -3 0 -1 -7 -10 -15 -20 l-13 -19 -18 2 c-8 0 -13 -4 -10 -9 
5 -7 -2 -21 -11 -21 -1 0 -3 -3 -3 -7 l0 -7 c-100 -101 -248 -249 -392 -393 
-300 -300 -395 -390 -405 -381 -7 5 -22 25 -33 43 l-21 33 105 264 c57 145 218 562 356 928 
139 366 257 671 262 678 8 9 85 12 324 12 173 0 319 -4 325 -8 5 -5 159 -411 341 -903 
181 -492 343 -936 359 -988 16 -52 29 -106 29 -121 0 -20 -9 -31 -41 -49 
-34 -20 -43 -21 -54 -10 -7 8 -205 255 -440 549 -235 294 -438 545 -452 558 
-14 13 -29 19 -36 15 -7 -5 -60 -57 -119 -118 -7 -7 -15 -15 -25 -25 z" fill="rgb(5, 52, 5)"/>
<path d="M3507 5519l-467 652 0 208 c0 174 3 210 15 220 11 8 152 11 479 11 381 0 465 -2 475 -13 
8 -11 10 -238 9 -863 l-3 -849 -21 -9 c-19 -9 -61 47 -487 643 z" fill="rgb(5, 52, 5)"/>
<path d="M6231 5178c0 103 0 224 0 367 l4 870 c0 -2 0 -5 0 -7 4 -95 8 -408 8 -696 
0 -287 -3 -525 -7 -529 l-5 -5 z" fill="rgb(48, 91, 46)"/>
<path d="M5013 5510c-12 -12 -25 -26 -41 -42 l13 19 c8 10 15 19 15 20 0 2 3 3 6 3 
l7 0 zm-41 -42 c-13 -13 -27 -27 -42 -42 l0 7 c0 4 2 7 3 7 9 0 16 14 11 21 -3 5 2 9 10 9 
l18 -2 z" fill="rgb(93, 129, 96)"/>
<path d="M3937 6924c-30 14 -71 44 -92 67 -21 24 -47 64 -57 91 -10 27 -18 72 -18 102 
0 29 7 73 15 97 9 24 29 61 46 82 17 21 55 51 84 68 41 23 69 31 124 35 
62 3 79 0 135 -24 48 -22 75 -42 109 -84 35 -43 49 -69 58 -117 10 -45 10 -74 2 -113 
-6 -31 -26 -74 -49 -107 -26 -38 -56 -66 -93 -86 -44 -25 -66 -30 -132 -32 
-66 -3 -88 1 -132 21 z" fill="rgb(5, 52, 5)"/>
<path d="M3060 6915l0 0 0 105 c0 48 -2 137 -5 215 0 16 -1 31 -1 45 -6 134 -5 157 9 168 
9 8 34 12 64 10 l48 -3 5 -150 c5 -138 6 -148 19 -120 8 17 37 85 66 153 
l53 122 41 0 c23 0 45 -3 49 -7 4 -5 35 -72 67 -150 32 -79 63 -143 67 -143 
4 0 8 65 8 144 0 122 2 145 16 150 9 3 31 6 50 6 19 0 39 -4 44 -8 7 -5 9 -102 8 -273 
l-3 -264 -75 0 -75 0 -72 168 c-40 92 -75 167 -78 167 -3 0 -38 -75 -78 -167 
l-72 -168 -78 0 -77 0 z" fill="rgb(5, 52, 5)"/>
<path d="M4455 7255c1 20 2 36 4 45 3 31 3 72 -2 93 -1 4 -2 8 -3 12 -2 17 -3 34 0 40 
4 10 20 15 51 15 l45 0 0 -5 c0 -3 2 -5 5 -5 3 0 5 -72 5 -161 0 -88 3 -159 8 -157 
l7 3 108 158 108 157 4 0 53 3 57 2 3 -272 2 -273 -55 0 -55 0 0 160 c0 88 -4 160 -8 160 
-5 0 -57 -72 -115 -160 l-107 -160 -60 0 -60 0 1 168 c0 63 2 131 4 177 
z" fill="rgb(5, 52, 5)"/>
<path d="M5055 7450l186 -2 184 -3 8 0 -2 -44 c0 -25 -5 -48 -11 -53 l-10 -8 -122 -2 
-123 -3 0 -45 0 -45 112 -3 c109 -3 113 -3 119 -26 3 -13 4 -37 2 -52 l-3 -29 -115 -5 
-115 -5 -3 -52 -3 -52 133 -3 133 -3 0 -50 0 -50 -185 0 -185 0 -3 268 -2 267 5 0 
z" fill="rgb(5, 52, 5)"/>
<path d="M5490 6925c0 8 41 126 91 262 50 137 96 254 102 261 7 9 30 12 71 10 l61 -3 102 -268 
c73 -193 98 -270 88 -273 -7 -3 -37 -4 -66 -2 l-54 3 -63 183 c-35 100 -67 182 -71 182 
-5 0 -32 -71 -61 -157 -29 -87 -59 -170 -67 -185 -12 -26 -18 -28 -73 -28 
-47 0 -60 3 -60 15 z" fill="rgb(5, 52, 5)"/>
<path d="M6095 7180l0 275 34 3 c19 2 44 1 58 -2 l23 -6 -2 -268 -3 -267 -55 -5 -55 -5 0 275 
z" fill="rgb(5, 52, 5)"/>
<path d="M6285 6960l0 55 78 3 77 3 0 208 c0 168 3 211 14 220 8 7 34 11 58 9 l43 -3 5 -215 
5 -215 73 -3 72 -3 0 -54 0 -55 -212 -2 -213 -3 0 55 z" fill="rgb(5, 52, 5)"/>
<path d="M7047 7435c2 -19 3 -51 3 -86 l0 -92 8 -13 84 -138 c50 -83 97 -158 105 -167 
7 -9 10 -19 6 -22 -3 -4 -34 -7 -69 -7 l-62 0 -58 98 c-33 53 -62 97 -67 97 
-4 0 -31 -43 -60 -95 l-52 -95 -59 -3 c-32 -2 -63 1 -67 5 -4 4 34 81 85 171 
l92 162 -4 84 c-3 52 0 91 7 104 9 18 21 22 56 22 24 0 46 -4 49 -9 1 -2 2 -7 3 -16 
z" fill="rgb(5, 52, 5)"/>
<path d="M3060 6915l-6 160 1 160 c3 -78 5 -167 5 -215 l0 -105 0 0 z" fill="rgb(118, 155, 119)"/>
<path d="M3993 7028c-21 9 -53 36 -70 59 -28 36 -33 51 -33 96 0 41 6 63 25 90 13 20 41 46 62 57 
22 12 57 20 84 20 32 0 57 -7 82 -24 19 -13 45 -38 58 -55 18 -24 23 -45 23 -85 
0 -42 -6 -63 -28 -96 -15 -23 -44 -50 -67 -61 -21 -10 -52 -19 -69 -19 -16 0 -47 8 -67 18 
z" fill="rgb(230, 241, 232)"/>
<path d="M4550 7460l5 0 c3 0 6 -1 7 -2 1 -2 5 -75 8 -163 l5 -160 -7 -3 c-5 -2 -8 69 -8 157 
0 89 -2 161 -5 161 -3 0 -5 2 -5 5 l0 5 z" fill="rgb(139, 173, 140)"/>
<path d="M7047 7435l10 -95 1 -96 -8 13 0 92 c0 35 -1 67 -3 86 z" fill="rgb(88, 134, 95)"/>
<path d="M4455 7255l-3 75 2 75 c1 -4 2 -8 3 -12 5 -21 5 -62 2 -93 -2 -9 -3 -25 -4 -45 
z" fill="rgb(11, 66, 23)"/>
<path d="M5433 7445l7 -50 c4 -27 7 -50 6 -50 -1 0 -9 -1 -18 -2 l-18 -3 10 8 c6 5 11 28 11 53 
l2 44 z" fill="rgb(139, 173, 140)"/>
<path d="M4795 7450l55 5 55 0 -57 -2 -53 -3 z" fill="rgb(88, 134, 95)"/>
<path d="M5055 7450l185 5 185 -10 -184 3 -186 2 z" fill="rgb(73, 119, 74)"/>
</g>
</svg>
