<?xml version="1.0" encoding="UTF-8" standalone="no"?><!DOCTYPE svg PUBLIC "-//W3C//DTD SVG 20010904//EN"
 "http://www.w3.org/Graphics/SVG/1.1/DTD/svg11.dtd">
<svg version="1.1" baseProfile="full" xmlns="http://www.w3.org/2000/svg"
 width="1024pt" height="1024pt" viewBox="0 0 1024 1024" preserveAspectRatio="xMidYMid meet">
<g id="svg" fill="black" stroke="none" stroke-linecap="round" transform="scale(0.1,0.1)">
<path d="M0 5120l0 5120 5120 0 5120 0 0 -5120 0 -5120 -5120 0 -5120 0 0 5120 z" fill="rgb(238, 254, 250)"/>
<path d="M6657 4583c-9 6 -21 24 -26 39 -7 19 -7 37 0 58 6 17 19 35 29 40 10 6 31 10 45 10 
16 0 38 -12 57 -30 25 -26 29 -36 24 -62 -3 -18 -14 -40 -23 -50 -10 -11 -30 -18 -53 -18 
-20 0 -44 6 -53 13 z" fill="rgb(10, 103, 49)"/>
<path d="M1835 4664c-21 8 -41 26 -49 42 -8 16 -30 156 -50 312 -20 156 -37 286 -37 290 
-1 4 -1 11 0 15 0 4 49 -83 107 -193 58 -110 114 -204 124 -210 10 -5 24 -10 31 -10 
7 0 61 47 120 105 60 58 118 110 129 115 11 6 27 7 34 3 8 -4 64 -63 126 -131 
102 -114 113 -123 143 -120 30 3 37 11 124 173 51 94 98 181 106 195 10 18 17 22 26 14 
9 -8 3 -73 -23 -274 -24 -174 -41 -271 -51 -287 -9 -14 -32 -31 -50 -39 
-19 -8 -50 -14 -70 -14 -19 0 -50 8 -67 18 -27 14 -51 51 -133 207 -55 105 -110 197 -122 205 
-15 11 -26 12 -39 5 -10 -5 -57 -93 -104 -194 -52 -110 -97 -193 -113 -207 
-18 -16 -44 -26 -77 -29 -31 -3 -64 0 -85 9 z" fill="rgb(10, 103, 49)"/>
<path d="M3188 4683c-43 15 -86 42 -134 83 -55 47 -79 77 -104 127 -18 37 -35 86 -37 109 
-4 33 0 49 14 66 12 16 32 25 61 28 23 2 53 0 67 -6 15 -6 47 -41 75 -84 
42 -64 59 -80 115 -110 43 -24 78 -36 105 -36 21 0 60 7 85 16 31 10 71 38 121 86 
71 67 77 71 121 71 40 0 50 -4 76 -33 24 -27 28 -39 24 -66 -3 -19 -22 -59 -43 -89 
-20 -31 -61 -74 -91 -95 -30 -22 -83 -51 -119 -65 -54 -21 -81 -25 -169 -25 
-84 0 -118 5 -167 23 z" fill="rgb(10, 103, 49)"/>
<path d="M3975 4855c3 68 6 148 7 180 0 28 2 46 6 55 2 3 3 5 6 5 6 0 32 -27 59 -60 
26 -33 59 -72 75 -87 15 -15 42 -31 60 -34 31 -6 39 0 212 171 98 97 184 175 191 173 
7 -2 41 -77 76 -166 58 -149 65 -162 88 -162 l25 0 0 -105 c0 -99 -2 -108 -24 -130 
-14 -14 -42 -27 -64 -31 -22 -3 -56 -1 -75 5 -20 7 -42 23 -51 36 -13 20 -16 56 -16 188 
0 90 -2 166 -5 169 -3 3 -95 -86 -205 -198 l-200 -204 -56 0 c-49 0 -59 4 -86 30 
l-31 31 7 127 c0 2 1 5 1 7 z" fill="rgb(10, 103, 49)"/>
<path d="M5686 4683c-15 12 -29 36 -32 52 -4 21 2 44 20 78 14 26 109 135 211 242 
132 140 190 193 199 188 8 -4 89 -98 181 -208 92 -109 178 -206 192 -215 
21 -13 26 -23 27 -65 1 -39 -4 -55 -21 -72 -18 -20 -32 -23 -92 -23 -63 0 -74 3 -100 27 
-25 23 -42 67 -105 266 -42 130 -76 244 -76 252 0 8 -4 15 -8 15 -4 0 -27 -51 -49 -112 
-23 -62 -67 -180 -97 -261 -46 -121 -62 -151 -86 -167 -21 -14 -47 -20 -84 -20 
-43 0 -61 5 -80 23 z" fill="rgb(10, 103, 49)"/>
<path d="M7050 4670l305 5 305 5 -21 -10 c-14 -7 -123 -8 -305 -5 l-284 5 z" fill="rgb(38, 121, 75)"/>
<path d="M8254 5455l0 -97 8 -97 0 -6 122 -230 c68 -126 126 -243 130 -259 4 -16 2 -41 -4 -57 
-8 -18 -24 -32 -47 -40 -20 -6 -56 -9 -84 -5 -27 3 -60 13 -74 21 -17 11 -48 63 -95 162 
-39 80 -72 144 -74 142 -2 -2 -38 -66 -79 -141 -48 -86 -87 -145 -107 -160 
-26 -19 -44 -23 -97 -22 -56 0 -69 4 -84 23 -11 13 -19 37 -19 53 0 20 47 113 140 279 
l140 249 0 130 c0 126 1 132 25 155 20 21 34 25 84 25 48 0 65 -5 86 -22 
20 -18 25 -25 29 -103 z" fill="rgb(10, 103, 49)"/>
<path d="M4969 4699c-26 27 -29 36 -29 94 0 40 4 67 11 69 7 2 52 -2 100 -9 49 -7 175 -18 281 -23 
114 -7 198 -16 206 -22 9 -8 12 -26 10 -51 -2 -21 -13 -50 -25 -63 l-21 -24 -252 0 
-252 0 -29 29 z" fill="rgb(10, 103, 49)"/>
<path d="M7050 4670l-12 0 c-6 0 -22 10 -35 22 -19 18 -23 32 -23 81 0 51 4 62 29 88 
28 28 33 29 121 29 70 0 92 3 96 15 3 8 4 101 1 207 l-5 140 -3 56 11 11 0 109 
c0 102 2 110 24 131 21 20 33 22 92 19 63 -3 69 -5 86 -33 16 -27 18 -58 18 -342 
l0 -313 96 0 c92 0 97 -1 125 -29 25 -26 29 -37 29 -89 0 -47 -4 -62 -20 -75 
l-20 -17 -305 -5 -305 -5 z" fill="rgb(10, 103, 49)"/>
<path d="M5120 4886l21 14 c4 2 14 3 29 4 34 2 92 0 176 -4 101 -6 200 -12 219 -15 
19 -3 44 -10 55 -16 11 -5 18 -15 14 -20 -3 -6 -13 -8 -21 -5 -8 4 -114 13 -234 21 
-88 6 -189 14 -259 21 z" fill="rgb(89, 177, 128)"/>
<path d="M7222 5252l-106 -110 c-59 -61 -143 -137 -186 -166 -43 -30 -114 -69 -158 -85 
-47 -18 -119 -36 -175 -43 -78 -10 -98 -9 -111 2 -9 7 -15 15 -12 17 2 2 45 8 95 14 
50 5 114 16 141 24 28 8 76 28 109 44 32 17 92 56 132 89 41 32 120 109 177 170 
l91 100 3 -56 z" fill="rgb(98, 175, 136)"/>
<path d="M3975 4855l-1 120 14 115 c-4 -9 -6 -27 -6 -55 -1 -32 -4 -112 -7 -180 z" fill="rgb(58, 145, 101)"/>
<path d="M5816 5200c87 179 170 337 182 353 21 24 31 27 83 27 39 0 69 -6 85 -17 20 -12 55 -89 160 -341 
74 -179 134 -329 134 -334 0 -4 -4 -8 -9 -8 -5 0 -87 92 -181 205 -114 136 -178 205 -191 205 
-11 0 -70 -53 -147 -132 -70 -73 -161 -167 -202 -208 l-73 -75 159 325 z" fill="rgb(10, 103, 49)"/>
<path d="M5120 4886c-26 2 -47 5 -62 7 -43 5 -93 10 -125 13 l2 22 3 20 10 6 c5 3 7 18 4 33 
l-8 28 c4 62 7 177 8 285 l3 245 28 20 c26 18 47 20 268 23 l240 3 29 -30 
c26 -25 30 -37 30 -81 0 -45 -4 -56 -29 -79 -28 -26 -31 -26 -190 -29 l-161 -3 0 -74 
0 -75 136 0 c102 0 144 -4 169 -15 18 -9 37 -27 44 -41 6 -14 11 -39 11 -57 
-1 -18 -6 -41 -13 -52 -7 -11 -24 -28 -39 -37 -23 -15 -52 -18 -168 -18 
l-140 0 0 -45 0 -51 c-15 -1 -25 -2 -29 -4 l-21 -14 z" fill="rgb(10, 103, 49)"/>
<path d="M4933 4906c-11 1 -19 1 -25 2 -27 1 -63 10 -80 20 -16 8 -37 25 -52 40 l1 18 
20 -11 c5 -5 37 -18 73 -28 l65 -19 -2 -22 z" fill="rgb(110, 187, 151)"/>
<path d="M2382 5038c-56 65 -112 124 -125 131 -15 8 -34 10 -47 6 -13 -4 -74 -57 -137 -117 
-62 -60 -119 -108 -125 -106 -7 3 -70 114 -141 249 -104 197 -129 253 -130 289 
-2 35 3 51 21 70 20 22 31 25 87 25 56 0 68 -3 91 -26 24 -25 27 -37 44 -203 
9 -97 19 -179 22 -181 2 -2 43 76 91 173 48 97 100 189 116 205 22 22 37 27 79 28 
34 1 61 -4 79 -16 16 -11 45 -53 69 -99 23 -45 63 -130 90 -190 44 -99 49 -106 55 -80 
4 16 20 98 35 183 21 117 32 159 49 179 18 21 33 26 83 30 58 4 63 3 92 -26 
25 -26 30 -38 29 -79 0 -26 -6 -73 -12 -103 -10 -48 -15 -55 -35 -55 -20 0 -37 -27 -128 -202 
-91 -178 -107 -203 -128 -203 -18 0 -48 29 -124 118 z" fill="rgb(10, 103, 49)"/>
<path d="M4776 4968c-3 2 -5 5 -7 7 -15 17 -54 99 -88 183 -53 129 -66 152 -84 152 
-14 0 -81 -59 -202 -180 -122 -121 -188 -180 -203 -180 -14 0 -42 25 -86 77 
-36 43 -66 85 -66 94 0 9 -6 22 -13 28 -4 3 -19 5 -47 5 -8 37 -4 106 -3 183 
4 181 6 200 25 220 11 11 35 24 54 27 18 4 52 2 74 -4 23 -6 47 -21 56 -36 
14 -20 17 -55 18 -192 1 -117 4 -168 13 -169 6 -2 94 83 194 188 101 105 196 197 211 205 
15 8 41 14 58 14 16 0 42 -7 56 -15 14 -8 32 -28 40 -44 12 -23 14 -77 11 -292 
l-10 -253 -1 -18 z" fill="rgb(10, 103, 49)"/>
<path d="M4938 4948l3 32 c1 8 2 20 3 35 l8 -28 c3 -15 1 -30 -4 -33 l-10 -6 z" fill="rgb(99, 163, 126)"/>
<path d="M6608 5095l-1 190 -1 190 c1 15 1 25 2 29 1 16 12 40 24 53 18 19 32 23 84 23 
57 0 64 -2 88 -31 l26 -31 0 -211 c0 -166 -3 -218 -15 -240 -8 -15 -31 -35 -51 -43 
-24 -10 -50 -13 -74 -9 -23 4 -47 17 -61 33 -12 13 -17 21 -21 47 z" fill="rgb(10, 103, 49)"/>
<path d="M3579 5129c1 -3 2 -6 3 -9 0 -8 1 -19 2 -24 0 -1 0 -1 0 -1 1 -5 -13 -14 -30 -19 
-17 -5 -38 -6 -47 -3 -11 4 -17 18 -17 37 0 23 6 33 25 42 19 8 29 8 45 -3 
8 -5 15 -13 19 -20 z" fill="rgb(38, 121, 75)"/>
<path d="M3125 5139l5 26 0 21 c8 -1 16 -1 25 -1 l60 0 3 -32 c2 -24 -2 -34 -18 -43 
-11 -6 -29 -8 -40 -5 -10 3 -21 14 -24 23 -1 3 -5 7 -11 11 z" fill="rgb(10, 103, 49)"/>
<path d="M3980 5154c-13 -14 -15 -23 -17 -25 -5 -5 -92 -15 -193 -21 l-186 -12 c-1 5 -2 16 -2 24 
-1 3 -2 6 -3 9 l219 16 c88 6 146 9 182 9 z" fill="rgb(98, 175, 136)"/>
<path d="M6608 5095c-3 29 -3 79 -3 180 0 81 1 158 1 200 l1 -190 1 -190 z" fill="rgb(86, 160, 127)"/>
<path d="M3125 5139c-15 11 -48 25 -97 41 -57 19 -133 47 -170 62 -42 17 -68 34 -68 43 
0 8 3 15 6 15 4 0 73 -26 153 -57 100 -40 142 -53 181 -57 l0 -21 -5 -26 
z" fill="rgb(89, 177, 128)"/>
<path d="M3566 5280c-34 33 -79 66 -99 75 -22 9 -67 15 -112 15 -54 0 -86 -5 -114 -19 
-22 -11 -63 -38 -91 -60 -34 -27 -62 -41 -81 -41 -17 0 -41 11 -61 29 -26 23 -32 36 -31 65 
1 23 12 53 30 79 15 23 48 58 73 77 25 19 69 45 98 58 31 13 84 25 131 28 
57 5 99 2 154 -10 53 -12 99 -31 147 -61 51 -32 81 -59 110 -102 22 -32 43 -75 46 -95 
6 -32 2 -41 -24 -68 -24 -24 -39 -30 -72 -30 -37 0 -48 6 -104 60 z" fill="rgb(10, 103, 49)"/>
<path d="M8254 5455c1 -16 1 -36 2 -60 l6 -134 -8 97 0 97 z" fill="rgb(110, 187, 151)"/>
<path d="M8408 5600c1 -1 2 -1 2 -3 0 -4 2 -7 3 -7 2 0 11 -9 20 -20 10 -11 17 -22 17 -25 
0 -3 19 -21 43 -41 12 -10 20 -18 26 -24 9 -11 10 -18 3 -23 -9 -9 -28 5 -80 58 
-59 61 -65 71 -49 80 6 4 12 6 15 5 z" fill="rgb(98, 175, 136)"/>
<path d="M8408 5600l6 1 c4 -1 6 -2 6 -4 0 -1 24 -27 53 -57 l46 -60 c-6 6 -14 14 -26 24 
-24 20 -43 38 -43 41 0 3 -7 14 -17 25 -9 11 -18 20 -20 20 -1 0 -3 3 -3 7 
0 2 -1 2 -2 3 z" fill="rgb(146, 207, 176)"/>
</g>
</svg>
