<?xml version="1.0" encoding="UTF-8" standalone="no"?><!DOCTYPE svg PUBLIC "-//W3C//DTD SVG 20010904//EN"
 "http://www.w3.org/Graphics/SVG/1.1/DTD/svg11.dtd">
<svg version="1.1" baseProfile="full" xmlns="http://www.w3.org/2000/svg"
 width="1024pt" height="1024pt" viewBox="0 0 1024 1024" preserveAspectRatio="xMidYMid meet">
<g id="svg" fill="black" stroke="none" stroke-linecap="round" transform="scale(0.1,0.1)">
<path d="M0 5120l0 5120 5120 0 5120 0 0 -5120 0 -5120 -5120 0 -5120 0 0 5120 z" fill="rgb(234, 235, 231)"/>
<path d="M7245 4051c-28 14 -65 43 -83 65 -20 25 -35 59 -42 93 -7 36 -7 66 0 91 6 20 21 54 35 74 
13 20 46 48 71 61 34 18 62 25 104 25 41 0 70 -7 104 -25 27 -14 59 -43 78 -70 
29 -41 33 -54 33 -113 0 -55 -5 -74 -26 -107 -14 -22 -41 -53 -60 -69 -25 -20 -54 -32 -99 -40 
-61 -10 -68 -10 -115 15 z" fill="rgb(5, 79, 64)"/>
<path d="M1109 4853l-9 -30 c0 -14 2 -24 4 -22 1 1 7 18 16 49 20 68 58 200 100 350 
62 217 116 403 121 413 9 15 29 17 204 17 l194 0 15 -52 c8 -29 33 -120 56 -203 
22 -82 68 -246 102 -364 35 -122 64 -208 68 -201 4 7 8 194 9 416 l2 404 187 -2 
187 -3 3 -747 2 -748 -290 0 -290 0 -9 23 c-5 12 -60 213 -122 447 -63 234 -115 425 -116 425 
-1 0 -42 -151 -92 -335 -49 -184 -103 -386 -120 -448 l-31 -112 -290 5 c-159 3 -290 7 -290 10 
0 3 0 338 0 745 l0 740 184 0 183 0 7 -61 c3 -34 6 -210 6 -390 0 -205 3 -308 9 -326 
z" fill="rgb(5, 79, 64)"/>
<path d="M7769 4823l5 7 c4 4 6 101 5 216 l-3 209 c1 23 2 42 3 55 4 47 14 104 21 128 
8 24 32 64 54 89 22 25 63 58 91 72 49 26 53 26 265 26 l215 0 0 -140 0 -140 -97 -2 
c-54 -2 -111 -8 -127 -14 -16 -6 -34 -23 -40 -37 -8 -18 -10 -103 -9 -247 
l3 -220 6 -8 c3 -4 45 -7 92 -7 l87 0 0 0 0 -102 c0 -64 4 -98 9 -92 6 5 89 223 186 484 
l175 475 40 3 c22 2 40 6 40 10 0 4 -11 48 -25 97 -14 50 -34 102 -45 117 
-19 26 -25 27 -113 30 l-92 3 0 150 0 150 123 3 c81 2 145 -2 187 -12 36 -8 84 -28 110 -46 
32 -22 57 -51 80 -93 18 -34 95 -237 170 -452 75 -214 186 -523 245 -685 
60 -162 111 -303 115 -312 7 -17 -7 -18 -208 -18 l-215 0 -11 33 c-6 17 -48 181 -94 364 
l-84 332 -52 -217 c-29 -119 -69 -282 -89 -362 l-37 -145 -292 -2 c-161 -2 -300 -5 -308 -8 
-2 0 -3 -1 -4 -2 -9 -9 -11 -36 -11 -118 l0 -115 0 0 -185 0 -185 0 0 120 
0 120 -80 0 -80 0 0 150 0 149 79 2 80 2 z" fill="rgb(5, 79, 64)"/>
<path d="M8151 4513l-3 -116 -8 -117 0 115 c0 82 2 109 11 118 z" fill="rgb(38, 100, 84)"/>
<path d="M2915 4463c-41 12 -113 45 -160 74 -65 40 -98 69 -143 125 -35 43 -72 106 -92 153 
-30 71 -34 93 -38 190 -4 102 -2 116 23 178 15 38 30 67 34 65 3 -2 23 -15 44 -29 
l38 -27 -15 -53 c-9 -29 -16 -80 -16 -113 0 -40 10 -89 28 -141 22 -65 39 -94 93 -156 
54 -63 80 -84 142 -114 51 -25 101 -41 154 -49 l78 -11 3 -57 3 -58 -51 0 
c-27 0 -84 10 -125 23 z" fill="rgb(5, 79, 64)"/>
<path d="M4479 5619c0 1 1 1 1 1 6 0 89 0 185 0 l175 0 0 0 0 -392 c-1 -336 -3 -403 -18 -465 
-11 -46 -31 -93 -54 -126 -26 -39 -53 -64 -93 -86 -39 -22 -81 -35 -133 -43 
-60 -8 -95 -7 -159 3 -67 12 -93 22 -152 60 l-71 47 0 -49 0 -49 -185 0 
-185 0 0 555 0 555 188 -2 187 -3 5 -365 5 -365 24 -34 c14 -19 39 -43 58 -53 
23 -13 48 -17 83 -14 39 2 58 10 80 31 21 20 32 44 40 84 5 30 10 202 10 383 
0 202 3 317 9 327 z" fill="rgb(5, 79, 64)"/>
<path d="M5305 4519c-41 11 -103 35 -138 54 -35 19 -85 59 -114 91 -33 36 -61 80 -79 124 
-16 40 -32 109 -40 172 -10 78 -11 131 -4 205 5 55 18 130 30 167 12 40 38 90 64 125 
28 37 66 72 105 96 34 20 94 47 134 60 64 20 90 22 240 20 131 -2 188 -8 265 -25 
53 -13 120 -34 147 -48 l50 -25 3 -124 c1 -69 1 -130 -2 -136 -2 -7 -42 -1 -117 20 
-63 16 -165 36 -228 43 -63 8 -138 11 -167 7 -31 -4 -68 -17 -90 -31 -20 -14 -42 -37 -49 -52 
-7 -15 -15 -38 -17 -52 l-3 -25 345 -5 345 -5 -2 -140 c-1 -95 -7 -163 -18 -209 
-10 -41 -34 -95 -60 -135 -29 -45 -61 -79 -97 -105 -30 -20 -82 -46 -116 -57 
-42 -13 -103 -21 -187 -24 -102 -4 -139 -2 -200 14 z" fill="rgb(5, 79, 64)"/>
<path d="M7144 4845c1 26 3 52 4 73 4 52 4 96 -1 99 l-6 4 c0 78 1 190 1 299 l3 305 190 0 
190 0 0 -550 0 -550 -396 -3 c-312 -2 -398 0 -401 10 -2 7 -42 173 -88 368 
l-83 355 -89 -345 c-48 -190 -93 -355 -98 -367 -9 -23 -12 -23 -213 -23 
-112 0 -206 2 -208 4 -2 3 90 252 205 555 l210 551 192 0 192 0 26 -67 c14 -38 95 -252 180 -478 
107 -285 159 -411 170 -413 14 -3 16 8 17 75 0 25 2 62 3 98 z" fill="rgb(5, 79, 64)"/>
<path d="M3457 4653c-64 39 -117 76 -117 82 0 5 16 21 35 34 19 13 35 27 35 31 0 4 -39 67 -86 141 
-48 74 -89 137 -93 142 -4 4 -38 -37 -76 -90 -37 -54 -74 -99 -82 -100 -7 -2 -50 56 -99 132 
-47 74 -89 137 -94 140 -5 3 -23 -13 -41 -35 -17 -21 -36 -37 -40 -34 -5 3 -56 79 -114 170 
-58 90 -105 169 -105 176 0 6 8 16 18 22 15 10 27 -5 99 -114 45 -69 89 -134 97 -145 
16 -20 17 -19 50 18 18 20 37 36 42 35 5 -2 49 -64 99 -140 49 -75 93 -134 97 -132 
4 3 36 47 72 99 36 52 69 95 74 95 6 0 55 -69 109 -153 55 -83 105 -161 111 -172 
10 -19 12 -19 41 9 23 22 32 26 36 15 3 -8 18 -76 34 -152 16 -75 26 -139 22 -142 
-4 -2 -60 28 -124 68 z" fill="rgb(5, 79, 64)"/>
<path d="M5372 4812c-26 16 -47 38 -56 59 -8 19 -16 50 -18 69 l-3 35 163 3 162 2 0 -28 
c0 -15 -9 -49 -20 -74 -10 -25 -31 -53 -46 -63 -15 -9 -52 -19 -83 -22 -48 -5 -63 -2 -99 19 
z" fill="rgb(234, 235, 231)"/>
<path d="M1109 4853c0 -2 1 -3 2 -3 l9 0 c-9 -31 -15 -48 -16 -49 -2 -2 -4 8 -4 22 
l9 30 z" fill="rgb(168, 187, 178)"/>
<path d="M8155 4825l93 -5 92 -10 -87 0 c-47 0 -89 3 -92 7 l-6 8 z" fill="rgb(38, 100, 84)"/>
<path d="M7769 4823l1 201 c1 80 3 170 6 231 l3 -209 c1 -115 -1 -212 -5 -216 l-5 -7 
z" fill="rgb(105, 151, 136)"/>
<path d="M7144 4845l-3 85 c0 16 0 49 0 91 l6 -4 c5 -3 5 -47 1 -99 -1 -21 -3 -47 -4 -73 
z" fill="rgb(105, 151, 136)"/>
<path d="M3154 5536l-5 7 c-3 4 -15 7 -27 7 -20 0 -22 6 -24 55 l-2 55 40 0 c23 0 79 -11 126 -24 
47 -14 114 -43 153 -68 39 -24 93 -68 121 -99 29 -30 66 -81 83 -111 18 -31 40 -89 51 -129 
11 -41 20 -106 20 -144 0 -39 -7 -97 -15 -130 -9 -32 -20 -64 -26 -71 -8 -10 -19 -7 -50 14 
-38 26 -39 28 -32 67 5 22 8 78 7 125 0 71 -5 97 -30 155 -20 48 -48 91 -89 135 
-44 48 -80 75 -137 104 -50 25 -102 42 -150 50 l-14 2 z" fill="rgb(5, 79, 64)"/>
<path d="M9370 5478c-16 17 -31 41 -31 54 -1 13 -1 32 0 43 1 11 13 30 27 43 16 14 38 22 60 22 
26 0 44 -8 65 -29 21 -21 29 -39 29 -64 0 -23 -8 -43 -25 -61 -14 -15 -40 -30 -60 -33 
-29 -5 -39 -1 -65 25 z" fill="rgb(60, 120, 98)"/>
<path d="M9390 5490c-24 15 -30 26 -30 54 0 23 7 42 22 56 12 11 32 20 45 20 13 0 35 -11 48 -25 
14 -13 25 -34 25 -47 0 -13 -6 -31 -14 -40 -7 -10 -24 -22 -39 -27 -21 -8 -33 -6 -57 9 
z" fill="rgb(216, 221, 213)"/>
<path d="M9392 5530c-2 16 -1 38 2 47 6 15 9 15 16 3 7 -12 12 -12 28 3 19 18 20 17 24 -20 
3 -21 1 -44 -5 -50 -5 -7 -21 -13 -35 -13 -21 0 -26 6 -30 30 z" fill="rgb(60, 120, 98)"/>
<path d="M9420 5530c0 6 2 10 5 10 3 0 8 -4 11 -10 3 -6 1 -10 -5 -10 -6 0 -11 4 -11 10 
z" fill="rgb(216, 221, 213)"/>
<path d="M3154 5536l-59 9 0 58 0 57 1 0 2 -55 c2 -49 4 -55 24 -55 12 0 24 -3 27 -7 
l5 -7 z" fill="rgb(105, 151, 136)"/>
<path d="M4479 5619l176 6 185 -5 -175 0 c-96 0 -179 0 -185 0 0 0 -1 0 -1 -1 z" fill="rgb(78, 135, 115)"/>
<path d="M5292 6045l4 -92 c4 -78 7 -93 21 -93 9 0 20 5 24 11 l7 10 -2 -18 c-1 -14 -6 -17 -28 -11 
l-28 6 1 94 1 93 z" fill="rgb(152, 180, 168)"/>
<path d="M735 5860l80 0 c47 0 91 -1 98 -2 2 -1 5 0 7 2 l-90 -5 -95 5 z" fill="rgb(185, 200, 190)"/>
<path d="M2107 5863c-18 7 -42 26 -55 41 -18 23 -22 42 -22 97 0 62 3 72 29 101 27 30 34 32 100 35 
39 2 76 -1 82 -6 7 -5 9 -16 6 -24 -5 -13 -17 -15 -61 -10 -49 5 -57 3 -80 -20 
-21 -21 -26 -36 -26 -77 0 -41 5 -56 25 -76 22 -22 33 -25 78 -22 46 3 52 1 52 -17 
0 -16 -9 -21 -47 -27 -32 -6 -59 -4 -81 5 z" fill="rgb(5, 79, 64)"/>
<path d="M3990 5863c-31 10 -45 23 -60 52 -11 22 -20 59 -20 82 0 24 6 59 14 78 8 19 28 41 45 49 
17 9 55 16 89 16 32 0 66 -6 76 -13 14 -10 16 -25 14 -77 l-3 -65 -53 -3 
c-47 -3 -53 -1 -50 15 2 10 16 21 31 25 20 5 27 12 27 31 0 13 -7 30 -15 37 
-10 8 -29 10 -52 7 -20 -4 -43 -13 -51 -21 -9 -8 -17 -40 -20 -70 -4 -49 -2 -57 23 -82 
25 -25 31 -26 91 -21 58 6 64 5 64 -13 0 -10 -9 -21 -20 -24 -11 -3 -36 -8 -55 -11 
-19 -3 -53 1 -75 8 z" fill="rgb(5, 79, 64)"/>
<path d="M5292 6045l-55 -85 c-31 -46 -63 -90 -73 -97 -12 -9 -22 -9 -36 -2 -17 9 -18 21 -16 142 
3 128 4 132 25 135 22 3 22 0 25 -100 l3 -103 67 103 c57 88 70 103 90 100 
23 -3 23 -5 24 -130 l2 -127 -7 -10 c-4 -6 -15 -11 -24 -11 -14 0 -17 15 -21 93 
l-4 92 z" fill="rgb(5, 79, 64)"/>
<path d="M6435 5860c-18 5 -39 18 -45 29 -5 11 -10 33 -10 50 0 17 9 40 19 50 10 10 41 24 68 29 
28 6 56 18 63 27 11 13 10 19 -6 38 -17 20 -24 21 -81 14 -44 -5 -64 -4 -69 4 
-4 7 0 18 9 26 12 9 39 12 87 10 56 -2 74 -7 92 -24 12 -13 21 -34 21 -52 
0 -17 -8 -40 -17 -50 -10 -11 -42 -25 -72 -31 -34 -7 -58 -18 -64 -30 -7 -14 -6 -23 6 -35 
13 -12 31 -16 73 -13 50 3 56 1 56 -17 0 -16 -9 -21 -47 -27 -27 -5 -63 -4 -83 2 
z" fill="rgb(5, 79, 64)"/>
<path d="M6646 6137l2 -138 c1 -77 4 -139 7 -139 3 0 10 -1 15 -1 l11 -1 -16 -5 c-8 -2 -17 2 -20 9 
-3 8 -4 73 -2 145 l3 130 z" fill="rgb(152, 180, 168)"/>
<path d="M7315 5855c-8 3 -26 15 -40 27 -17 14 -28 39 -35 77 -7 38 -7 70 0 98 6 24 20 50 36 62 
20 15 41 21 81 21 30 0 64 -6 76 -12 12 -7 30 -24 39 -38 12 -17 18 -44 18 -83 
0 -32 -6 -73 -14 -92 -8 -18 -24 -38 -35 -44 -11 -6 -41 -13 -66 -16 -25 -3 -52 -3 -60 0 
z" fill="rgb(5, 79, 64)"/>
<path d="M7829 5869l10 -4 c5 -3 44 -6 88 -7 l78 -3 -79 -3 c-45 -2 -83 1 -88 7 l-9 10 
z" fill="rgb(152, 180, 168)"/>
<path d="M8125 5855l78 3 c0 0 1 0 2 0 l-40 -3 -40 0 z" fill="rgb(131, 164, 151)"/>
<path d="M8125 5855l0 0 0 140 0 140 89 0 c87 -1 89 -1 117 -33 26 -29 29 -39 29 -100 
0 -39 -6 -79 -14 -95 -8 -15 -26 -32 -40 -37 -14 -5 -59 -11 -101 -12 -1 0 -2 0 -2 0 
l-78 -3 z" fill="rgb(5, 79, 64)"/>
<path d="M735 5860l-5 0 0 141 c0 140 0 140 23 137 19 -3 22 -10 25 -60 l3 -57 57 -3 
c43 -2 58 -7 60 -19 2 -13 -10 -17 -58 -22 l-61 -7 3 -32 3 -33 73 -3 c69 -3 73 -4 70 -25 
-1 -7 -4 -13 -8 -17 -2 -2 -5 -3 -7 -2 -7 1 -51 2 -98 2 l-80 0 z" fill="rgb(5, 79, 64)"/>
<path d="M992 5998c3 134 4 137 26 140 22 3 22 3 22 -137 l0 -141 -25 0 -26 0 3 138 
z" fill="rgb(5, 79, 64)"/>
<path d="M1164 6130c5 -10 6 -33 6 -87 0 -51 4 -93 9 -93 0 0 1 0 2 1 8 6 37 46 68 94 
51 78 66 95 87 95 l25 0 -3 -137 c-3 -134 -4 -138 -25 -141 -22 -3 -22 0 -25 95 
l-3 98 -60 -95 c-54 -86 -63 -95 -90 -95 l-30 0 -1 120 c0 66 1 128 4 138 
2 11 11 17 23 15 6 -1 10 -3 13 -8 z" fill="rgb(5, 79, 64)"/>
<path d="M1461 5987c-28 71 -51 134 -51 141 0 7 11 12 24 12 18 0 27 -8 35 -30 9 -27 14 -30 55 -30 
24 0 51 -2 58 -5 9 -4 20 7 31 30 11 22 24 35 36 35 11 0 22 -3 24 -7 3 -5 -18 -66 -47 -138 
-50 -126 -52 -130 -83 -133 l-32 -3 -50 128 z" fill="rgb(5, 79, 64)"/>
<path d="M1730 6001c0 140 0 140 23 137 21 -3 22 -9 27 -98 l5 -95 64 98 c51 78 68 97 87 97 
13 0 25 -6 25 -12 1 -7 1 -69 0 -138 l-1 -125 -24 -3 c-25 -3 -25 -3 -28 95 
l-3 98 -60 -97 c-52 -86 -62 -98 -87 -98 l-28 0 0 141 z" fill="rgb(5, 79, 64)"/>
<path d="M2312 5998l3 137 95 0 c82 0 95 -2 98 -17 3 -16 -5 -18 -56 -18 -33 0 -67 -3 -76 -6 
-11 -4 -16 -19 -16 -45 l0 -39 56 0 c47 0 55 -3 52 -17 -2 -14 -16 -19 -53 -23 
-48 -5 -50 -6 -50 -35 l0 -30 73 -3 c64 -3 72 -5 72 -22 0 -19 -7 -20 -100 -20 
l-101 0 3 138 z" fill="rgb(5, 79, 64)"/>
<path d="M2689 6117l7 6 c4 4 13 7 21 7 10 0 14 -24 15 -97 l2 -98 3 -8 c2 -5 17 30 33 77 
29 81 32 86 59 86 26 0 32 -7 56 -65 16 -36 30 -63 33 -61 2 3 5 42 6 88 
1 72 3 83 20 86 10 2 23 -1 28 -6 6 -6 7 -58 3 -141 l-8 -132 -30 3 c-28 3 -33 10 -65 86 
-19 45 -38 81 -41 80 -4 -2 -23 -40 -43 -85 -34 -78 -38 -83 -67 -83 l-31 0 -1 128 
0 129 z" fill="rgb(5, 79, 64)"/>
<path d="M3068 5990c-35 93 -47 135 -40 142 6 6 17 9 24 7 7 -2 22 -19 33 -36 19 -30 25 -33 71 -33 
47 0 51 2 66 35 10 23 22 35 35 35 11 0 22 -2 24 -5 3 -2 -19 -64 -48 -137 
-51 -128 -54 -133 -83 -136 l-31 -3 -51 131 z" fill="rgb(5, 79, 64)"/>
<path d="M3568 6085l-2 -105 -2 -105 c-1 -4 -2 -7 -3 -8 -5 -5 -17 -7 -26 -5 -16 3 -18 14 -16 85 
1 44 -2 84 -7 87 -6 3 -35 -35 -66 -84 -50 -81 -59 -90 -86 -90 l-31 0 3 138 
c3 129 4 137 23 137 18 0 20 -8 25 -95 4 -74 8 -92 16 -80 7 8 37 52 67 98 
37 55 61 82 74 82 11 0 23 -3 26 -7 2 -2 4 -20 5 -48 z" fill="rgb(5, 79, 64)"/>
<path d="M3669 5987c-27 70 -49 133 -49 140 0 7 9 13 20 13 12 0 26 -12 35 -30 15 -28 19 -30 76 -30 
58 0 60 1 70 30 8 22 17 30 35 30 13 0 24 -5 24 -11 0 -6 -23 -69 -51 -140 
-50 -125 -52 -129 -81 -129 -30 0 -32 3 -79 127 z" fill="rgb(5, 79, 64)"/>
<path d="M4219 5992c1 73 5 136 10 141 4 4 48 7 97 5 74 -3 89 -6 92 -20 3 -15 -7 -18 -70 -20 
l-73 -3 0 -40 0 -40 53 -3 c35 -2 52 -7 52 -16 0 -8 -7 -17 -16 -20 -9 -3 -33 -6 -55 -6 
-38 0 -39 -1 -39 -35 l0 -35 76 0 c66 0 75 -2 72 -17 -3 -16 -17 -18 -102 -21 
l-98 -3 1 133 z" fill="rgb(5, 79, 64)"/>
<path d="M4705 5975l14 -30 0 95 c1 57 1 80 7 89 3 6 8 6 17 6 22 0 22 -2 22 -135 
l0 -135 -30 0 c-28 0 -32 5 -69 90 l-39 90 -28 -65 c-16 -36 -35 -78 -44 -93 
-12 -22 -21 -28 -42 -25 l-28 3 -3 115 c-1 63 0 125 3 138 3 13 13 22 25 22 
19 0 20 -7 21 -97 l1 -98 33 71 c22 47 40 73 54 77 11 3 25 0 30 -7 6 -7 24 -41 40 -77 
l16 -34 z" fill="rgb(5, 79, 64)"/>
<path d="M4842 5987c-2 104 0 132 11 142 10 8 45 11 103 9 74 -3 89 -6 92 -20 3 -15 -7 -18 -70 -20 
l-73 -3 0 -40 0 -40 53 -3 c35 -2 52 -7 52 -16 0 -8 -7 -17 -16 -20 -9 -3 -33 -6 -55 -6 
-38 0 -39 -1 -39 -35 l0 -35 76 0 c66 0 75 -2 72 -17 -3 -15 -18 -19 -103 -22 
l-100 -3 -3 129 z" fill="rgb(5, 79, 64)"/>
<path d="M5482 5915l4 35 c2 19 5 69 6 110 l3 75 0 0 18 3 c9 1 17 -4 17 -10 1 -2 1 -7 1 -13 
0 -20 1 -61 2 -105 l2 -105 0 0 48 -3 c39 -3 48 -6 45 -20 -3 -15 -18 -17 -118 -17 
-96 0 -115 3 -115 15 0 10 13 16 43 18 23 2 43 6 43 10 l1 7 z" fill="rgb(5, 79, 64)"/>
<path d="M5802 5998l3 137 83 0 c81 0 85 -1 112 -31 17 -19 30 -48 34 -75 4 -26 1 -63 -6 -89 
-9 -31 -22 -51 -42 -62 -20 -13 -50 -18 -107 -18 l-80 0 3 138 z" fill="rgb(5, 79, 64)"/>
<path d="M6065 6133l24 -2 c12 0 27 -3 32 -5 l8 -5 6 -20 c6 -18 14 -21 66 -21 55 0 61 2 78 30 
11 18 26 30 39 30 12 0 22 -3 22 -7 0 -4 -21 -61 -47 -127 -25 -67 -51 -127 -56 -133 
-5 -7 -22 -13 -37 -13 -25 0 -30 8 -81 136 l-54 137 z" fill="rgb(5, 79, 64)"/>
<path d="M6646 6137l24 -1 c23 -1 25 -5 28 -64 l3 -63 62 3 62 3 5 60 c4 53 8 60 28 63 
22 3 22 3 22 -137 l0 -141 -26 0 c-25 0 -26 2 -22 48 3 33 0 49 -10 55 -7 4 -38 7 -68 7 
l-54 0 0 -49 c0 -28 -4 -53 -10 -57 l-9 -6 -11 1 c-5 0 -12 1 -15 1 -3 0 -6 62 -7 139 
l-2 138 z" fill="rgb(5, 79, 64)"/>
<path d="M6962 5998l3 137 76 3 c59 2 82 -1 105 -15 23 -14 30 -27 32 -56 2 -21 -3 -48 -10 -60 
-8 -14 -11 -40 -8 -72 4 -44 2 -51 -17 -62 -13 -8 -58 -13 -103 -13 l-81 0 3 138 
z" fill="rgb(5, 79, 64)"/>
<path d="M7574 5991c-29 73 -51 136 -48 140 3 5 13 8 23 7 9 -2 26 -14 37 -28 14 -19 32 -27 72 -32 
l53 -7 15 34 c9 23 21 35 34 35 10 0 21 -4 24 -8 3 -5 -18 -68 -46 -140 
-49 -128 -52 -132 -80 -132 -29 0 -32 5 -84 131 z" fill="rgb(5, 79, 64)"/>
<path d="M7829 5869l3 28 c0 7 0 21 1 38 0 23 0 52 0 80 l0 90 4 18 c3 12 12 17 26 15 
19 -3 22 -10 25 -55 3 -51 4 -53 32 -53 24 0 33 8 58 55 22 40 36 55 51 55 
14 0 21 -6 21 -17 -1 -10 -11 -36 -23 -57 l-23 -39 28 -28 c19 -18 28 -38 28 -59 
0 -20 -9 -40 -25 -55 -13 -14 -25 -26 -27 -27 l-3 -3 -78 3 c-44 1 -83 4 -88 7 
l-10 4 z" fill="rgb(5, 79, 64)"/>
<path d="M3568 6085c1 -23 2 -52 2 -84 0 -56 -3 -106 -6 -126 l2 105 2 105 z" fill="rgb(105, 151, 136)"/>
<path d="M5855 5997l0 98 42 -1 c26 0 51 -8 63 -19 16 -14 20 -31 20 -77 0 -45 -5 -63 -20 -78 
-14 -14 -34 -20 -62 -20 l-43 -1 0 98 z" fill="rgb(234, 235, 231)"/>
<path d="M7012 5934c-2 18 0 35 5 37 4 2 28 2 53 -1 33 -4 46 -10 48 -23 2 -10 -2 -24 -8 -32 
-7 -9 -30 -15 -53 -15 -39 0 -41 2 -45 34 z" fill="rgb(234, 235, 231)"/>
<path d="M7306 5922c-10 14 -16 44 -16 80 0 45 5 63 20 78 12 12 33 20 54 20 25 0 40 -7 55 -26 
15 -19 21 -41 21 -74 0 -33 -6 -55 -21 -74 -16 -20 -29 -26 -59 -26 -29 0 -43 6 -54 22 
z" fill="rgb(234, 235, 231)"/>
<path d="M7890 5945l0 45 43 0 c31 0 49 -6 62 -20 15 -17 16 -24 7 -45 -10 -22 -18 -25 -62 -25 
l-50 0 0 45 z" fill="rgb(234, 235, 231)"/>
<path d="M8180 6001l0 102 45 -6 c25 -2 55 -13 65 -22 16 -14 20 -31 20 -77 0 -45 -5 -63 -20 -78 
-14 -14 -33 -20 -65 -20 l-45 0 0 101 z" fill="rgb(234, 235, 231)"/>
<path d="M5531 6115l5 -105 -1 -105 0 0 -2 105 c-1 44 -2 85 -2 105 z" fill="rgb(105, 151, 136)"/>
<path d="M7633 5967c-12 34 -19 64 -15 67 3 3 23 6 44 6 24 0 38 -5 38 -12 0 -7 -11 -38 -23 -68 
l-23 -55 -21 62 z" fill="rgb(234, 235, 231)"/>
<path d="M1517 5972c-9 28 -14 55 -11 60 3 4 21 8 40 8 21 0 34 -5 34 -13 0 -7 -7 -34 -16 -60 
-9 -26 -19 -47 -23 -47 -4 0 -15 23 -24 52 z" fill="rgb(234, 235, 231)"/>
<path d="M3124 5972c-12 32 -19 60 -16 63 3 3 20 5 39 5 18 0 37 -3 41 -7 4 -5 -4 -33 -18 -63 
l-25 -55 -21 57 z" fill="rgb(234, 235, 231)"/>
<path d="M3723 5973c-13 33 -23 61 -23 63 0 2 20 4 45 4 29 0 45 -4 45 -12 0 -7 -10 -35 -23 -63 
l-22 -50 -22 58 z" fill="rgb(234, 235, 231)"/>
<path d="M5482 5915l-1 107 c0 59 2 108 7 110 l7 3 -3 -75 c-1 -41 -4 -91 -6 -110 
l-4 -35 zm13 220 l0 0 0 0 z" fill="rgb(105, 151, 136)"/>
<path d="M6182 5972c-11 31 -18 59 -15 62 4 3 24 6 45 6 21 0 38 -3 38 -7 0 -5 -11 -33 -24 -63 
l-23 -55 -21 57 z" fill="rgb(234, 235, 231)"/>
<path d="M7833 5935l0 85 0 85 0 -90 c0 -28 0 -57 0 -80 z" fill="rgb(152, 180, 168)"/>
<path d="M1164 6130l13 -87 4 -92 c-1 -1 -2 -1 -2 -1 -5 0 -9 42 -9 93 0 54 -1 77 -6 87 
z" fill="rgb(131, 164, 151)"/>
<path d="M2689 6117l3 12 c2 8 13 12 23 10 18 -4 20 -12 20 -104 l-1 -100 -2 98 c-1 73 -5 97 -15 97 
-8 0 -17 -3 -21 -7 l-7 -6 z" fill="rgb(78, 135, 115)"/>
<path d="M4705 5975l6 80 15 74 c-6 -9 -6 -32 -7 -89 l0 -95 -14 30 z" fill="rgb(168, 187, 178)"/>
<path d="M7015 6050c0 45 0 45 37 48 20 2 46 -2 58 -8 12 -6 20 -21 20 -35 0 -14 -8 -29 -19 -35 
-11 -5 -37 -11 -58 -12 l-38 -3 0 45 z" fill="rgb(234, 235, 231)"/>
<path d="M6065 6133l24 4 c13 3 27 0 32 -5 l8 -11 -8 5 c-5 2 -20 5 -32 5 l-24 2 z" fill="rgb(78, 135, 115)"/>
</g>
</svg>
