<?xml version="1.0" encoding="UTF-8" standalone="no"?><!DOCTYPE svg PUBLIC "-//W3C//DTD SVG 20010904//EN"
 "http://www.w3.org/Graphics/SVG/1.1/DTD/svg11.dtd">
<svg version="1.1" baseProfile="full" xmlns="http://www.w3.org/2000/svg"
 width="1024pt" height="1024pt" viewBox="0 0 1024 1024" preserveAspectRatio="xMidYMid meet">
<g id="svg" fill="black" stroke="none" stroke-linecap="round" transform="scale(0.1,0.1)">
<path d="M0 5120l0 5120 5120 0 5120 0 0 -5120 0 -5120 -5120 0 -5120 0 0 5120 z" fill="rgb(224, 240, 230)"/>
<path d="M6818 4228c-50 21 -70 37 -95 75 -20 29 -35 66 -39 96 -4 34 -1 64 10 99 
12 34 31 64 61 90 23 22 59 45 79 51 20 6 54 11 76 11 22 0 60 -9 84 -20 
24 -11 58 -36 75 -55 17 -20 38 -58 48 -87 13 -41 14 -61 6 -100 -5 -26 -22 -67 -37 -90 
-19 -28 -45 -51 -83 -70 -31 -15 -71 -28 -89 -28 -18 0 -62 12 -96 28 z" fill="rgb(23, 124, 5)"/>
<path d="M6747 5075c4 62 9 173 12 270 l6 210 150 5 150 5 8 -3 c4 -2 7 -131 7 -287 
0 -156 3 -290 6 -299 5 -13 23 -16 90 -16 l84 0 0 208 c1 147 5 220 15 254 
8 25 28 62 45 82 18 20 51 42 76 51 26 9 102 18 188 21 79 4 156 4 170 0 
l26 -6 0 -135 0 -135 -73 0 c-43 0 -80 -5 -90 -12 -14 -11 -17 -37 -19 -170 
l-3 -158 101 0 101 0 123 303 c67 166 124 319 127 339 4 25 0 46 -11 62 
-9 14 -36 32 -61 41 -25 8 -59 15 -75 15 l-30 0 0 5 -2 155 -3 161 70 -4 
c44 -3 96 -14 138 -31 51 -20 82 -41 130 -88 56 -56 71 -80 127 -203 35 -77 133 -327 217 -555 
85 -228 155 -428 156 -445 l2 -30 -179 -3 c-99 -1 -183 1 -188 6 -4 4 -28 100 -54 212 
-25 113 -49 224 -54 246 -9 40 -12 34 -76 -195 -36 -130 -70 -244 -75 -253 
-9 -16 -34 -18 -247 -20 l-237 -3 -5 -115 -5 -115 -149 -3 c-101 -2 -153 1 -162 9 
-10 8 -14 40 -14 120 l0 109 -75 0 c-70 0 -83 4 -189 54 -81 38 -131 69 -170 105 
-31 29 -64 67 -72 84 -14 26 -15 47 -9 122 1 8 1 18 2 30 z" fill="rgb(23, 124, 5)"/>
<path d="M3290 4660c-33 11 -90 39 -126 61 -45 28 -80 61 -111 102 -26 36 -55 93 -70 137 
-20 59 -25 96 -26 170 0 77 5 108 24 160 17 44 45 89 88 139 47 55 80 83 127 108 
35 18 96 40 134 48 44 9 99 13 148 10 48 -2 105 -14 149 -29 44 -16 93 -45 133 -76 
39 -33 78 -76 105 -121 30 -47 49 -93 61 -145 12 -54 15 -95 10 -141 -4 -36 -16 -92 -27 -125 
-12 -33 -43 -88 -69 -123 -29 -39 -75 -82 -114 -109 -37 -25 -96 -54 -132 -66 
-46 -14 -94 -20 -155 -20 -62 0 -107 6 -149 20 z" fill="rgb(23, 124, 5)"/>
<path d="M5197 4683c-43 13 -99 40 -134 65 -35 24 -77 66 -97 95 -19 29 -45 81 -57 117 
-18 52 -23 87 -23 175 0 92 4 121 25 175 18 48 41 83 89 135 54 58 78 76 145 105 
76 33 86 35 208 38 108 2 138 -1 200 -21 41 -12 96 -36 123 -52 27 -17 49 -34 49 -40 
0 -5 -26 -47 -58 -92 -33 -45 -65 -84 -72 -86 -7 -3 -53 4 -102 15 -68 16 -105 19 -149 13 
-49 -6 -64 -13 -96 -45 -21 -21 -38 -43 -38 -49 0 -8 79 -11 273 -11 220 0 277 -3 293 -14 
16 -12 19 -26 18 -93 -1 -43 -7 -104 -13 -136 -8 -36 -30 -85 -57 -127 -35 -56 -58 -79 -113 -114 
-40 -25 -96 -51 -133 -60 -35 -9 -97 -16 -136 -16 -46 0 -98 8 -145 23 z" fill="rgb(23, 124, 5)"/>
<path d="M2431 4961c14 -4 41 -8 68 -9 37 -1 61 0 72 6 3 1 5 2 7 4 6 8 11 110 13 283 
2 149 4 282 6 298 l2 28 163 -3 163 -3 3 -343 c1 -221 -2 -358 -8 -384 -6 -21 -27 -57 -47 -79 
-25 -28 -54 -46 -94 -59 -55 -19 -89 -20 -643 -20 l-586 0 -5 23 c-3 12 -4 211 -3 442 
l3 420 165 0 165 0 5 -300 5 -300 88 -3 c48 -1 88 -1 89 0 1 2 5 138 8 303 
l5 300 165 0 165 0 3 -295 c1 -185 6 -298 13 -305 1 -1 5 -3 10 -4 z" fill="rgb(23, 124, 5)"/>
<path d="M4315 4955l0 0 72 -3 c33 -1 66 1 84 5 4 1 7 2 9 3 19 10 20 22 22 308 l3 297 150 5 
c83 3 158 1 167 -3 17 -7 18 -33 18 -346 0 -330 -1 -339 -23 -392 -14 -35 -38 -67 -62 -87 
-22 -18 -64 -39 -92 -47 -43 -12 -115 -15 -375 -12 l-323 2 -3 420 c-1 231 0 430 3 443 
5 22 8 22 170 22 91 0 166 -1 167 -2 1 -2 5 -140 8 -308 l5 -305 z" fill="rgb(23, 124, 5)"/>
<path d="M6077 5571l153 4 155 -2 c37 -3 53 -7 60 -14 9 -8 81 -203 161 -433 80 -230 143 -424 140 -432 
-5 -12 -38 -14 -193 -12 l-188 3 -56 270 -55 271 -59 -251 c-32 -137 -63 -260 -68 -272 
-10 -23 -13 -23 -194 -23 l-183 0 0 23 c0 12 68 207 150 432 83 226 156 417 163 425 
3 4 8 8 14 11 z" fill="rgb(23, 124, 5)"/>
<path d="M3156 5155l-5 -113 c-1 -93 2 -114 14 -119 9 -3 19 -3 22 1 l6 6 3 2 c1 2 5 22 9 46 
0 0 0 0 0 0 5 30 11 41 18 35 l12 -8 20 0 c19 0 20 8 25 240 3 165 9 244 17 254 
10 11 13 9 18 -12 4 -14 5 -95 3 -179 -3 -152 -3 -153 20 -156 12 -2 22 -2 23 0 
0 1 1 34 3 83 1 28 2 62 3 98 3 97 10 177 14 177 5 0 10 -74 12 -165 l3 -165 
22 0 c17 0 22 6 22 28 0 10 -2 25 -4 37 l2 80 -3 80 c2 30 4 51 6 67 4 36 9 42 21 45 
l19 4 -2 -60 c-1 -34 0 -63 2 -66 l4 -6 23 6 c19 6 22 13 22 61 0 41 4 54 15 54 
12 0 15 -16 15 -81 0 -78 1 -80 23 -77 20 3 22 9 25 71 3 59 5 67 17 57 
12 -10 15 -45 15 -171 0 -152 1 -159 20 -159 19 0 20 7 20 145 0 80 4 145 8 145 
4 0 13 -5 20 -12 8 -8 12 -55 12 -145 0 -123 1 -133 19 -133 15 0 19 11 24 68 
4 37 7 84 7 106 0 33 2 37 15 26 11 -9 15 -35 15 -101 0 -82 2 -89 20 -89 
16 0 20 7 21 33 0 31 0 32 11 7 5 -14 8 -55 5 -92 -3 -38 -17 -96 -33 -135 
-20 -50 -42 -83 -85 -126 -37 -37 -83 -69 -126 -90 -64 -30 -75 -32 -178 -32 
-105 0 -113 2 -176 33 -41 21 -86 55 -120 90 -46 49 -52 58 -36 65 15 7 17 29 17 236 
0 175 3 231 14 246 11 15 14 -16 21 -216 0 -8 1 -16 1 -24 z" fill="rgb(248, 253, 250)"/>
<path d="M5275 4925c-14 9 -32 29 -40 45 -8 16 -15 34 -15 40 0 6 45 10 126 10 l126 0 -7 -27 
c-3 -16 -17 -39 -30 -52 -18 -19 -37 -25 -79 -28 -38 -2 -64 2 -81 12 z" fill="rgb(224, 240, 230)"/>
<path d="M3156 5155c4 -118 6 -214 6 -217 -1 -5 5 -8 15 -8 l16 0 -6 -6 c-3 -4 -13 -4 -22 -1 
-12 5 -15 26 -14 119 l5 113 z" fill="rgb(82, 162, 70)"/>
<path d="M3045 5030c-18 91 -18 99 -3 179 9 46 19 86 22 89 3 3 7 3 9 1 1 -2 0 -85 -3 -184 
l-6 -180 -19 95 z" fill="rgb(224, 240, 230)"/>
<path d="M2431 4961l69 -3 71 0 c-11 -6 -35 -7 -72 -6 -27 1 -54 5 -68 9 z" fill="rgb(82, 162, 70)"/>
<path d="M4315 4955l78 3 78 -1 c-18 -4 -51 -6 -84 -5 l-72 3 0 0 z" fill="rgb(82, 162, 70)"/>
<path d="M3205 4978l-1 233 2 235 13 8 c3 2 5 3 7 1 3 -3 3 -12 1 -31 -2 -22 -4 -40 -5 -41 
-1 -2 0 -3 3 -3 2 0 4 -1 5 -4 0 -1 1 -2 1 -3 l-1 -8 c1 -37 2 -83 3 -132 
l2 -228 -12 8 c-7 6 -13 -5 -18 -35 z" fill="rgb(234, 243, 236)"/>
<path d="M6747 5075l-3 245 1 245 160 0 160 0 -150 -5 -150 -5 -6 -210 c-3 -97 -8 -208 -12 -270 
z" fill="rgb(48, 136, 40)"/>
<path d="M3364 5235l-3 137 c-1 82 3 139 9 143 6 3 15 3 20 0 6 -3 10 -12 10 -19 l0 -14 
-2 -151 -2 -151 -3 165 c-2 91 -7 165 -12 165 -4 0 -11 -80 -14 -177 -1 -36 -2 -70 -3 -98 
z" fill="rgb(171, 213, 163)"/>
<path d="M3396 5180l2 151 2 151 20 -5 21 -5 c-2 -16 -4 -37 -6 -67 0 -3 0 -6 0 -9 
-4 -64 -5 -126 -1 -138 1 -4 2 -8 2 -13 2 -12 4 -27 4 -37 0 -22 -5 -28 -22 -28 
l-22 0 z" fill="rgb(29, 140, 8)"/>
<path d="M3436 5245c0 5 -1 9 -2 13 -4 12 -3 74 1 138 0 3 0 6 0 9 l3 -80 -2 -80 z" fill="rgb(23, 124, 5)"/>
<path d="M3206 5446l2 7 c1 4 4 7 7 7 3 0 7 0 10 0 0 0 1 -2 1 -5 -2 2 -4 1 -7 -1 
l-13 -8 zm20 9 c1 -11 3 -39 4 -79 -1 3 -3 4 -5 4 -3 0 -4 1 -3 3 1 1 3 19 5 41 2 19 2 28 -1 31 
zm4 -79 c0 -3 0 -7 0 -11 l1 8 c0 1 -1 2 -1 3 z" fill="rgb(154, 198, 149)"/>
<path d="M3481 5521l13 0 c7 -1 13 -18 14 -43 2 -24 -3 -53 -10 -66 l-13 -23 -4 6 
c-2 3 -3 32 -2 66 l2 60 z" fill="rgb(29, 140, 8)"/>
<path d="M6077 5571c7 3 14 6 21 7 12 1 92 1 177 -1 49 -1 85 -2 110 -4 l-155 2 -153 -4 
z" fill="rgb(131, 189, 126)"/>
<path d="M7870 5725l-5 158 0 158 3 -161 2 -155 z" fill="rgb(86, 163, 77)"/>
</g>
</svg>
