<?xml version="1.0" encoding="UTF-8" standalone="no"?><!DOCTYPE svg PUBLIC "-//W3C//DTD SVG 20010904//EN"
 "http://www.w3.org/Graphics/SVG/1.1/DTD/svg11.dtd">
<svg version="1.1" baseProfile="full" xmlns="http://www.w3.org/2000/svg"
 width="1024pt" height="1024pt" viewBox="0 0 1024 1024" preserveAspectRatio="xMidYMid meet">
<g id="svg" fill="black" stroke="none" stroke-linecap="round" transform="scale(0.1,0.1)">
<path d="M0 5120l0 5120 5120 0 5120 0 0 -5120 0 -5120 -5120 0 -5120 0 0 5120 z" fill="rgb(238, 255, 249)"/>
<path d="M5679 3428c-28 6 -46 16 -55 33 -10 18 -13 90 -14 311 0 181 4 289 10 293 
6 3 109 -62 230 -145 122 -84 230 -161 240 -173 18 -18 20 -36 20 -143 0 -114 -2 -125 -22 -146 
-22 -22 -34 -23 -195 -30 -95 -5 -192 -4 -214 0 z" fill="rgb(10, 162, 92)"/>
<path d="M6288 3548c-11 15 -10 19 11 32 14 8 45 31 70 50 l46 35 -20 20 c-11 11 -302 210 -646 443 
l-627 422 -361 -226 c-223 -139 -367 -224 -376 -220 -8 3 -206 147 -439 320 
-233 172 -426 318 -430 324 -4 6 7 26 23 44 l29 32 251 -157 c138 -86 323 -204 411 -262 
l160 -105 65 40 c36 22 200 122 366 221 227 137 305 179 317 173 9 -5 198 -132 420 -281 
221 -150 519 -356 663 -458 144 -102 265 -185 269 -185 5 0 20 20 33 45 
17 29 32 45 45 45 14 0 30 -24 64 -98 25 -53 60 -130 78 -170 17 -41 29 -80 26 -88 
-4 -11 -44 -14 -220 -14 -193 0 -217 2 -228 18 z" fill="rgb(10, 162, 92)"/>
<path d="M4904 3795l-24 24 2 218 3 218 108 73 c59 39 116 72 126 72 11 0 71 -36 135 -81 
106 -73 116 -84 122 -117 3 -20 4 -116 2 -212 l-3 -175 -28 -22 c-27 -22 -36 -23 -223 -23 
-194 0 -195 0 -220 25 z" fill="rgb(10, 162, 92)"/>
<path d="M5879 4372c-113 79 -220 156 -237 172 l-32 30 0 367 0 368 24 27 23 28 175 4 
c121 3 187 1 212 -8 20 -6 42 -21 49 -33 9 -17 13 -153 15 -555 2 -440 1 -533 -11 -537 
-7 -3 -105 59 -218 137 z" fill="rgb(10, 162, 92)"/>
<path d="M4158 4725c0 66 0 177 0 290 1 190 1 256 8 287 3 15 8 22 14 30 16 21 32 29 71 33 
27 3 120 2 206 -2 l156 -8 19 -30 c16 -27 18 -59 18 -371 l0 -342 -33 -28 
c-18 -16 -76 -53 -128 -83 l-95 -54 -109 74 c-61 41 -113 79 -117 85 -4 5 -8 35 -9 65 
0 8 0 27 -1 54 z" fill="rgb(10, 162, 92)"/>
<path d="M4158 4725l-4 290 12 287 c-7 -31 -7 -97 -8 -287 0 -113 0 -224 0 -290 z" fill="rgb(120, 210, 171)"/>
<path d="M5241 4810c-57 39 -108 70 -113 70 -6 0 -59 -29 -119 -65 -60 -36 -114 -65 -119 -65 
-7 0 -9 98 -8 288 l3 287 40 23 c38 23 46 23 216 20 172 -3 178 -4 203 -27 
l26 -24 0 -289 c0 -230 -3 -288 -13 -288 -7 0 -60 32 -116 70 z" fill="rgb(10, 162, 92)"/>
<path d="M6352 5679c-18 11 -37 32 -42 47 -8 19 -7 37 1 61 6 20 22 39 39 48 16 8 42 15 59 15 
17 0 41 -10 56 -22 15 -14 28 -38 31 -59 5 -28 1 -41 -21 -67 -15 -18 -40 -34 -59 -37 
-23 -5 -41 -1 -64 14 z"/>
<path d="M2526 5696c-13 13 -16 45 -16 192 0 97 3 289 7 425 l6 248 81 -3 81 -3 5 -255 
5 -255 109 182 c106 178 109 181 145 185 20 2 49 1 64 -2 23 -4 44 -33 134 -185 
l108 -180 5 255 c4 179 8 256 16 258 7 2 43 2 80 0 l69 -3 3 -431 2 -431 -48 -4 
c-27 -2 -64 -2 -84 -1 -35 4 -38 7 -172 238 -76 128 -141 236 -145 239 -5 2 -71 -100 -147 -227 
-76 -127 -149 -238 -161 -245 -13 -7 -47 -13 -77 -13 -36 0 -60 5 -70 16 
z"/>
<path d="M6713 5815c-2 15 -3 39 -3 64 l0 71 -11 0 -47 0 c-32 0 -63 5 -70 12 -7 7 -12 35 -12 63 
0 28 5 56 12 63 7 7 38 12 70 12 l58 0 0 168 c0 141 3 173 19 208 10 23 33 51 50 63 
19 14 57 27 96 32 47 7 77 5 109 -4 24 -7 54 -20 67 -28 22 -15 22 -18 11 -57 
-7 -23 -18 -47 -25 -54 -10 -10 -26 -11 -69 -3 -50 8 -59 7 -77 -9 -20 -18 -21 -30 -21 -168 
l0 -148 73 0 c43 0 78 -5 85 -12 7 -7 12 -35 12 -63 0 -28 -5 -56 -12 -63 
-7 -7 -42 -12 -85 -12 l-73 0 0 -68 c0 -40 -5 -73 -12 -80 -7 -7 -39 -12 -74 -12 
-35 0 -65 4 -68 9 -2 2 -3 8 -3 16 z"/>
<path d="M6713 5815l-10 67 -4 68 11 0 0 -71 c0 -25 1 -49 3 -64 z" fill="rgb(181, 194, 191)"/>
<path d="M3820 5947l35 3 35 -2 c-4 -1 -8 -1 -12 -1 -19 -1 -41 -1 -58 0 z" fill="rgb(84, 88, 91)"/>
<path d="M5248 5949c-1 1 -2 1 -3 1 l-3 0 c2 0 4 0 6 -1 zm0 0 c7 -1 13 -1 20 -1 l56 -3 c-16 -3 -30 -5 -39 -5 -19 0 -35 2 -35 5 0 2 -1 3 -2 4 
z" fill="rgb(84, 88, 91)"/>
<path d="M3820 5947c-9 0 -16 0 -21 1 -14 1 -50 12 -80 25 -35 14 -69 39 -98 70 -25 29 -52 73 -63 105 
-15 43 -19 74 -16 128 3 47 13 89 31 126 18 40 42 70 79 101 43 35 70 49 127 62 
63 16 81 16 141 6 46 -9 88 -24 125 -47 38 -24 65 -52 90 -91 22 -36 39 -78 45 -117 
8 -43 8 -78 0 -117 -6 -32 -26 -81 -45 -112 -22 -36 -51 -65 -84 -86 -28 -17 -66 -36 -85 -41 
-16 -5 -48 -10 -76 -12 l-35 2 -35 -3 z"/>
<path d="M4448 6550l7 -166 11 -168 c4 -40 9 -56 17 -69 10 -16 35 -36 55 -44 20 -8 54 -13 75 -12 
27 3 46 13 66 35 l28 31 5 197 c3 135 8 200 16 207 7 5 34 9 61 9 27 0 56 -3 65 -6 
14 -5 16 -34 16 -223 0 -189 -3 -221 -19 -256 -10 -22 -36 -56 -56 -75 -21 -19 -53 -41 -71 -47 
-18 -7 -67 -13 -108 -13 -59 0 -83 5 -117 23 -40 22 -42 22 -47 5 -4 -17 -14 -18 -81 -16 
l-76 3 0 295 0 295 63 8 c34 4 70 4 80 0 4 -2 7 -6 10 -13 z"/>
<path d="M5248 5949c-2 1 -4 1 -6 1 -28 4 -62 13 -84 23 -28 12 -67 35 -85 51 -19 15 -47 57 -63 92 
-25 53 -30 76 -30 141 0 52 7 95 19 129 11 29 34 68 51 88 18 19 61 50 97 68 
58 28 76 32 152 33 69 0 99 -5 150 -25 35 -14 73 -33 84 -42 19 -15 20 -20 9 -50 
-7 -18 -20 -44 -31 -57 l-18 -24 -64 27 c-45 19 -81 26 -126 26 -56 0 -68 -4 -106 -32 
-29 -23 -42 -40 -42 -58 l0 -25 202 3 203 3 11 -28 c6 -16 8 -52 5 -83 -4 -30 -17 -78 -30 -106 
-13 -28 -43 -68 -67 -89 -25 -21 -69 -46 -102 -56 -16 -6 -35 -11 -53 -14 
l-56 3 c-7 0 -13 0 -20 1 z"/>
<path d="M6365 5956l40 0 40 1 -40 -1 -40 0 z" fill="rgb(107, 114, 116)"/>
<path d="M5600 5977c0 10 56 144 125 298 69 153 129 282 135 287 5 4 35 8 65 8 30 0 59 -4 65 -8 
5 -4 66 -138 135 -296 74 -170 122 -293 117 -298 -5 -5 -42 -8 -83 -6 l-74 3 -77 183 
c-43 100 -80 182 -83 182 -3 0 -40 -82 -84 -182 l-78 -183 -82 -3 c-73 -3 -81 -1 -81 15 
z"/>
<path d="M6365 5956l-23 6 -22 6 0 295 0 295 68 3 c37 2 73 0 80 -5 9 -6 12 -78 12 -298 
0 -266 -1 -289 -17 -295 l-18 -6 -40 -1 -40 0 z"/>
<path d="M7087 5977c1 10 52 128 112 263 61 135 115 252 120 260 6 11 -11 56 -55 149 
-35 74 -64 140 -64 148 0 11 17 13 83 11 l82 -3 192 -405 c105 -223 192 -413 192 -423 
1 -16 -8 -18 -81 -15 l-83 3 -80 178 c-44 97 -84 176 -89 174 -5 -2 -44 -82 -85 -178 
l-76 -174 -85 -3 c-76 -3 -84 -1 -83 15 z"/>
<path d="M3780 6109c-25 13 -47 34 -60 58 -13 25 -20 56 -20 93 0 36 7 68 19 91 13 24 35 44 64 58 
24 11 60 21 80 21 20 0 55 -9 77 -20 23 -11 49 -34 62 -56 15 -26 21 -53 21 -94 
0 -42 -6 -67 -23 -95 -13 -21 -40 -46 -62 -56 -21 -11 -56 -19 -78 -19 -22 0 -58 9 -80 19 
z" fill="rgb(238, 255, 249)"/>
<path d="M5193 6126c-23 22 -43 47 -43 57 0 15 13 17 136 17 l135 0 -6 -22 c-4 -13 -20 -36 -35 -52 
-23 -24 -39 -30 -86 -34 -55 -5 -59 -3 -101 34 z" fill="rgb(238, 255, 249)"/>
<path d="M4448 6550c7 -19 9 -65 12 -185 2 -71 4 -118 6 -149 l-11 168 -7 166 z" fill="rgb(67, 77, 76)"/>
</g>
</svg>
